<?xml version="1.0" standalone="no"?>
<!DOCTYPE svg PUBLIC "-//W3C//DTD SVG 20010904//EN"
 "http://www.w3.org/TR/2001/REC-SVG-20010904/DTD/svg10.dtd">
<svg version="1.0" xmlns="http://www.w3.org/2000/svg"
 width="592.000000pt" height="592.000000pt" viewBox="0 0 592.000000 592.000000"
 preserveAspectRatio="xMidYMid meet">
<metadata>
Created by potrace 1.14, written by Peter Selinger 2001-2017
</metadata>
<g transform="translate(0.000000,592.000000) scale(0.100000,-0.100000)"
fill="#000000" stroke="none">
<path d="M5635 5714 c-60 -12 -126 -25 -145 -28 -19 -3 -129 -25 -245 -50
-115 -25 -221 -47 -235 -49 -14 -3 -32 -8 -40 -11 -8 -3 -28 -7 -45 -9 -24 -4
-556 -123 -705 -158 -19 -4 -57 -13 -83 -18 -27 -6 -71 -17 -98 -25 -27 -8
-51 -15 -54 -16 -3 0 -6 0 -7 -1 -2 0 -10 -2 -18 -4 -113 -27 -119 -30 -124
-55 -27 -135 -41 -410 -23 -432 7 -8 84 -64 172 -123 88 -60 162 -112 163
-117 2 -4 10 -8 17 -8 7 0 15 -3 17 -7 2 -5 46 -37 98 -72 52 -36 97 -67 100
-70 3 -3 34 -26 70 -50 36 -25 67 -47 70 -51 3 -3 44 -32 93 -64 48 -33 92
-65 98 -73 6 -7 18 -13 25 -13 8 0 14 -4 14 -10 0 -5 7 -10 15 -10 8 0 15 -4
15 -8 0 -5 18 -18 40 -31 22 -12 40 -25 40 -29 0 -4 13 -13 28 -20 16 -6 38
-21 50 -32 12 -11 25 -20 31 -20 5 0 11 -4 13 -8 3 -9 316 -224 412 -284 l61
-38 42 68 c23 37 46 72 50 77 5 6 10 13 11 18 1 4 31 66 67 139 36 73 65 137
65 142 -1 6 -84 67 -186 136 -102 69 -193 131 -202 138 -9 7 -123 87 -252 178
-282 199 -410 294 -410 303 0 3 48 19 108 35 59 16 145 39 192 52 47 12 128
34 180 48 52 14 127 34 165 44 39 11 147 40 240 65 94 25 220 61 280 79 l110
33 -2 39 c-5 92 -51 317 -82 399 -13 34 -30 34 -196 1z"/>
<path d="M1348 5443 c-14 -9 -35 -33 -45 -52 -11 -20 -41 -76 -68 -126 -26
-49 -62 -117 -80 -150 -18 -33 -51 -97 -74 -142 -23 -45 -46 -85 -52 -88 -5
-4 -7 -10 -5 -14 3 -4 -3 -20 -13 -35 l-19 -28 -1 94 c-2 133 -13 183 -56 253
-14 22 -28 47 -32 55 -7 16 -62 71 -103 104 -35 28 -140 75 -180 80 -19 3 -35
5 -35 6 0 9 -182 4 -225 -6 -159 -36 -286 -154 -340 -314 -17 -50 -21 -83 -19
-174 2 -135 19 -221 59 -301 65 -131 181 -214 335 -239 17 -2 32 -5 35 -6 13
-4 119 -2 150 3 67 12 135 36 183 66 26 17 47 29 47 27 0 -2 -24 -50 -54 -107
-30 -57 -124 -242 -210 -411 -137 -269 -157 -313 -155 -350 3 -57 13 -74 46
-82 15 -4 46 -11 68 -17 105 -26 253 -31 279 -10 21 17 136 209 136 227 0 7 3
14 8 16 4 2 23 35 43 73 20 39 73 142 119 230 45 88 83 161 84 162 0 1 1 -45
0 -103 -4 -327 118 -514 371 -570 317 -69 570 92 624 396 28 159 16 291 -36
399 -30 60 -146 184 -184 196 -13 4 -26 11 -29 14 -6 8 -96 39 -130 46 -33 6
-210 8 -235 2 -77 -18 -187 -77 -232 -124 -13 -13 -23 -20 -23 -15 0 5 78 169
174 363 237 483 257 528 258 562 1 38 -38 72 -96 82 -64 12 -75 13 -171 19
-73 4 -95 2 -117 -11z m-821 -471 c14 -9 33 -84 28 -110 -2 -9 -4 -22 -4 -28
-1 -16 -56 -37 -79 -30 -27 9 -40 44 -36 96 6 65 49 99 91 72z m1194 -835 c21
-16 36 -70 33 -121 -3 -69 -68 -97 -129 -56 -16 11 -27 20 -24 20 4 0 3 15 0
33 -8 36 4 94 25 117 17 20 74 24 95 7z"/>
<path d="M3787 2183 c-1 0 -72 -4 -157 -8 -85 -3 -177 -8 -205 -10 -27 -2 -88
-6 -135 -9 -47 -3 -107 -8 -135 -10 -27 -3 -84 -8 -125 -11 -41 -4 -91 -8
-110 -10 -19 -3 -73 -7 -120 -10 -47 -3 -101 -8 -120 -11 -19 -2 -62 -6 -95
-9 -33 -3 -87 -7 -120 -11 -33 -3 -76 -7 -95 -9 -45 -4 -145 -14 -190 -20 -19
-2 -66 -6 -105 -10 -38 -3 -81 -8 -95 -10 -14 -2 -54 -7 -90 -10 -36 -3 -83
-8 -105 -11 -22 -2 -62 -7 -90 -9 -27 -2 -60 -6 -71 -9 -12 -2 -43 -5 -70 -7
-65 -3 -84 -13 -78 -42 2 -12 6 -56 9 -97 3 -41 10 -97 15 -125 6 -27 12 -63
14 -80 4 -36 33 -158 47 -201 11 -35 1 -33 159 -20 36 3 94 8 130 11 36 2 92
7 125 10 33 2 92 7 130 10 39 3 104 8 145 12 41 3 92 7 112 7 21 1 38 3 38 6
0 3 19 5 43 6 48 0 227 14 260 19 12 2 63 6 112 10 50 3 106 8 125 10 19 2 69
6 110 9 144 12 185 15 245 21 92 8 153 13 230 20 39 3 90 7 115 10 25 2 81 7
125 10 44 3 98 8 120 11 59 7 148 15 167 15 17 0 25 22 34 87 17 127 21 188
18 272 -3 102 -5 118 -17 138 -5 6 -5 12 -1 12 4 0 -1 9 -11 20 -9 10 -37 22
-61 26 -37 5 -223 12 -227 7z"/>
<path d="M4079 1086 c-2 -2 -38 -6 -79 -10 -41 -3 -84 -8 -95 -10 -11 -2 -49
-7 -85 -11 -36 -4 -73 -9 -84 -11 -10 -2 -44 -6 -75 -9 -31 -3 -67 -8 -81 -12
-14 -3 -45 -7 -70 -9 -25 -1 -45 -3 -45 -4 0 -3 -42 -10 -90 -15 -49 -6 -84
-11 -135 -20 -38 -7 -112 -17 -145 -20 -35 -3 -97 -12 -175 -25 -30 -6 -75
-12 -100 -15 -25 -3 -56 -7 -70 -10 -14 -3 -45 -7 -70 -10 -25 -3 -54 -6 -65
-9 -18 -3 -68 -11 -135 -21 -14 -2 -38 -6 -55 -9 -16 -3 -48 -7 -70 -11 -23
-3 -50 -7 -60 -9 -11 -2 -42 -7 -70 -10 -27 -4 -62 -9 -77 -11 -57 -10 -84
-14 -123 -20 -23 -3 -52 -7 -65 -10 -13 -3 -42 -7 -65 -10 -71 -10 -198 -35
-203 -40 -3 -3 -5 -22 -5 -42 2 -104 38 -265 101 -442 l26 -74 135 8 c75 4
154 9 176 11 22 1 78 5 125 8 47 4 103 8 125 10 22 3 76 7 120 11 106 8 157
12 235 19 90 9 153 14 235 21 39 3 90 8 115 11 25 2 72 7 105 9 33 2 85 7 115
10 78 8 163 16 325 30 39 3 90 8 115 10 42 5 86 9 205 20 112 10 169 16 175
20 8 5 3 251 -5 265 -3 5 -1 10 5 10 6 0 9 4 5 9 -3 6 -8 101 -11 212 -3 112
-7 206 -10 211 -5 8 -18 11 -25 4z"/>
</g>
</svg>
