<svg xmlns="http://www.w3.org/2000/svg" xmlns:xlink="http://www.w3.org/1999/xlink" width="912" height="354" viewBox="0 0 912 354">
  <defs>
    <clipPath id="clip-path">
      <rect id="Rectangle_65" data-name="Rectangle 65" width="53.682" height="34.761" fill="none"/>
    </clipPath>
  </defs>
  <g id="post_box" transform="translate(577.246 21.5)">
    <rect id="align_rect" width="258.998" height="200" fill="none"/>
    <path id="indoor" d="M153.627,147.313H69.619V98.025q0-1.03.05-2.06c.035-.687.085-1.373.153-2.056s.151-1.368.252-2.047.217-1.358.351-2.031.285-1.346.452-2.011.351-1.331.551-1.988.415-1.309.646-1.957.479-1.288.743-1.924.541-1.263.834-1.884.6-1.236.927-1.843.663-1.2,1.017-1.792.722-1.172,1.1-1.742.778-1.135,1.186-1.686.832-1.094,1.269-1.625.885-1.051,1.346-1.562.935-1.007,1.422-1.494.984-.958,1.492-1.42,1.03-.912,1.562-1.348,1.073-.857,1.626-1.269,1.114-.805,1.686-1.187S89.44,62.35,90.03,62s1.187-.693,1.794-1.017,1.22-.632,1.841-.927,1.248-.572,1.885-.836,1.276-.51,1.922-.741,1.3-.448,1.957-.646,1.321-.384,1.988-.551,1.337-.318,2.012-.452,1.35-.252,2.031-.353,1.362-.184,2.047-.252,1.37-.116,2.056-.151,1.373-.05,2.06-.05,1.374.017,2.061.05,1.372.085,2.056.151,1.366.151,2.047.252,1.356.219,2.031.353,1.344.285,2.012.452,1.329.351,1.986.551,1.311.415,1.957.646,1.288.479,1.924.741,1.262.543,1.885.836,1.234.6,1.841.927,1.2.663,1.794,1.017,1.17.722,1.742,1.1,1.133.778,1.686,1.187,1.092.834,1.624,1.269,1.053.887,1.562,1.348,1.007.935,1.494,1.42.96.985,1.422,1.494.91,1.03,1.346,1.562.859,1.072,1.269,1.625.8,1.114,1.186,1.686.749,1.152,1.1,1.742.693,1.187,1.017,1.792.634,1.22.927,1.843.572,1.249.836,1.884.51,1.276.741,1.924.448,1.3.648,1.957.382,1.321.549,1.988.318,1.336.452,2.011.252,1.35.353,2.031.184,1.362.252,2.047.118,1.37.151,2.056.05,1.373.05,2.06Z" transform="translate(-2.092 -1.684)" fill="#c6c3bd"/>
    <rect id="rect" width="28.528" height="54.371" transform="translate(151.535 145.629)" fill="#19191b"/>
    <path id="post" d="M36,32.625A3.375,3.375,0,0,1,32.625,36H3.375A3.375,3.375,0,0,1,0,32.625V14.113a3.375,3.375,0,0,1,1.293-2.656c1.752-1.373,3.2-2.487,11.545-8.544C14.021,2.051,16.369-.024,18,0c1.631-.025,3.979,2.051,5.162,2.913,8.345,6.057,9.795,7.172,11.545,8.544A3.375,3.375,0,0,1,36,14.113ZM31.383,18.8a.562.562,0,0,0-.8-.134c-1.606,1.186-3.9,2.862-7.424,5.42C21.979,24.949,19.631,27.024,18,27c-1.632.024-3.977-2.049-5.162-2.913-3.524-2.557-5.817-4.233-7.424-5.42a.562.562,0,0,0-.8.134l-.638.928a.562.562,0,0,0,.129.771c1.609,1.188,3.9,2.861,7.4,5.4,1.426,1.039,3.974,3.362,6.487,3.345,2.512.017,5.06-2.3,6.487-3.345,3.505-2.544,5.8-4.217,7.4-5.4a.562.562,0,0,0,.129-.771l-.638-.928Z" transform="translate(-577.246 296.5)" opacity="0"/>
    <path id="box" d="M219.514,56.021H112.924q1.033,0,2.062.05t2.056.151q1.024.1,2.047.252t2.031.353q1.01.2,2.013.452t1.986.551c.658.2,1.311.415,1.956.646s1.288.479,1.924.741,1.263.543,1.886.836,1.235.6,1.841.927,1.2.663,1.794,1.017,1.17.722,1.742,1.1,1.133.778,1.686,1.187,1.092.833,1.624,1.268,1.053.887,1.562,1.348,1.007.935,1.495,1.42.958.985,1.42,1.494.911,1.03,1.346,1.562.859,1.073,1.269,1.626.805,1.114,1.187,1.686.749,1.152,1.1,1.742.694,1.187,1.017,1.792.633,1.22.926,1.843.572,1.249.836,1.883.51,1.276.742,1.924.447,1.3.648,1.957.381,1.321.548,1.988.318,1.337.452,2.012.252,1.35.353,2.031.184,1.362.252,2.047.119,1.37.151,2.056.05,1.373.05,2.06v49.288H261.518V98.026q0-1.03-.05-2.06c-.034-.687-.084-1.373-.152-2.056s-.151-1.368-.252-2.047-.217-1.358-.351-2.031-.285-1.346-.452-2.012-.351-1.331-.551-1.988-.415-1.309-.646-1.957-.479-1.288-.743-1.924-.541-1.262-.834-1.883-.6-1.236-.927-1.843-.663-1.2-1.017-1.792-.722-1.172-1.1-1.742-.778-1.135-1.187-1.686-.832-1.094-1.267-1.626-.887-1.051-1.348-1.562-.935-1.007-1.422-1.494-.984-.958-1.492-1.42-1.03-.912-1.562-1.348-1.073-.857-1.625-1.268-1.113-.805-1.686-1.187-1.152-.749-1.742-1.1-1.187-.693-1.794-1.017-1.22-.632-1.841-.927-1.249-.572-1.886-.836-1.276-.51-1.922-.741-1.3-.448-1.957-.646-1.321-.384-1.988-.551-1.337-.318-2.011-.452-1.35-.252-2.031-.353-1.362-.184-2.047-.252-1.37-.116-2.056-.151-1.373-.05-2.06-.05" transform="translate(-3.393 -1.684)" fill="#ff9b30"/>
    <g id="post_flag" transform="translate(313.254 -105.254) rotate(90)">
      <path id="Path_804" data-name="Path 804" d="M218.365,94.121h0V31.893a3.464,3.464,0,0,0-.064-.663,3.511,3.511,0,0,0-.194-.638,3.423,3.423,0,0,0-.314-.588,3.466,3.466,0,0,0-.423-.514,3.386,3.386,0,0,0-.516-.423,3.285,3.285,0,0,0-.588-.314,3.421,3.421,0,0,0-1.962-.194,3.508,3.508,0,0,0-.638.194,3.424,3.424,0,0,0-.588.314,3.467,3.467,0,0,0-.514.423,3.345,3.345,0,0,0-.423.514,3.421,3.421,0,0,0-.314.588,3.51,3.51,0,0,0-.194.638,3.465,3.465,0,0,0-.064.663V94.121h0a10.233,10.233,0,0,0-1.034.064q-.515.058-1.022.165t-1,.264a10.739,10.739,0,0,0-2.788,1.35c-.285.194-.561.4-.826.625s-.52.454-.762.7-.473.5-.691.772-.422.547-.612.834-.367.586-.528.892a10.3,10.3,0,0,0-.44.937c-.13.32-.246.646-.345.976s-.182.667-.25,1-.116.681-.149,1.026a10.622,10.622,0,0,0,0,2.068q.049.515.149,1.024t.25,1c.1.332.215.658.345.978s.277.632.44.937a10.232,10.232,0,0,0,.528.89c.19.289.395.566.612.836s.448.526.691.772.5.479.762.7.541.429.826.623a9.8,9.8,0,0,0,.885.541q.454.247.931.452c.318.136.642.254.972.359s.663.192,1,.264a10.1,10.1,0,0,0,1.022.163c.343.039.689.06,1.034.066h6.8c.351,0,.7-.008,1.053-.039s.7-.078,1.044-.142a10.339,10.339,0,0,0,1.024-.244q.506-.148,1-.345a10.177,10.177,0,0,0,.958-.44q.466-.244.908-.533c.293-.194.578-.4.852-.621s.535-.456.786-.7.487-.506.712-.776.434-.551.631-.844.378-.592.545-.9.318-.627.454-.951.256-.656.359-.991.188-.677.258-1.022a10.354,10.354,0,0,0,.155-1.042c.035-.349.052-.7.052-1.051s-.017-.7-.052-1.053a10.521,10.521,0,0,0-.155-1.042q-.1-.517-.258-1.019a10.4,10.4,0,0,0-.359-.991c-.136-.324-.287-.642-.454-.951s-.349-.611-.545-.9-.407-.572-.631-.842a10.646,10.646,0,0,0-1.5-1.478c-.274-.221-.559-.429-.852-.621s-.6-.371-.908-.533-.63-.31-.958-.442-.658-.246-1-.343a10.344,10.344,0,0,0-1.024-.244,9.991,9.991,0,0,0-1.044-.142c-.351-.031-.7-.043-1.053-.039" transform="translate(-5.887 -0.856)" fill="#ffdf8e"/>
      <g id="Group_113" data-name="Group 113" transform="translate(205.316)">
        <g id="Group_112" data-name="Group 112" clip-path="url(#clip-path)">
          <path id="Path_805" data-name="Path 805" d="M215.452.332h46.495A3.317,3.317,0,0,1,262.61.4a3.357,3.357,0,0,1,.638.192,3.425,3.425,0,0,1,.588.314,3.465,3.465,0,0,1,.514.423,3.383,3.383,0,0,1,.423.516,3.29,3.29,0,0,1,.314.588,3.339,3.339,0,0,1,.258,1.3V31.046a3.465,3.465,0,0,1-.064.663,3.514,3.514,0,0,1-.194.638,3.428,3.428,0,0,1-.314.588,3.437,3.437,0,0,1-.937.937,3.425,3.425,0,0,1-.588.314,3.51,3.51,0,0,1-.638.194,3.463,3.463,0,0,1-.663.064H215.452a3.464,3.464,0,0,1-.663-.064,3.509,3.509,0,0,1-.638-.194,3.424,3.424,0,0,1-.588-.314,3.467,3.467,0,0,1-.514-.423,3.344,3.344,0,0,1-.423-.514,3.42,3.42,0,0,1-.314-.588,3.509,3.509,0,0,1-.194-.638,3.464,3.464,0,0,1-.064-.663V3.731a3.34,3.34,0,0,1,.258-1.3,3.417,3.417,0,0,1,.737-1.1A3.467,3.467,0,0,1,213.562.9,3.424,3.424,0,0,1,214.15.59,3.357,3.357,0,0,1,214.788.4a3.317,3.317,0,0,1,.663-.066" transform="translate(-211.688 -0.01)" fill="#ec90a7"/>
        </g>
      </g>
      <circle id="Ellipse_5" data-name="Ellipse 5" cx="125.5" cy="125.5" r="125.5" transform="translate(83.754 -21.5)" fill="none"/>
    </g>
    <g id="post_door">
      <path id="Path_846" data-name="Path 846" d="M153.627,147.313H69.619V98.025q0-1.03.05-2.06c.035-.687.085-1.373.153-2.056s.151-1.368.252-2.047.217-1.358.351-2.031.285-1.346.452-2.011.351-1.331.551-1.988.415-1.309.646-1.957.479-1.288.743-1.924.541-1.263.834-1.884.6-1.236.927-1.843.663-1.2,1.017-1.792.722-1.172,1.1-1.742.778-1.135,1.186-1.686.832-1.094,1.269-1.625.885-1.051,1.346-1.562.935-1.007,1.422-1.494.984-.958,1.492-1.42,1.03-.912,1.562-1.348,1.073-.857,1.626-1.269,1.114-.805,1.686-1.187S89.44,62.35,90.03,62s1.187-.693,1.794-1.017,1.22-.632,1.841-.927,1.248-.572,1.885-.836,1.276-.51,1.922-.741,1.3-.448,1.957-.646,1.321-.384,1.988-.551,1.337-.318,2.012-.452,1.35-.252,2.031-.353,1.362-.184,2.047-.252,1.37-.116,2.056-.151,1.373-.05,2.06-.05,1.374.017,2.061.05,1.372.085,2.056.151,1.366.151,2.047.252,1.356.219,2.031.353,1.344.285,2.012.452,1.329.351,1.986.551,1.311.415,1.957.646,1.288.479,1.924.741,1.262.543,1.885.836,1.234.6,1.841.927,1.2.663,1.794,1.017,1.17.722,1.742,1.1,1.133.778,1.686,1.187,1.092.834,1.624,1.269,1.053.887,1.562,1.348,1.007.935,1.494,1.42.96.985,1.422,1.494.91,1.03,1.346,1.562.859,1.072,1.269,1.625.8,1.114,1.186,1.686.749,1.152,1.1,1.742.693,1.187,1.017,1.792.634,1.22.927,1.843.572,1.249.836,1.884.51,1.276.741,1.924.448,1.3.648,1.957.382,1.321.549,1.988.318,1.336.452,2.011.252,1.35.353,2.031.184,1.362.252,2.047.118,1.37.151,2.056.05,1.373.05,2.06Z" transform="translate(-2.092 -1.684)" fill="#ffcd45"/>
      <rect id="Rectangle_77" data-name="Rectangle 77" width="40.79" height="14.385" transform="translate(89.137 90.563)" fill="#ff9b30"/>
    </g>
  </g>
</svg>
