<svg xmlns="http://www.w3.org/2000/svg" xmlns:xlink="http://www.w3.org/1999/xlink" width="258.998" height="200" viewBox="0 0 258.998 200">
  <defs>
    <clipPath id="clip-path">
      <rect id="Rectangle_67" data-name="Rectangle 67" width="258.998" height="200" fill="none"/>
    </clipPath>
  </defs>
  <g id="Group_114" data-name="Group 114" clip-path="url(#clip-path)">
    <path id="Path_806" data-name="Path 806" d="M17.619,58.416s29.761-3.384,30.7-2.107.1,6.233-.038,6.32S19.15,65.146,18.712,65.121s-1.26-6.905-1.093-6.705m2.613,14.671c.128-.159,28.488-4.407,28.527-4.049s.26,8.394.188,8.4S22.073,80,21.676,79.682s-2.034-6.022-1.443-6.595" transform="translate(-0.529 -1.683)" fill="#ffcd45"/>
    <path id="Path_807" data-name="Path 807" d="M.4,22.87c0-3.91,2.388-5.343,5.224-5.343,2.9,0,4.986,1.911,4.986,5.343,0,2.836-1.523,5.523-4.955,5.523C2.583,28.393.4,26.781.4,22.87m6.568.12c0-1.016-.418-1.971-1.4-1.971-1.164,0-1.552.9-1.552,1.971,0,1.194.717,1.671,1.433,1.671A1.47,1.47,0,0,0,6.972,22.99m9.016-6.09c.239-.06,3.463.149,3.433.507C19.39,17.795,9,38.812,8.434,38.96a9.933,9.933,0,0,1-3.642-.566c-.059-.06,10.957-21.434,11.2-21.494m-1.7,15.971c0-4.03,2.448-5.493,5.344-5.493,2.955,0,5.075,1.97,5.075,5.493,0,2.925-1.553,5.672-5.046,5.672-3.164,0-5.374-1.642-5.374-5.672m6.9.119c0-1.1-.507-2.149-1.612-2.149-1.313,0-1.792.985-1.792,2.149a1.643,1.643,0,0,0,1.642,1.851,1.669,1.669,0,0,0,1.761-1.851" transform="translate(-0.012 -0.508)" fill="#51d6d4"/>
    <path id="Path_808" data-name="Path 808" d="M.4,22.87c0-3.91,2.388-5.343,5.224-5.343,2.9,0,4.986,1.911,4.986,5.343,0,2.836-1.523,5.523-4.955,5.523C2.583,28.393.4,26.781.4,22.87Zm6.568.12c0-1.016-.418-1.971-1.4-1.971-1.164,0-1.552.9-1.552,1.971,0,1.194.717,1.671,1.433,1.671A1.47,1.47,0,0,0,6.972,22.99Zm9.016-6.09c.239-.06,3.463.149,3.433.507C19.39,17.795,9,38.812,8.434,38.96a9.933,9.933,0,0,1-3.642-.566C4.733,38.334,15.749,16.96,15.987,16.9Zm-1.7,15.971c0-4.03,2.448-5.493,5.344-5.493,2.955,0,5.075,1.97,5.075,5.493,0,2.925-1.553,5.672-5.046,5.672C16.495,38.543,14.285,36.9,14.285,32.871Zm6.9.119c0-1.1-.507-2.149-1.612-2.149-1.313,0-1.792.985-1.792,2.149a1.643,1.643,0,0,0,1.642,1.851A1.669,1.669,0,0,0,21.181,32.99Z" transform="translate(-0.012 -0.508)" fill="none" stroke="#000" stroke-width="0.808"/>
    <path id="Path_809" data-name="Path 809" d="M46.4,17.8c.053-.342,23.193-5.439,23.491-5.1a21.276,21.276,0,0,1,1.138,5.441c-.216.259-15.093,4.132-15.225,4.228S68.165,31.2,68.394,31.237s-2.543,5.042-2.817,5.292S46.7,23.341,46.187,23.26s.158-5.122.211-5.465" transform="translate(-1.382 -0.381)" fill="#ec90a7"/>
  </g>
</svg>
