<svg xmlns="http://www.w3.org/2000/svg" xmlns:xlink="http://www.w3.org/1999/xlink" width="162.901" height="300" viewBox="0 0 162.901 300">
  <defs>
    <clipPath id="clip-path">
      <rect id="Rectangle_46" data-name="Rectangle 46" width="25.952" height="10.581"/>
    </clipPath>
    <clipPath id="clip-path-2">
      <rect id="Rectangle_47" data-name="Rectangle 47" width="26.601" height="11.229"/>
    </clipPath>
    <clipPath id="clip-path-3">
      <rect id="Rectangle_48" data-name="Rectangle 48" width="77.159" height="82.449"/>
    </clipPath>
    <clipPath id="clip-path-4">
      <rect id="Rectangle_49" data-name="Rectangle 49" width="77.807" height="83.098"/>
    </clipPath>
  </defs>
  <g id="image_right" transform="translate(-669.4 -154.8)">
    <g id="Group_95" data-name="Group 95" transform="translate(669.4 154.8)">
      <g id="Group_81" data-name="Group 81" transform="translate(105.706 289.419)">
        <g id="Group_80" data-name="Group 80" clip-path="url(#clip-path)">
          <path id="Path_720" data-name="Path 720" d="M732.386,740.44a4.9,4.9,0,0,0,4.891,4.891h15.571c5.24-.25,4.841-4.292,4.841-4.292,0-2.7-1.8-3.693-4.442-3.893-4.591-.349-15.971-1.547-15.971-1.547a4.825,4.825,0,0,0-4.891,4.841" transform="translate(-731.937 -735.15)" fill="#ff9b30"/>
        </g>
      </g>
      <g id="Group_83" data-name="Group 83" transform="translate(105.706 288.721)">
        <g id="Group_82" data-name="Group 82" transform="translate(0)" clip-path="url(#clip-path-2)">
          <path id="Path_721" data-name="Path 721" d="M731.849,739.94h.4a4.41,4.41,0,0,0,1.3,3.144,4.5,4.5,0,0,0,3.144,1.3h15.571v0a4.64,4.64,0,0,0,3.843-1.7,3.335,3.335,0,0,0,.649-2v-.2a3.048,3.048,0,0,0-1.048-2.545,5.458,5.458,0,0,0-2.995-.948c-4.641-.349-15.971-1.547-15.971-1.547l.05-.4v.4a4.43,4.43,0,0,0-4.442,4.442H731.5a5.261,5.261,0,0,1,5.29-5.29h.05s.7.1,1.847.2c3.394.349,10.63,1.1,14.074,1.347a6.016,6.016,0,0,1,3.444,1.1,3.8,3.8,0,0,1,1.4,3.194h-.4l.4-.05v.2a4.491,4.491,0,0,1-.8,2.5,5.584,5.584,0,0,1-4.442,2.046H736.79a5.293,5.293,0,0,1-5.29-5.29h.349" transform="translate(-731.4 -733.951)"/>
        </g>
      </g>
      <path id="Path_722" data-name="Path 722" d="M965.452,639.635a4.809,4.809,0,0,0-2,6.588l7.287,13.725c2.695,4.492,6.089,2.3,6.089,2.3,2.4-1.248,2.4-3.294,1.348-5.789-1.847-4.242-6.089-14.823-6.089-14.823a4.967,4.967,0,0,0-6.638-2" transform="translate(-962.407 -397.38)" fill="#ff9b30"/>
      <path id="Path_723" data-name="Path 723" d="M965.244,639.3l.2.349a4.456,4.456,0,0,0-2.346,3.943,4.613,4.613,0,0,0,.5,2.1l7.287,13.725-.349.2.349-.2a6.425,6.425,0,0,0,1.946,2.146,3.241,3.241,0,0,0,1.747.5,3.339,3.339,0,0,0,1.3-.25,1.192,1.192,0,0,0,.349-.15l.1-.05h0l.05.1-.05-.1.05.1-.05-.1h.05a3.76,3.76,0,0,0,1.4-1.2,2.6,2.6,0,0,0,.4-1.5,6.829,6.829,0,0,0-.649-2.545c-1.847-4.242-6.139-14.823-6.139-14.823l.4-.15-.349.2a4.456,4.456,0,0,0-3.943-2.346,4.614,4.614,0,0,0-2.1.5l-.4-.749a5.563,5.563,0,0,1,2.5-.6,5.279,5.279,0,0,1,4.691,2.795v.05s.25.649.7,1.7c1.3,3.144,4.042,9.882,5.39,13.076a7.024,7.024,0,0,1,.7,2.895,3.391,3.391,0,0,1-.549,1.946,4.546,4.546,0,0,1-1.7,1.5l-.2-.349.25.349a4.837,4.837,0,0,1-2.246.6,4.055,4.055,0,0,1-2.2-.649,7,7,0,0,1-2.246-2.4h0L962.8,646.186a5.563,5.563,0,0,1-.6-2.5A5.279,5.279,0,0,1,964.995,639l.25.3" transform="translate(-962.2 -397.043)"/>
      <path id="Path_724" data-name="Path 724" d="M903.776,551.469s-9.133,21.96-16.619,25.1c-12.427,5.29-27.7,10.082-56.8,20.213,0,0-9.333-8.285-6.538-10.431,4.691-3.593,34.187-21.461,50.707-23.507,0,0,1.6-15.971,4.991-28.348l24.255,16.969" transform="translate(-817.683 -344.997)" fill="#fff"/>
      <path id="Path_725" data-name="Path 725" d="M902.914,551.085l.4.15s-2.3,5.49-5.54,11.429a66.878,66.878,0,0,1-5.39,8.534c-1.946,2.545-3.893,4.542-5.889,5.39-12.427,5.34-27.749,10.082-56.8,20.213a.388.388,0,0,1-.4-.1s-1.8-1.6-3.543-3.543a22.9,22.9,0,0,1-2.446-3.094,5.646,5.646,0,0,1-1.148-2.945,1.706,1.706,0,0,1,.7-1.447c1.2-.9,3.943-2.7,7.636-4.941A226.71,226.71,0,0,1,851.608,569.5c7.885-3.643,15.921-6.638,22.209-7.386l.05.4-.4-.05s1.6-15.971,4.991-28.4a.511.511,0,0,1,.25-.3.391.391,0,0,1,.4.05l24.206,16.969a.452.452,0,0,1,.15.5l-.549-.2-.25.349-24.206-16.969.25-.349.4.1a161.859,161.859,0,0,0-3.743,18.766c-.4,2.745-.7,5.141-.948,6.838-.1.848-.2,1.5-.25,1.946s-.05.7-.05.7a.341.341,0,0,1-.349.349c-8.135,1-19.664,5.939-29.646,11.13-4.991,2.6-9.632,5.19-13.326,7.436a85.5,85.5,0,0,0-7.536,4.891.875.875,0,0,0-.349.8,5.234,5.234,0,0,0,1.048,2.5,34.037,34.037,0,0,0,3.643,4.392l1.547,1.547.449.449.15.15-.3.3-.15-.4c29.1-10.082,44.369-14.873,56.746-20.163,1.747-.749,3.693-2.645,5.59-5.141a82.312,82.312,0,0,0,7.536-12.677c1-2,1.8-3.793,2.4-5.041.3-.649.5-1.148.649-1.5s.25-.549.25-.549l.449.15-.25.349.25-.349" transform="translate(-816.822 -344.614)"/>
      <path id="Path_726" data-name="Path 726" d="M761.5,534.2l32.49,4.392s8.085,13.026,16.42,23.956a18.62,18.62,0,0,1,3.643,9.682c.749,9.483,3.144,41.274,3.144,63.184h-9.582c-5.59-17.568-11.03-38.18-9.582-60.589,0,0-17.318-9.532-32.54-19.514-3.993-2.6-5.789-5.54-5.789-14.024a20.983,20.983,0,0,1,1.8-7.087" transform="translate(-699.361 -344.847)" fill="#fff"/>
      <path id="Path_727" data-name="Path 727" d="M761.146,533.8l.05-.4,32.49,4.392a.41.41,0,0,1,.3.2,4.3,4.3,0,0,1,.349.6c1.647,2.645,8.784,13.825,16.021,23.357a19.009,19.009,0,0,1,3.743,9.882c.749,9.532,3.144,41.274,3.144,63.184a.707.707,0,0,1-.1.3.366.366,0,0,1-.3.1h-9.582a.38.38,0,0,1-.4-.3c-4.991-15.571-9.832-33.589-9.832-53.153,0-2.5.1-5.041.25-7.586l.4.05-.2.349s-17.318-9.532-32.59-19.514a11.555,11.555,0,0,1-4.542-4.991c-1-2.2-1.447-5.141-1.447-9.383a16.647,16.647,0,0,1,.9-4.791,25.418,25.418,0,0,1,.9-2.4.468.468,0,0,1,.449-.25v.349l.4.15a.617.617,0,0,0-.1.15,20.177,20.177,0,0,0-1.7,6.688c0,4.242.449,7.037,1.4,9.083a10.545,10.545,0,0,0,4.242,4.641c7.586,4.991,15.721,9.882,21.96,13.475,3.094,1.8,5.74,3.344,7.586,4.392.948.5,1.647.948,2.146,1.2l.749.449a.367.367,0,0,1,.2.4c-.15,2.545-.25,5.041-.25,7.536,0,19.414,4.841,37.332,9.782,52.9l-.4.1v-.4h9.582v.4h-.4c0-21.86-2.4-53.652-3.144-63.134a18.384,18.384,0,0,0-3.543-9.433c-8.335-10.93-16.42-23.956-16.42-24.006l.349-.2-.05.4-32.49-4.392.1-.4.4.15-.4-.15" transform="translate(-699.01 -344.446)"/>
      <path id="Path_728" data-name="Path 728" d="M744.063,315.387c-2.945-1.048-4.841-2.246-6.388-2.545-1.9-.4-3.344,1.348-3.643,2.2-.4,1.1-1.248,3.743-1.6,4.841-.25.7.05,1.946,1.647,2.645l-1.248,3.693a1.712,1.712,0,0,0,1.048,2.146l4.142,1.4a1.637,1.637,0,0,0,2.1-1.048l1.248-3.693a1.843,1.843,0,0,0,2.446-.8l1.547-4.492c.3-.948.6-3.643-1.3-4.342" transform="translate(-614.102 -233.936)" fill="#fff"/>
      <path id="Path_729" data-name="Path 729" d="M743.628,315.045l-.15.4c-2.995-1.1-4.891-2.246-6.338-2.545a1.38,1.38,0,0,0-.449-.05,2.542,2.542,0,0,0-1.747.749,3.154,3.154,0,0,0-.948,1.248h0c-.4,1.048-1.2,3.693-1.6,4.841a.741.741,0,0,0-.05.349c0,.5.3,1.248,1.447,1.747a.438.438,0,0,1,.25.5l-1.248,3.693a1.1,1.1,0,0,0-.05.4,1.293,1.293,0,0,0,.848,1.2l4.142,1.4a1.1,1.1,0,0,0,.4.05,1.293,1.293,0,0,0,1.2-.848l1.248-3.693a.5.5,0,0,1,.2-.25.422.422,0,0,1,.349,0,1.958,1.958,0,0,0,.7.15,1.193,1.193,0,0,0,1.2-.7h0l1.547-4.492h0a4.372,4.372,0,0,0,.2-1.4,3.58,3.58,0,0,0-.3-1.447,1.629,1.629,0,0,0-1-.9l.15-.4.15-.4a2.423,2.423,0,0,1,1.447,1.348,4.6,4.6,0,0,1,.349,1.8,4.556,4.556,0,0,1-.25,1.647h0l-1.547,4.492h0a2.021,2.021,0,0,1-2,1.248,2.379,2.379,0,0,1-1-.2l.15-.4.4.15-1.248,3.693a2.081,2.081,0,0,1-2,1.447,2.918,2.918,0,0,1-.649-.1l-4.142-1.4a2.081,2.081,0,0,1-1.447-2,2.923,2.923,0,0,1,.1-.649l1.248-3.693.4.15-.15.4a2.84,2.84,0,0,1-1.946-2.5,2.144,2.144,0,0,1,.1-.6c.349-1.1,1.2-3.743,1.6-4.841h0a4.572,4.572,0,0,1,1.148-1.6,3.679,3.679,0,0,1,2.3-.948,3.069,3.069,0,0,1,.649.05c1.7.349,3.543,1.547,6.438,2.6l-.1.3" transform="translate(-613.666 -233.594)"/>
      <path id="Path_730" data-name="Path 730" d="M728.864,319.556a1.52,1.52,0,1,0,2.795,1.2l1.6-3.693a1.52,1.52,0,1,0-2.795-1.2l-1.6,3.693" transform="translate(-600.1 -235.011)" fill="#fff"/>
      <path id="Path_731" data-name="Path 731" d="M728.4,319.191l.4.15a1.458,1.458,0,0,0-.1.449,1.042,1.042,0,0,0,.649,1,1.457,1.457,0,0,0,.449.1,1.042,1.042,0,0,0,1-.649l1.6-3.693a1.458,1.458,0,0,0,.1-.449,1.164,1.164,0,0,0-.649-1.048,1.456,1.456,0,0,0-.449-.1,1.042,1.042,0,0,0-1,.649l-1.6,3.693-.4-.1-.4-.15,1.6-3.693a1.9,1.9,0,0,1,1.8-1.148,2.261,2.261,0,0,1,.8.15,1.9,1.9,0,0,1,1.148,1.8,2.481,2.481,0,0,1-.15.8l-1.6,3.693a1.9,1.9,0,0,1-1.8,1.148,2,2,0,0,1-.749-.15,1.9,1.9,0,0,1-1.148-1.8,2.484,2.484,0,0,1,.15-.8l.349.15" transform="translate(-599.635 -234.646)"/>
      <path id="Path_732" data-name="Path 732" d="M734.464,317.056a1.52,1.52,0,0,0,2.795,1.2l1.6-3.693a1.5,1.5,0,0,0-.8-2,1.481,1.481,0,0,0-2,.8l-1.6,3.693" transform="translate(-608.495 -233.759)" fill="#fff"/>
      <path id="Path_733" data-name="Path 733" d="M734.049,316.641l.4.15a1.458,1.458,0,0,0-.1.449,1.042,1.042,0,0,0,.649,1,1.458,1.458,0,0,0,.449.1,1.042,1.042,0,0,0,1-.649l1.6-3.693a1.457,1.457,0,0,0,.1-.449,1.042,1.042,0,0,0-.649-1,1.458,1.458,0,0,0-.449-.1,1.042,1.042,0,0,0-1,.649l-1.6,3.693-.749-.349,1.6-3.693a1.9,1.9,0,0,1,1.8-1.148,2,2,0,0,1,.749.15,1.9,1.9,0,0,1,1.148,1.8,2,2,0,0,1-.15.749l-1.6,3.693a1.9,1.9,0,0,1-1.8,1.148,2.483,2.483,0,0,1-.8-.15,1.9,1.9,0,0,1-1.148-1.8,2,2,0,0,1,.15-.749l.4.2" transform="translate(-608.08 -233.343)"/>
      <path id="Path_734" data-name="Path 734" d="M740.064,314.656a1.466,1.466,0,0,0,.8,2,1.5,1.5,0,0,0,2-.8l1.6-3.693a1.481,1.481,0,0,0-.8-2,1.5,1.5,0,0,0-2,.8l-1.6,3.693" transform="translate(-616.89 -232.557)" fill="#fff"/>
      <path id="Path_735" data-name="Path 735" d="M739.8,314.191l.4.15a1.458,1.458,0,0,0-.1.449,1.042,1.042,0,0,0,.649,1,1.458,1.458,0,0,0,.449.1,1.042,1.042,0,0,0,1-.649l1.6-3.693a1.455,1.455,0,0,0,.1-.449,1.164,1.164,0,0,0-.649-1.048,1.458,1.458,0,0,0-.449-.1,1.164,1.164,0,0,0-1.048.649l-1.6,3.693-.749-.349,1.6-3.693a1.9,1.9,0,0,1,1.8-1.148,2,2,0,0,1,.749.15,1.9,1.9,0,0,1,1.148,1.8,2,2,0,0,1-.15.749l-1.6,3.693a1.9,1.9,0,0,1-1.8,1.148,2.261,2.261,0,0,1-.8-.15,1.9,1.9,0,0,1-1.148-1.8,2,2,0,0,1,.15-.749l.449.25" transform="translate(-616.624 -232.091)"/>
      <path id="Path_736" data-name="Path 736" d="M745.764,312.156a1.5,1.5,0,0,0,.8,2,1.466,1.466,0,0,0,2-.8l1.6-3.693a1.5,1.5,0,0,0-.8-2,1.466,1.466,0,0,0-2,.8l-1.6,3.693" transform="translate(-625.435 -231.304)" fill="#fff"/>
      <path id="Path_737" data-name="Path 737" d="M745.349,311.791l.4.15a1.458,1.458,0,0,0-.1.449,1.042,1.042,0,0,0,.649,1,1.456,1.456,0,0,0,.449.1,1.164,1.164,0,0,0,1.048-.649l1.6-3.693a1.457,1.457,0,0,0,.1-.449,1.042,1.042,0,0,0-.649-1,1.457,1.457,0,0,0-.449-.1,1.042,1.042,0,0,0-1,.649l-1.6,3.693-.449-.15-.4-.15,1.6-3.693a1.9,1.9,0,0,1,1.8-1.148,2.26,2.26,0,0,1,.8.15,1.9,1.9,0,0,1,1.148,1.8,2.261,2.261,0,0,1-.15.8l-1.6,3.693a1.9,1.9,0,0,1-1.8,1.148,2.484,2.484,0,0,1-.8-.15,1.9,1.9,0,0,1-1.148-1.8,2.481,2.481,0,0,1,.15-.8l.4.15" transform="translate(-625.019 -230.939)"/>
      <path id="Path_738" data-name="Path 738" d="M750.642,317.944a1.522,1.522,0,0,0-.05-3.044l-2.7.1a1.522,1.522,0,0,0,.05,3.044l2.7-.1" transform="translate(-627.668 -234.996)" fill="#fff"/>
      <path id="Path_739" data-name="Path 739" d="M750.391,317.494v-.4a1.108,1.108,0,0,0,1.1-1.1h0a1.108,1.108,0,0,0-1.1-1.1h0v0h0v0h-.05l-2.7.1h0a1.108,1.108,0,0,0-1.1,1.1v.05h0a1.108,1.108,0,0,0,1.1,1.1h.05v0l2.7-.1h0v.749l-2.7.1h-.05a1.973,1.973,0,0,1-1.947-1.9v-.05a1.972,1.972,0,0,1,1.9-1.947h0l2.7-.1v.4l-.05-.4h.05a1.972,1.972,0,0,1,1.946,1.9h0v.05a1.972,1.972,0,0,1-1.9,1.946l.05-.4v0" transform="translate(-627.417 -234.546)"/>
      <path id="Path_740" data-name="Path 740" d="M920.417,315.193c3.194-.6,5.29-1.5,6.987-1.6,2-.1,3.194,1.9,3.394,2.845.25,1.2.649,4.043.848,5.19.15.8-.349,2-2.1,2.445l.7,3.993a1.713,1.713,0,0,1-1.4,2l-4.492.749a1.75,1.75,0,0,1-2-1.4l-.7-3.993a1.917,1.917,0,0,1-2.4-1.2l-.848-4.841c-.2-1-.1-3.843,2-4.192" transform="translate(-893.017 -234.342)" fill="#fff"/>
      <path id="Path_741" data-name="Path 741" d="M920.1,314.8l-.1-.4c3.144-.6,5.24-1.5,7.037-1.6h.15a3.442,3.442,0,0,1,2.545,1.2,4.879,4.879,0,0,1,1.1,1.946c.25,1.2.649,4.043.849,5.24,0,.1.05.2.05.3a2.323,2.323,0,0,1-.549,1.5,3.873,3.873,0,0,1-1.847,1.1l-.1-.4.4-.05.7,3.993c0,.1.05.25.05.349a2.1,2.1,0,0,1-1.8,2.1l-4.492.749c-.1,0-.249.05-.349.05a2.19,2.19,0,0,1-2.146-1.8l-.7-3.993.4-.05.1.4a2.921,2.921,0,0,1-.649.1,2.452,2.452,0,0,1-1.5-.5,1.943,1.943,0,0,1-.749-1.148h0l-.849-4.841h0a3.558,3.558,0,0,1-.05-.8,5.457,5.457,0,0,1,.449-2.246A2.739,2.739,0,0,1,920,314.347l.15.8a1.928,1.928,0,0,0-1.4,1.148,5.283,5.283,0,0,0-.349,1.9,2.441,2.441,0,0,0,.05.649h0l.848,4.841h0a1.015,1.015,0,0,0,.449.6,1.584,1.584,0,0,0,1,.3,1.383,1.383,0,0,0,.449-.05.306.306,0,0,1,.3.05.458.458,0,0,1,.2.3l.649,3.993a1.331,1.331,0,0,0,1.3,1.1h.25l4.492-.749a1.293,1.293,0,0,0,1.1-1.3v-.2l-.7-3.993a.389.389,0,0,1,.3-.449,2.781,2.781,0,0,0,1.4-.8,1.7,1.7,0,0,0,.4-.948v-.2c-.2-1.2-.6-4.043-.849-5.191a3.391,3.391,0,0,0-.9-1.547,2.618,2.618,0,0,0-1.946-.948h-.15c-1.547.1-3.693,1-6.887,1.6l-.05-.449" transform="translate(-892.696 -233.945)"/>
      <path id="Path_742" data-name="Path 742" d="M943.6,318.246a1.6,1.6,0,0,1-3.094.8L939.456,315a1.6,1.6,0,0,1,3.094-.8l1.048,4.043" transform="translate(-915.5 -234.051)" fill="#fff"/>
      <path id="Path_743" data-name="Path 743" d="M943.192,317.84l.4-.1a1.7,1.7,0,0,1,.05.5,2.022,2.022,0,0,1-1.5,1.946,1.694,1.694,0,0,1-.5.05,2.022,2.022,0,0,1-1.947-1.5L938.65,314.7a1.7,1.7,0,0,1-.05-.5,2.022,2.022,0,0,1,1.5-1.946,1.7,1.7,0,0,1,.5-.05,2.022,2.022,0,0,1,1.946,1.5l1.048,4.043-.4.1-.4.1-1.048-4.043a1.171,1.171,0,0,0-1.148-.9.633.633,0,0,0-.3.05,1.128,1.128,0,0,0-.848,1.148.633.633,0,0,0,.05.3l1.048,4.043a1.171,1.171,0,0,0,1.148.9.633.633,0,0,0,.3-.05,1.171,1.171,0,0,0,.9-1.148.633.633,0,0,0-.05-.3l.349-.1" transform="translate(-915.093 -233.644)"/>
      <path id="Path_744" data-name="Path 744" d="M937.4,316.646a1.6,1.6,0,1,1-3.094.8l-1.048-4.043a1.6,1.6,0,1,1,3.094-.8l1.048,4.043" transform="translate(-906.205 -233.249)" fill="#fff"/>
      <path id="Path_745" data-name="Path 745" d="M936.991,316.24l.4-.1a1.7,1.7,0,0,1,.05.5,2.022,2.022,0,0,1-1.5,1.946h0a1.7,1.7,0,0,1-.5.05,2.022,2.022,0,0,1-1.946-1.5L932.45,313.1a1.7,1.7,0,0,1-.05-.5,2.022,2.022,0,0,1,1.5-1.946,1.7,1.7,0,0,1,.5-.05,2.022,2.022,0,0,1,1.946,1.5l1.048,4.043-.4.1-.4.1-1.048-4.043a1.171,1.171,0,0,0-1.148-.9.632.632,0,0,0-.3.05,1.171,1.171,0,0,0-.9,1.148.634.634,0,0,0,.05.3l1.048,4.043a1.171,1.171,0,0,0,1.148.9.632.632,0,0,0,.3-.05h0a1.171,1.171,0,0,0,.9-1.148.633.633,0,0,0-.05-.3l.4-.1" transform="translate(-905.799 -232.843)"/>
      <path id="Path_746" data-name="Path 746" d="M931.3,314.946a1.6,1.6,0,1,1-3.094.8l-1.048-4.043a1.6,1.6,0,1,1,3.094-.8l1.048,4.043" transform="translate(-897.061 -232.398)" fill="#fff"/>
      <path id="Path_747" data-name="Path 747" d="M930.892,314.54l.4-.1a1.7,1.7,0,0,1,.05.5,2.022,2.022,0,0,1-1.5,1.946,1.694,1.694,0,0,1-.5.05,2.022,2.022,0,0,1-1.946-1.5L926.35,311.4a1.7,1.7,0,0,1-.05-.5,2.022,2.022,0,0,1,1.5-1.946,1.7,1.7,0,0,1,.5-.05,2.023,2.023,0,0,1,1.947,1.5l1.048,4.043-.4.1-.4.1-1.048-4.043a1.171,1.171,0,0,0-1.148-.9.633.633,0,0,0-.3.05,1.128,1.128,0,0,0-.848,1.148.633.633,0,0,0,.05.3l1.048,4.043a1.128,1.128,0,0,0,1.148.848.632.632,0,0,0,.3-.05,1.128,1.128,0,0,0,.849-1.148.632.632,0,0,0-.05-.3l.4-.05" transform="translate(-896.654 -231.991)"/>
      <path id="Path_748" data-name="Path 748" d="M925.1,313.346a1.636,1.636,0,0,1-1.148,1.946A1.6,1.6,0,0,1,922,314.145l-1.048-4.043a1.6,1.6,0,0,1,3.094-.8l1.048,4.043" transform="translate(-887.767 -231.596)" fill="#fff"/>
      <path id="Path_749" data-name="Path 749" d="M924.691,312.94l.4-.1a1.7,1.7,0,0,1,.05.5,2.022,2.022,0,0,1-1.5,1.946,1.7,1.7,0,0,1-.5.05,2.023,2.023,0,0,1-1.946-1.5L920.15,309.8a1.7,1.7,0,0,1-.05-.5,2.022,2.022,0,0,1,1.5-1.946,1.7,1.7,0,0,1,.5-.05,2.022,2.022,0,0,1,1.946,1.5l1.048,4.043-.4.1-.4.1L923.244,309a1.171,1.171,0,0,0-1.148-.9.632.632,0,0,0-.3.05,1.171,1.171,0,0,0-.9,1.148.632.632,0,0,0,.05.3L922,313.638a1.171,1.171,0,0,0,1.148.9.634.634,0,0,0,.3-.05,1.171,1.171,0,0,0,.9-1.148.633.633,0,0,0-.05-.3l.4-.1" transform="translate(-887.36 -231.19)"/>
      <path id="Path_750" data-name="Path 750" d="M919.174,318.921a1.6,1.6,0,0,1-1.3-1.847,1.622,1.622,0,0,1,1.847-1.3l2.745.5a1.6,1.6,0,0,1-.549,3.144l-2.745-.5" transform="translate(-884.887 -235.424)" fill="#fff"/>
      <path id="Path_751" data-name="Path 751" d="M918.947,318.543l-.1.4A1.98,1.98,0,0,1,917.2,317a.849.849,0,0,1,.05-.349A1.98,1.98,0,0,1,919.2,315a.849.849,0,0,1,.349.05l2.745.5-.1.4.05-.4a1.98,1.98,0,0,1,1.647,1.946.85.85,0,0,1-.05.349,1.98,1.98,0,0,1-1.946,1.647.85.85,0,0,1-.349-.05h0l-2.745-.5h0l.15-.8,2.745.5-.1.4.05-.4h.2a1.175,1.175,0,0,0,1.148-.948v-.2a1.175,1.175,0,0,0-.948-1.148h0l-2.745-.5h-.2a1.175,1.175,0,0,0-1.148.948v.2a1.175,1.175,0,0,0,.948,1.148h0l.05.4" transform="translate(-884.66 -235.047)"/>
      <path id="Path_752" data-name="Path 752" d="M798.294,378.719s29.5-8.934,32.74-44.019l9.882,4.691s-7.885,34.886-32.84,50.258c-1.6,1-.8,27.35,2.795,49.16l-38.33-4.392s7.287-34.587,2.795-44.369c-4.542-9.782-19.564-29.745-34.936-52.3l11.18-1.1s20.762,38.38,38.829,42.173h7.885" transform="translate(-713.449 -244.915)" fill="#ff9b30"/>
      <path id="Path_753" data-name="Path 753" d="M797.576,378.331l-.1-.4h.1a46.933,46.933,0,0,0,15.621-9.383c7.486-6.638,15.172-17.368,16.769-34.287a.337.337,0,0,1,.2-.3.546.546,0,0,1,.4,0l9.882,4.691a.478.478,0,0,1,.25.449,103.92,103.92,0,0,1-7.087,19.464c-5.091,10.68-13.375,23.307-25.952,31.093l-.05-.1.1.1h0l-.05-.1.1.1h0a1.8,1.8,0,0,0-.2.649,41.745,41.745,0,0,0-.4,6.987,288.99,288.99,0,0,0,3.543,41.125.475.475,0,0,1-.1.349.309.309,0,0,1-.349.1l-38.33-4.392c-.1,0-.2-.1-.3-.15a.41.41,0,0,1-.05-.349s.05-.3.2-.9c.8-4.043,4.043-21.011,4.043-33.089,0-4.292-.4-7.935-1.447-10.131-2.246-4.841-7.137-12.278-13.375-21.311s-13.825-19.664-21.511-30.943a.391.391,0,0,1-.05-.4c.05-.15.2-.2.349-.25l11.18-1.1c.15,0,.349.05.4.2a4.594,4.594,0,0,1,.25.449,187.446,187.446,0,0,0,13.775,21.061A93.975,93.975,0,0,0,777.264,370.7c4.192,3.743,8.534,6.438,12.677,7.337l-.1.4v-.4h7.836v.3l-.1-.4v.8h-7.935c-4.642-.948-9.383-4.142-13.875-8.285-13.525-12.477-25.2-34.087-25.254-34.087l.349-.2.05.4-11.18,1.1-.05-.4.349-.25c7.636,11.279,15.272,21.91,21.511,30.943s11.13,16.47,13.425,21.411c1.1,2.446,1.5,6.139,1.5,10.481,0,13.974-4.242,34.137-4.242,34.137l-.4-.1.05-.4,38.33,4.392-.05.4-.4.05a290.849,290.849,0,0,1-3.543-41.274c0-2.346.05-4.242.2-5.64a11.326,11.326,0,0,1,.25-1.7,1.789,1.789,0,0,1,.2-.549c.1-.15.15-.3.349-.4,12.377-7.636,20.562-20.113,25.653-30.744a112.3,112.3,0,0,0,5.44-13.625c.549-1.747.948-3.144,1.248-4.142a9.975,9.975,0,0,0,.3-1.148,3.665,3.665,0,0,1,.1-.4l.4.1-.2.4-9.882-4.691.2-.4.4.05c-1.647,17.668-9.932,28.8-17.767,35.485a46.709,46.709,0,0,1-15.322,8.934h-.1v-.25" transform="translate(-712.732 -244.526)" fill="none"/>
      <path id="Path_754" data-name="Path 754" d="M816.217,327.4c9.982,0,18.067,9.433,18.067,21.061,0,15.472-5.939,19.913-13.925,20.862v5.839l-4.043,9.483-4.192-9.533-.05-6.139c-7.985-2.146-13.974-10.531-13.974-20.512.05-11.629,8.135-21.061,18.117-21.061" transform="translate(-735.614 -241.258)" fill="#fff"/>
      <path id="Path_755" data-name="Path 755" d="M815.916,327v-.4a17.144,17.144,0,0,1,13.076,6.338,23.217,23.217,0,0,1,5.39,15.172c0,7.786-1.5,12.876-4.043,16.12-2.6,3.244-6.189,4.642-10.231,5.141l-.05-.4h.4v5.839l-.05.15-4.043,9.483a.4.4,0,0,1-.4.25.509.509,0,0,1-.4-.25l-4.192-9.533-.05-.15-.05-6.139h.4l-.1.4c-8.235-2.246-14.274-10.78-14.274-20.912a23.217,23.217,0,0,1,5.39-15.172,17.3,17.3,0,0,1,13.076-6.338v.848a16.437,16.437,0,0,0-12.477,6.039,22.48,22.48,0,0,0-5.19,14.623c0,9.832,5.889,18.017,13.675,20.113a.38.38,0,0,1,.3.4v6.039l3.743,8.584,3.643-8.534v-5.74a.386.386,0,0,1,.349-.4c3.943-.449,7.287-1.747,9.682-4.841,2.4-3.044,3.893-7.935,3.893-15.621a22.48,22.48,0,0,0-5.19-14.623,16.359,16.359,0,0,0-12.477-6.039V327" transform="translate(-735.313 -240.857)"/>
      <path id="Path_756" data-name="Path 756" d="M797.4,327.188c9.582-11.679,44.269-9.732,36.234,6.139-2.6,5.141-19.914-3.394-25.154,4.891a14.412,14.412,0,0,0-1.946,5.34,4.4,4.4,0,0,0-.848-.1,3.874,3.874,0,0,0-4.192,3.843,4.509,4.509,0,0,0,4.192,4.592c.25,0,.5-.05.749-.05.2,4.142.25,7.886-2.346,10.481,0,0-21.011-17.618-6.688-35.136" transform="translate(-733.317 -237.403)" fill="#ff9b30"/>
      <path id="Path_757" data-name="Path 757" d="M796.94,326.786l-.3-.25c2.1-2.6,5.34-4.442,9.083-5.739a38.017,38.017,0,0,1,11.928-1.9,26.9,26.9,0,0,1,11.828,2.346,11.2,11.2,0,0,1,3.843,2.995,6.756,6.756,0,0,1,1.447,4.292,10.458,10.458,0,0,1-1.248,4.642,3.174,3.174,0,0,1-2.046,1.6,9.9,9.9,0,0,1-3.094.4c-3.144,0-7.187-.7-10.88-.7a16.258,16.258,0,0,0-5.34.749,6.881,6.881,0,0,0-3.793,2.895,12.752,12.752,0,0,0-1.847,5.19c0,.1-.1.2-.15.3s-.2.1-.3.05a3.852,3.852,0,0,0-.749-.1,4.024,4.024,0,0,0-2.7.948,3.338,3.338,0,0,0-1.1,2.5,4.726,4.726,0,0,0,1.1,2.895,3.486,3.486,0,0,0,2.645,1.3,2.849,2.849,0,0,0,.649-.05.475.475,0,0,1,.349.1.431.431,0,0,1,.15.3c.05.948.1,1.9.1,2.845a15.248,15.248,0,0,1-.5,4.342,7.841,7.841,0,0,1-2.046,3.643.454.454,0,0,1-.549.05,41.926,41.926,0,0,1-5.889-6.488c-2.945-3.993-5.939-9.582-5.939-15.871a20.807,20.807,0,0,1,5.091-13.376l.649.549a19.879,19.879,0,0,0-4.941,12.826c0,5.989,2.895,11.429,5.789,15.372a42.884,42.884,0,0,0,3.993,4.641c.549.549,1,.948,1.3,1.248a2.252,2.252,0,0,1,.349.349.619.619,0,0,1,.15.1l-.25.3-.3-.3a7.332,7.332,0,0,0,1.847-3.244,15.37,15.37,0,0,0,.449-4.092c0-.9-.05-1.847-.1-2.795h.4l.1.4a4.362,4.362,0,0,1-.8.1,4.585,4.585,0,0,1-3.294-1.547,5.141,5.141,0,0,1-1.347-3.444,4.067,4.067,0,0,1,1.347-3.094,4.859,4.859,0,0,1,3.244-1.148,6.113,6.113,0,0,1,.948.1l-.1.4-.4-.05a14.335,14.335,0,0,1,2-5.49,7.977,7.977,0,0,1,4.242-3.244,17.135,17.135,0,0,1,5.64-.8c3.843,0,7.885.7,10.88.7a9.215,9.215,0,0,0,2.845-.349,2.58,2.58,0,0,0,1.547-1.2,9.521,9.521,0,0,0,1.148-4.242,5.784,5.784,0,0,0-1.3-3.743,11.92,11.92,0,0,0-5.989-3.743A30.181,30.181,0,0,0,817.7,320a36.668,36.668,0,0,0-11.679,1.847,19.3,19.3,0,0,0-8.684,5.49l-.4-.549" transform="translate(-732.857 -237)"/>
      <g id="Group_85" data-name="Group 85" transform="translate(85.743)">
        <g id="Group_84" data-name="Group 84" clip-path="url(#clip-path-3)">
          <path id="Path_758" data-name="Path 758" d="M708.63,155.6c-21.061,0-38.13,15.571-38.13,34.736,0,12.926,7.736,24.206,19.265,30.195L682.578,237.4l25-12.327h1.048c21.061,0,38.13-15.571,38.13-34.736.05-19.165-17.019-34.736-38.13-34.736" transform="translate(-670.15 -155.201)" fill="#ff9b30"/>
        </g>
      </g>
      <g id="Group_87" data-name="Group 87" transform="translate(85.094)">
        <g id="Group_86" data-name="Group 86" clip-path="url(#clip-path-4)">
          <path id="Path_759" data-name="Path 759" d="M707.929,155.1v.4a39.512,39.512,0,0,0-26.7,10.082,32.694,32.694,0,0,0-11.03,24.256c0,12.727,7.636,23.906,19.015,29.8a.42.42,0,0,1,.2.549l-6.738,15.871,24.056-11.878.2-.05h1.048a39.512,39.512,0,0,0,26.7-10.082,32.185,32.185,0,0,0,0-48.511,39.512,39.512,0,0,0-26.7-10.082V154.6a40.5,40.5,0,0,1,27.25,10.281,32.928,32.928,0,0,1,0,49.709,40.5,40.5,0,0,1-27.25,10.281h-1.048v-.4l.2.349-25,12.327a.371.371,0,0,1-.449-.05.382.382,0,0,1-.1-.449l7.187-16.869.4.15-.2.349c-11.629-6.039-19.464-17.468-19.464-30.544a33.482,33.482,0,0,1,11.329-24.854,40.5,40.5,0,0,1,27.25-10.281v.5" transform="translate(-668.801 -154.7)" fill="none"/>
        </g>
      </g>
    </g>
  </g>
</svg>
