<svg xmlns="http://www.w3.org/2000/svg" xmlns:xlink="http://www.w3.org/1999/xlink" width="162.441" height="300" viewBox="0 0 162.441 300">
  <defs>
    <clipPath id="clip-path">
      <rect id="Rectangle_50" data-name="Rectangle 50" width="26.901" height="11.033"/>
    </clipPath>
    <clipPath id="clip-path-2">
      <rect id="Rectangle_51" data-name="Rectangle 51" width="76.995" height="82.394"/>
    </clipPath>
    <clipPath id="clip-path-3">
      <rect id="Rectangle_52" data-name="Rectangle 52" width="77.606" height="82.629"/>
    </clipPath>
  </defs>
  <g id="image_left" transform="translate(-177.4 -188.5)">
    <path id="Path_760" data-name="Path 760" d="M269.449,810.735a4.879,4.879,0,0,1-4.883,4.883h-15.54c-5.258-.282-4.836-4.272-4.836-4.272,0-2.676,1.784-3.662,4.46-3.9,4.6-.376,15.915-1.549,15.915-1.549a4.839,4.839,0,0,1,4.883,4.836" transform="translate(-35.429 -327.54)" fill="#ffcd45"/>
    <g id="Group_89" data-name="Group 89" transform="translate(208.057 477.467)">
      <g id="Group_88" data-name="Group 88" transform="translate(0)" clip-path="url(#clip-path)">
        <path id="Path_761" data-name="Path 761" d="M268.924,810.205H268.5a4.488,4.488,0,0,1-4.46,4.46H248.5v0c-2.207-.141-3.239-.892-3.85-1.69a3.744,3.744,0,0,1-.657-2.019v-.188a2.833,2.833,0,0,1,1.08-2.535,5.548,5.548,0,0,1,3-.939c4.6-.376,15.915-1.549,15.915-1.549l-.047-.422v.422a4.488,4.488,0,0,1,4.46,4.46h.845a5.29,5.29,0,0,0-5.258-5.305h-.047s-.7.094-1.831.188c-3.38.329-10.61,1.08-14.085,1.362a6.25,6.25,0,0,0-3.474,1.127,3.725,3.725,0,0,0-1.361,3.193h.423l-.423-.047v.235a4.456,4.456,0,0,0,.8,2.488,5.423,5.423,0,0,0,4.46,2.019h15.54a5.26,5.26,0,0,0,5.258-5.305h-.329" transform="translate(-242.962 -804.478)"/>
      </g>
    </g>
    <path id="Path_762" data-name="Path 762" d="M502.134,703.861a4.844,4.844,0,0,1,2.019,6.573l-7.277,13.756c-2.723,4.507-6.056,2.3-6.056,2.3-2.394-1.268-2.394-3.286-1.362-5.775,1.831-4.225,6.1-14.789,6.1-14.789a4.861,4.861,0,0,1,6.573-2.066" transform="translate(-165.204 -273.108)" fill="#ffcd45"/>
    <path id="Path_763" data-name="Path 763" d="M501.656,703.333l-.188.376a4.45,4.45,0,0,1,2.347,3.944,4.638,4.638,0,0,1-.516,2.066l-7.277,13.709.376.188-.376-.235a5.783,5.783,0,0,1-1.972,2.113,3.326,3.326,0,0,1-1.737.516,4.065,4.065,0,0,1-1.268-.235,2.787,2.787,0,0,1-.376-.188l-.094-.047h0l-.094.094.094-.094-.094.094.094-.094h-.047a3.685,3.685,0,0,1-1.408-1.221,2.681,2.681,0,0,1-.423-1.5,6.344,6.344,0,0,1,.657-2.535c1.831-4.272,6.1-14.789,6.1-14.836l-.376-.141.376.188a4.45,4.45,0,0,1,3.944-2.347,4.091,4.091,0,0,1,2.066.516l.376-.751a5.282,5.282,0,0,0-7.136,2.207v.047s-.282.657-.7,1.737c-1.268,3.193-4.038,9.906-5.4,13.1a7.74,7.74,0,0,0-.7,2.864,3.806,3.806,0,0,0,.516,1.925,4.852,4.852,0,0,0,1.69,1.5l.188-.376-.235.329a4.653,4.653,0,0,0,2.207.61,4,4,0,0,0,2.16-.61,6.988,6.988,0,0,0,2.254-2.394h0l7.277-13.709a5.268,5.268,0,0,0,.61-2.488,5.4,5.4,0,0,0-2.817-4.695l-.094.375" transform="translate(-164.725 -272.579)"/>
    <path id="Path_764" data-name="Path 764" d="M340.7,609.1s9.155,21.925,16.573,25.117c12.394,5.305,27.653,10.094,56.667,20.188,0,0,9.3-8.31,6.526-10.423-4.695-3.615-34.131-21.5-50.61-23.521,0,0-1.6-15.962-4.977-28.357l-24.178,17" transform="translate(-86.633 -214.116)" fill="#fff"/>
    <path id="Path_765" data-name="Path 765" d="M340.18,608.583l-.376.141s2.3,5.493,5.493,11.408a67.71,67.71,0,0,0,5.4,8.545c1.925,2.535,3.9,4.554,5.869,5.4,12.441,5.305,27.7,10.094,56.714,20.188a.479.479,0,0,0,.423-.094s1.784-1.6,3.568-3.568a24.324,24.324,0,0,0,2.441-3.1,6.1,6.1,0,0,0,1.174-2.958,1.822,1.822,0,0,0-.7-1.455c-1.221-.939-3.944-2.723-7.606-4.93a232.2,232.2,0,0,0-21.08-11.268c-7.84-3.662-15.869-6.667-22.16-7.418l-.047.423.423-.047s-1.6-15.962-4.977-28.4a.423.423,0,0,0-.282-.282.355.355,0,0,0-.376.047l-24.178,17a.427.427,0,0,0-.141.516l.423-.141.235.329,24.178-17-.235-.329-.423.094a172.435,172.435,0,0,1,3.756,18.779c.423,2.77.7,5.164.939,6.808.094.845.188,1.5.235,1.972s.094.7.094.7c0,.188.188.329.376.376,8.122.986,19.624,5.962,29.577,11.127,4.977,2.582,9.624,5.211,13.286,7.418s6.385,3.991,7.512,4.883a1.079,1.079,0,0,1,.376.8,5.3,5.3,0,0,1-1.033,2.535,29.587,29.587,0,0,1-3.662,4.366L413.842,653c-.188.188-.376.329-.469.423a.808.808,0,0,1-.188.141l.282.329.141-.376c-29.014-10.094-44.272-14.883-56.667-20.188-1.737-.751-3.662-2.676-5.54-5.117a83.282,83.282,0,0,1-7.512-12.676c-.986-2.019-1.831-3.756-2.394-5.07-.282-.61-.516-1.127-.657-1.5-.141-.329-.235-.563-.235-.563l-.423.188.235.329-.235-.329" transform="translate(-86.113 -213.604)"/>
    <path id="Path_766" data-name="Path 766" d="M328.84,591.8l-32.394,4.413s-8.075,13.052-16.385,23.944a18.508,18.508,0,0,0-3.615,9.671c-.751,9.531-3.146,41.315-3.146,63.193h9.531c5.587-17.559,11.033-38.216,9.53-60.563,0,0,17.277-9.531,32.488-19.531,3.944-2.629,5.775-5.54,5.775-14.038a21.107,21.107,0,0,0-1.784-7.089" transform="translate(-50.877 -213.957)" fill="#fff"/>
    <path id="Path_767" data-name="Path 767" d="M328.362,591.323l-.047-.423-32.394,4.413a.317.317,0,0,0-.282.188s-.141.188-.376.563c-1.643,2.629-8.732,13.8-16.009,23.333a19.007,19.007,0,0,0-3.709,9.906c-.751,9.531-3.146,41.315-3.146,63.193a.335.335,0,0,0,.141.282.406.406,0,0,0,.282.141h9.531a.357.357,0,0,0,.376-.282c4.977-15.587,9.812-33.615,9.812-53.146,0-2.488-.094-5.024-.235-7.559l-.423.047.188.376s17.277-9.531,32.488-19.53a11.374,11.374,0,0,0,4.554-4.977c.986-2.207,1.455-5.117,1.455-9.39a15.5,15.5,0,0,0-.939-4.789c-.469-1.408-.892-2.394-.892-2.394a.357.357,0,0,0-.423-.235l.047.282-.376.188a.514.514,0,0,1,.094.188,20.655,20.655,0,0,1,1.69,6.714c0,4.225-.469,7.042-1.361,9.061a11.154,11.154,0,0,1-4.225,4.648c-7.606,4.977-15.728,9.859-21.925,13.521-3.1,1.831-5.728,3.333-7.606,4.366-.939.516-1.643.939-2.16,1.221s-.751.422-.751.422a.479.479,0,0,0-.235.376c.188,2.535.235,5.023.235,7.512,0,19.39-4.836,37.371-9.765,52.911l.376.141v-.422h-9.531v.422h.423c0-21.878,2.394-53.662,3.146-63.146a17.993,17.993,0,0,1,3.568-9.437c8.31-10.939,16.385-23.991,16.385-23.991l-.376-.235.047.423,32.394-4.413-.047-.469-.376.188.376-.188" transform="translate(-50.399 -213.48)"/>
    <path id="Path_768" data-name="Path 768" d="M245.671,358.975c2.958-1.08,4.836-2.207,6.385-2.535,1.878-.376,3.333,1.315,3.662,2.207.423,1.08,1.221,3.756,1.6,4.836.235.7-.047,1.925-1.643,2.629l1.221,3.709a1.666,1.666,0,0,1-1.08,2.113l-4.131,1.408a1.68,1.68,0,0,1-2.113-1.033l-1.221-3.709a1.8,1.8,0,0,1-2.441-.8l-1.549-4.46c-.282-.939-.61-3.662,1.315-4.366" transform="translate(-35.407 -89.066)" fill="#fff"/>
    <path id="Path_769" data-name="Path 769" d="M245.172,358.5l.141.376c3-1.08,4.883-2.253,6.338-2.535a1.6,1.6,0,0,1,.469-.047,2.9,2.9,0,0,1,1.784.751,3.353,3.353,0,0,1,.939,1.268h0c.376,1.08,1.221,3.709,1.6,4.836a.915.915,0,0,1,.047.376c0,.516-.282,1.268-1.455,1.784a.472.472,0,0,0-.235.516l1.221,3.662a1.3,1.3,0,0,1,.047.423,1.212,1.212,0,0,1-.845,1.174l-4.131,1.408a1.3,1.3,0,0,1-.423.047,1.212,1.212,0,0,1-1.174-.845l-1.221-3.709a.386.386,0,0,0-.235-.235.4.4,0,0,0-.329,0,1.883,1.883,0,0,1-.7.141,1.247,1.247,0,0,1-1.221-.7h0l-1.549-4.46h0a4.823,4.823,0,0,1-.188-1.408,3.658,3.658,0,0,1,.282-1.455,1.452,1.452,0,0,1,.986-.892l-.141-.469-.141-.376a2.457,2.457,0,0,0-1.455,1.362,5.01,5.01,0,0,0-.141,3.427h0l1.549,4.46h0a2.037,2.037,0,0,0,1.972,1.268,2.452,2.452,0,0,0,.986-.188l-.141-.376-.376.141,1.221,3.709a2.055,2.055,0,0,0,1.972,1.408,3.171,3.171,0,0,0,.657-.094l4.131-1.408a2.055,2.055,0,0,0,1.408-1.972,3.169,3.169,0,0,0-.094-.657L255.5,365.5l-.376.141.141.376a2.867,2.867,0,0,0,1.972-2.535,2.378,2.378,0,0,0-.094-.61c-.376-1.08-1.174-3.756-1.6-4.836h0a4.2,4.2,0,0,0-1.174-1.6,3.429,3.429,0,0,0-2.3-.939,2.678,2.678,0,0,0-.61.047c-1.69.376-3.521,1.549-6.432,2.582l.141.376" transform="translate(-34.908 -88.596)"/>
    <path id="Path_770" data-name="Path 770" d="M244.77,363.264a1.535,1.535,0,1,1-2.817,1.221l-1.6-3.709a1.535,1.535,0,1,1,2.817-1.221l1.6,3.709" transform="translate(-33.333 -90.257)" fill="#fff"/>
    <path id="Path_771" data-name="Path 771" d="M244.277,362.823l-.376.188a1.389,1.389,0,0,1,.094.469,1.126,1.126,0,0,1-.657,1.033,1.37,1.37,0,0,1-.423.094,1.126,1.126,0,0,1-1.033-.657l-1.6-3.709a1.371,1.371,0,0,1-.094-.423,1.126,1.126,0,0,1,.657-1.033,1.37,1.37,0,0,1,.423-.094,1.126,1.126,0,0,1,1.033.657l1.6,3.709.376-.235.376-.141-1.6-3.709a1.929,1.929,0,0,0-1.784-1.174,2.385,2.385,0,0,0-.8.141,2.006,2.006,0,0,0-1.174,1.784,2.384,2.384,0,0,0,.141.8l1.6,3.709a1.929,1.929,0,0,0,1.784,1.174,2.126,2.126,0,0,0,.751-.141,1.929,1.929,0,0,0,1.174-1.784,2.385,2.385,0,0,0-.141-.8l-.329.141" transform="translate(-32.839 -89.816)"/>
    <path id="Path_772" data-name="Path 772" d="M250.77,360.664a1.535,1.535,0,1,1-2.817,1.221l-1.6-3.709a1.535,1.535,0,1,1,2.817-1.221l1.6,3.709" transform="translate(-36.516 -88.878)" fill="#fff"/>
    <path id="Path_773" data-name="Path 773" d="M250.33,360.17l-.376.141a1.371,1.371,0,0,1,.094.423,1.126,1.126,0,0,1-.657,1.033,1.37,1.37,0,0,1-.423.094,1.126,1.126,0,0,1-1.033-.657l-1.6-3.709a1.371,1.371,0,0,1-.094-.423,1.126,1.126,0,0,1,.657-1.033,1.371,1.371,0,0,1,.423-.094,1.126,1.126,0,0,1,1.033.657l1.6,3.709.751-.329-1.6-3.709a1.929,1.929,0,0,0-3.709.751,2.126,2.126,0,0,0,.141.751l1.6,3.709a1.929,1.929,0,0,0,3.709-.751,2.127,2.127,0,0,0-.141-.751l-.376.188" transform="translate(-36.075 -88.384)"/>
    <path id="Path_774" data-name="Path 774" d="M256.67,358.064a1.516,1.516,0,0,1-.8,2.019,1.531,1.531,0,0,1-2.019-.8l-1.6-3.709a1.535,1.535,0,1,1,2.817-1.221l1.6,3.709" transform="translate(-39.646 -87.499)" fill="#fff"/>
    <path id="Path_775" data-name="Path 775" d="M256.23,357.623l-.376.188a1.371,1.371,0,0,1,.094.423,1.126,1.126,0,0,1-.657,1.033,1.37,1.37,0,0,1-.423.094,1.126,1.126,0,0,1-1.033-.657l-1.6-3.709a1.371,1.371,0,0,1-.094-.423,1.126,1.126,0,0,1,.657-1.033,1.371,1.371,0,0,1,.423-.094,1.126,1.126,0,0,1,1.033.657l1.6,3.709.751-.329-1.6-3.709a1.929,1.929,0,0,0-3.709.751,2.126,2.126,0,0,0,.141.751l1.6,3.709a1.929,1.929,0,0,0,1.784,1.174,2.385,2.385,0,0,0,.8-.141,1.972,1.972,0,0,0,1.033-2.535l-.423.141" transform="translate(-39.205 -87.058)"/>
    <path id="Path_776" data-name="Path 776" d="M262.67,355.464a1.516,1.516,0,0,1-.8,2.019,1.531,1.531,0,0,1-2.019-.8l-1.6-3.709a1.535,1.535,0,1,1,2.817-1.221l1.6,3.709" transform="translate(-42.829 -86.119)" fill="#fff"/>
    <path id="Path_777" data-name="Path 777" d="M262.23,355.023l-.376.188a1.371,1.371,0,0,1,.094.423,1.126,1.126,0,0,1-.657,1.033,1.371,1.371,0,0,1-.423.094,1.126,1.126,0,0,1-1.033-.657l-1.6-3.709a1.371,1.371,0,0,1-.094-.423,1.126,1.126,0,0,1,.657-1.033,1.37,1.37,0,0,1,.423-.094,1.126,1.126,0,0,1,1.033.657l1.6,3.709.376-.188.376-.141-1.6-3.709a1.929,1.929,0,0,0-3.709.751,2.384,2.384,0,0,0,.141.8l1.6,3.709a1.929,1.929,0,0,0,1.784,1.174,2.385,2.385,0,0,0,.8-.141,2.006,2.006,0,0,0,1.174-1.784,1.947,1.947,0,0,0-.141-.751l-.423.094" transform="translate(-42.388 -85.678)"/>
    <path id="Path_778" data-name="Path 778" d="M260.5,361.652a1.526,1.526,0,0,1,.047-3.052l2.723.094a1.526,1.526,0,1,1-.047,3.052l-2.723-.094" transform="translate(-43.29 -90.241)" fill="#fff"/>
    <path id="Path_779" data-name="Path 779" d="M260.025,361.227V360.8a1.1,1.1,0,0,1-1.08-1.127h0a1.1,1.1,0,0,1,1.127-1.08h0v0h0v0h.047l2.723.094h0a1.1,1.1,0,0,1,1.08,1.127v.047h0a1.1,1.1,0,0,1-1.127,1.08h-.047v0l-2.723-.094h0v.8l2.723.094h.047a1.924,1.924,0,0,0,1.925-1.878v-.047a1.933,1.933,0,0,0-1.925-1.925h0l-2.723-.094v.423l.047-.423h-.094a1.933,1.933,0,0,0-1.925,1.925h0v.047a1.933,1.933,0,0,0,1.925,1.925v-.469" transform="translate(-42.813 -89.816)"/>
    <path id="Path_780" data-name="Path 780" d="M452.847,358.793c-3.193-.61-5.305-1.5-6.948-1.6-1.972-.094-3.193,1.878-3.38,2.817-.235,1.174-.657,4.038-.845,5.211-.141.8.329,1.972,2.066,2.441l-.657,3.991a1.782,1.782,0,0,0,1.408,2.019l4.46.751a1.782,1.782,0,0,0,2.019-1.408l.657-3.991a1.886,1.886,0,0,0,2.394-1.221l.845-4.836c.141-.939.047-3.756-2.019-4.178" transform="translate(-140.189 -89.494)" fill="#fff"/>
    <path id="Path_781" data-name="Path 781" d="M452.343,358.319l.094-.423c-3.146-.61-5.211-1.5-7-1.6h-.188a3.565,3.565,0,0,0-2.582,1.221,4.616,4.616,0,0,0-1.08,1.972c-.235,1.221-.657,4.038-.845,5.211,0,.094-.047.188-.047.329a2.5,2.5,0,0,0,.563,1.5,3.2,3.2,0,0,0,1.831,1.08l.094-.423-.423-.094-.7,3.991c0,.141-.047.235-.047.376a2.16,2.16,0,0,0,1.784,2.113l4.46.751c.141,0,.235.047.376.047a2.16,2.16,0,0,0,2.113-1.784l.657-3.991-.423-.047-.094.423a3.171,3.171,0,0,0,.657.094,2.713,2.713,0,0,0,1.5-.469,2.014,2.014,0,0,0,.751-1.127h0l.845-4.836h0a3.561,3.561,0,0,0,.047-.751,5.776,5.776,0,0,0-.423-2.254,2.729,2.729,0,0,0-1.972-1.643l-.141.8a1.824,1.824,0,0,1,1.362,1.174,4.687,4.687,0,0,1,.376,1.925,2.119,2.119,0,0,1-.047.61h0L453,367.333h0a1.205,1.205,0,0,1-.423.61,1.654,1.654,0,0,1-.986.329,1.762,1.762,0,0,1-.469-.047.412.412,0,0,0-.329.047.431.431,0,0,0-.188.282l-.657,3.991a1.277,1.277,0,0,1-1.315,1.08H448.4l-4.46-.751a1.277,1.277,0,0,1-1.08-1.315v-.235l.7-3.991a.387.387,0,0,0-.329-.469,2.678,2.678,0,0,1-1.408-.845,1.427,1.427,0,0,1-.376-.939v-.188c.188-1.221.61-4.038.845-5.211a3.161,3.161,0,0,1,.892-1.549,2.567,2.567,0,0,1,1.972-.939h.141c1.549.094,3.662.986,6.9,1.6l.141-.47" transform="translate(-139.685 -89.021)"/>
    <path id="Path_782" data-name="Path 782" d="M463.836,361.9a1.549,1.549,0,0,0,1.127,1.925,1.57,1.57,0,0,0,1.925-1.127l1.08-4.038a1.549,1.549,0,0,0-1.127-1.925,1.57,1.57,0,0,0-1.925,1.127l-1.08,4.038" transform="translate(-151.929 -89.222)" fill="#fff"/>
    <path id="Path_783" data-name="Path 783" d="M463.369,361.434l-.423-.094a1.925,1.925,0,0,0-.047.516,2,2,0,0,0,1.5,1.925,1.926,1.926,0,0,0,.516.047,2,2,0,0,0,1.925-1.5l1.08-4.038a1.926,1.926,0,0,0,.047-.516,2,2,0,0,0-1.5-1.925,1.925,1.925,0,0,0-.516-.047,2,2,0,0,0-1.925,1.5l-1.08,4.038.423.094.376.094,1.08-4.038a1.2,1.2,0,0,1,1.127-.892.6.6,0,0,1,.282.047,1.2,1.2,0,0,1,.892,1.127.6.6,0,0,1-.047.282L466,362.091a1.2,1.2,0,0,1-1.127.892.6.6,0,0,1-.282-.047,1.2,1.2,0,0,1-.892-1.127.6.6,0,0,1,.047-.282l-.376-.094" transform="translate(-151.462 -88.755)"/>
    <path id="Path_784" data-name="Path 784" d="M457.336,360.2a1.577,1.577,0,0,0,3.052.8l1.08-4.038a1.577,1.577,0,0,0-3.052-.8l-1.08,4.038" transform="translate(-148.48 -88.32)" fill="#fff"/>
    <path id="Path_785" data-name="Path 785" d="M456.869,359.734l-.423-.094a1.925,1.925,0,0,0-.047.516,2,2,0,0,0,1.5,1.925h0a1.925,1.925,0,0,0,.516.047,2,2,0,0,0,1.925-1.5l1.08-4.038a1.925,1.925,0,0,0,.047-.516,2,2,0,0,0-1.5-1.925,1.927,1.927,0,0,0-.516-.047,2,2,0,0,0-1.925,1.5l-1.08,4.085.8.188,1.08-4.085a1.2,1.2,0,0,1,1.127-.892.6.6,0,0,1,.282.047,1.2,1.2,0,0,1,.892,1.127.6.6,0,0,1-.047.282l-1.08,4.038a1.2,1.2,0,0,1-1.127.892.6.6,0,0,1-.282-.047h0a1.2,1.2,0,0,1-.892-1.127.6.6,0,0,1,.047-.282l-.376-.094" transform="translate(-148.014 -87.854)"/>
    <path id="Path_786" data-name="Path 786" d="M450.836,358.347a1.549,1.549,0,0,0,1.127,1.925,1.57,1.57,0,0,0,1.925-1.127l1.08-4.085a1.577,1.577,0,0,0-3.052-.8l-1.08,4.085" transform="translate(-145.032 -87.312)" fill="#fff"/>
    <path id="Path_787" data-name="Path 787" d="M450.369,357.881l-.423-.094a1.925,1.925,0,0,0-.047.516,2,2,0,0,0,1.5,1.925,1.925,1.925,0,0,0,.516.047,2,2,0,0,0,1.925-1.5l1.08-4.084a1.927,1.927,0,0,0,.047-.516,2,2,0,0,0-1.5-1.925,1.927,1.927,0,0,0-.516-.047,2,2,0,0,0-1.925,1.5l-1.08,4.038.8.188,1.08-4.038a1.2,1.2,0,0,1,1.127-.892.6.6,0,0,1,.282.047,1.2,1.2,0,0,1,.892,1.127.6.6,0,0,1-.047.282L453,358.538a1.2,1.2,0,0,1-1.127.892.6.6,0,0,1-.282-.047,1.2,1.2,0,0,1-.892-1.127.6.6,0,0,1,.047-.282l-.376-.094" transform="translate(-144.566 -86.846)"/>
    <path id="Path_788" data-name="Path 788" d="M444.236,356.7a1.549,1.549,0,0,0,1.127,1.925,1.57,1.57,0,0,0,1.925-1.127l1.08-4.038a1.577,1.577,0,0,0-3.052-.8l-1.08,4.038" transform="translate(-141.531 -86.463)" fill="#fff"/>
    <path id="Path_789" data-name="Path 789" d="M443.823,356.234l-.376-.094a1.925,1.925,0,0,0-.047.516,2,2,0,0,0,1.5,1.925,1.925,1.925,0,0,0,.516.047,2,2,0,0,0,1.925-1.5l1.08-4.038a1.925,1.925,0,0,0,.047-.516,2,2,0,0,0-1.5-1.925,1.927,1.927,0,0,0-.516-.047,2,2,0,0,0-1.925,1.5l-1.08,4.038.376.094.423.094,1.08-4.038a1.2,1.2,0,0,1,1.127-.892.6.6,0,0,1,.282.047,1.2,1.2,0,0,1,.892,1.127.6.6,0,0,1-.047.282l-1.08,4.038a1.2,1.2,0,0,1-1.127.892.6.6,0,0,1-.282-.047,1.2,1.2,0,0,1-.892-1.127.6.6,0,0,1,.047-.282l-.423-.094" transform="translate(-141.117 -85.997)"/>
    <path id="Path_790" data-name="Path 790" d="M445.562,362.723a1.557,1.557,0,0,0,1.268-1.831A1.625,1.625,0,0,0,445,359.577l-2.77.516a1.557,1.557,0,0,0-1.268,1.831,1.625,1.625,0,0,0,1.831,1.315l2.77-.516" transform="translate(-139.806 -90.748)" fill="#fff"/>
    <path id="Path_791" data-name="Path 791" d="M445.177,362.321l.094.423a2.005,2.005,0,0,0,1.643-1.972.8.8,0,0,0-.047-.329,2.005,2.005,0,0,0-1.972-1.643.8.8,0,0,0-.329.047l-2.77.516.094.423-.047-.423a2.005,2.005,0,0,0-1.643,1.972.8.8,0,0,0,.047.329,2.005,2.005,0,0,0,1.972,1.643.8.8,0,0,0,.329-.047h0l2.77-.516h0l-.141-.8-2.77.516.094.423-.094-.423h-.188a1.157,1.157,0,0,1-1.127-.986v-.188a1.157,1.157,0,0,1,.986-1.127h0l2.77-.516h.188a1.157,1.157,0,0,1,1.127.986v.188a1.157,1.157,0,0,1-.986,1.127h0v.376" transform="translate(-139.42 -90.347)"/>
    <path id="Path_792" data-name="Path 792" d="M295.182,423.738s-29.437-8.92-32.723-44.038l-9.859,4.695s7.887,34.883,32.77,50.282c1.6.986.8,27.324-2.77,49.155l38.263-4.413s-7.277-34.6-2.77-44.413,19.531-29.718,34.836-52.347l-11.174-1.127s-20.751,38.4-38.779,42.16h-7.793" transform="translate(-39.895 -101.435)" fill="#ffcd45"/>
    <path id="Path_793" data-name="Path 793" d="M294.744,423.3l.141-.376h-.094a47.372,47.372,0,0,1-15.634-9.39c-7.465-6.62-15.117-17.371-16.714-34.272a.475.475,0,0,0-.188-.329c-.094-.047-.282-.094-.376,0l-9.859,4.695a.411.411,0,0,0-.235.469,102.272,102.272,0,0,0,7.089,19.484c5.117,10.7,13.333,23.333,25.915,31.08l.094-.094-.094.094h0l.094-.094-.094.094h0a3.56,3.56,0,0,1,.235.657,44.325,44.325,0,0,1,.376,7,282.665,282.665,0,0,1-3.568,41.127.565.565,0,0,0,.094.376.507.507,0,0,0,.329.141l38.263-4.413a.386.386,0,0,0,.282-.188.87.87,0,0,0,.094-.329s-.047-.329-.188-.892c-.8-4.038-4.038-20.986-4.038-33.1,0-4.272.423-7.934,1.455-10.141,2.207-4.836,7.136-12.254,13.333-21.315,6.244-9.014,13.8-19.671,21.455-30.986a.456.456,0,0,0,.047-.423.353.353,0,0,0-.329-.235l-11.174-1.127a.449.449,0,0,0-.423.235,4.33,4.33,0,0,0-.235.423,189.106,189.106,0,0,1-13.756,21.08A96.869,96.869,0,0,1,315.214,415.7c-4.178,3.709-8.545,6.479-12.629,7.324l.094.423v-.423h-7.84v.282l.141-.376-.235.376v.423h7.934c4.648-.986,9.343-4.131,13.85-8.263,13.521-12.441,25.164-34.084,25.211-34.084l-.376-.188-.047.423,11.174,1.127.047-.423-.329-.235c-7.653,11.268-15.211,21.925-21.455,30.986s-11.127,16.479-13.427,21.408c-1.127,2.441-1.5,6.15-1.5,10.516,0,13.991,4.272,34.131,4.272,34.178l.423-.094-.047-.423-38.263,4.413.047.423.423.047a284.912,284.912,0,0,0,3.568-41.268c0-2.347-.047-4.272-.188-5.634a11.242,11.242,0,0,0-.235-1.69,1.99,1.99,0,0,0-.188-.563c-.094-.141-.141-.329-.329-.423-12.347-7.606-20.516-20.094-25.587-30.7a111.39,111.39,0,0,1-5.4-13.615c-.563-1.737-.986-3.146-1.221-4.131q-.211-.775-.282-1.127a3.452,3.452,0,0,0-.094-.376l-.423.094.188.376,9.859-4.695-.188-.376-.423.047c1.643,17.7,9.906,28.826,17.746,35.493a47.161,47.161,0,0,0,15.258,8.92h.141V423.3" transform="translate(-39.457 -101.002)" fill="none"/>
    <path id="Path_794" data-name="Path 794" d="M331.928,371.9c-9.953,0-18.028,9.437-18.028,21.08,0,15.493,5.916,19.906,13.9,20.845v5.869l4.038,9.484,4.178-9.531.047-6.15C344.041,411.337,350,402.98,350,392.98c0-11.643-8.122-21.08-18.075-21.08" transform="translate(-72.415 -97.297)" fill="#fff"/>
    <path id="Path_795" data-name="Path 795" d="M331.451,371.369v-.423a17.107,17.107,0,0,0-13.052,6.338,23.313,23.313,0,0,0-5.4,15.164c0,7.793,1.5,12.864,4.038,16.15,2.582,3.286,6.2,4.648,10.235,5.117l.047-.423H326.9v5.869l.047.141,4.038,9.484a.418.418,0,0,0,.376.235.372.372,0,0,0,.376-.235l4.178-9.531.047-.141.047-6.15h-.423l.094.376c8.216-2.254,14.272-10.751,14.272-20.939a23.312,23.312,0,0,0-5.4-15.164A17.255,17.255,0,0,0,331.5,370.9v.845a16.454,16.454,0,0,1,12.441,6.009A22.588,22.588,0,0,1,349.1,392.4c0,9.812-5.869,18.028-13.662,20.141a.451.451,0,0,0-.329.423v6.056l-3.756,8.592-3.662-8.545v-5.775a.445.445,0,0,0-.376-.423c-3.944-.469-7.277-1.784-9.671-4.836S313.8,400.1,313.8,392.4a22.588,22.588,0,0,1,5.164-14.648,16.3,16.3,0,0,1,12.441-6.009v-.376" transform="translate(-71.938 -96.766)"/>
    <path id="Path_796" data-name="Path 796" d="M345.2,371.266c-9.531-11.643-44.178-9.718-36.15,6.15,2.582,5.117,19.859-3.38,25.117,4.93a13.389,13.389,0,0,1,1.925,5.352,5.175,5.175,0,0,1,.845-.094,3.891,3.891,0,0,1,4.178,3.85c0,2.347-1.878,4.6-4.178,4.6a4.108,4.108,0,0,1-.751-.094c-.188,4.131-.235,7.887,2.3,10.469.047-.047,21.033-17.653,6.714-35.164" transform="translate(-69.207 -93)" fill="#ffcd45"/>
    <path id="Path_797" data-name="Path 797" d="M344.693,370.787l.329-.282a19.832,19.832,0,0,0-9.061-5.728,37.514,37.514,0,0,0-11.925-1.878,27.151,27.151,0,0,0-11.831,2.347,10.9,10.9,0,0,0-3.85,3,6.815,6.815,0,0,0-1.455,4.272,10.4,10.4,0,0,0,1.221,4.648,3.3,3.3,0,0,0,2.019,1.6,10.38,10.38,0,0,0,3.1.376c3.146,0,7.136-.7,10.892-.7a16.225,16.225,0,0,1,5.352.751,7.285,7.285,0,0,1,3.8,2.911,13.486,13.486,0,0,1,1.878,5.164.411.411,0,0,0,.516.329,4.108,4.108,0,0,1,.751-.094,3.87,3.87,0,0,1,2.676.939,3.247,3.247,0,0,1,1.08,2.488,4.518,4.518,0,0,1-1.127,2.911,3.552,3.552,0,0,1-2.676,1.268,3.1,3.1,0,0,1-.657-.047.447.447,0,0,0-.329.094.426.426,0,0,0-.141.329c-.047.939-.094,1.878-.094,2.817a16.047,16.047,0,0,0,.469,4.319,7.605,7.605,0,0,0,2.066,3.615.492.492,0,0,0,.563.047,41.753,41.753,0,0,0,5.915-6.479c2.958-4.038,5.915-9.577,5.915-15.869a20.836,20.836,0,0,0-5.117-13.38l-.657.516c3.568,4.413,4.93,8.732,4.93,12.817,0,5.962-2.864,11.408-5.775,15.352a41.758,41.758,0,0,1-3.991,4.648c-.563.563-.986.986-1.315,1.268-.141.141-.282.235-.376.329s-.141.094-.141.094l.282.329.282-.282a6.936,6.936,0,0,1-1.831-3.286,16.2,16.2,0,0,1-.423-4.131c0-.892.047-1.831.094-2.77h-.423l-.094.423a4.624,4.624,0,0,0,.8.094,4.389,4.389,0,0,0,3.286-1.549,5.123,5.123,0,0,0,1.315-3.427,4.072,4.072,0,0,0-1.362-3.1,4.777,4.777,0,0,0-3.239-1.127,6.36,6.36,0,0,0-.939.094l.094.423.423-.047a14.359,14.359,0,0,0-1.972-5.493,7.751,7.751,0,0,0-4.225-3.239,16.7,16.7,0,0,0-5.634-.8c-3.8,0-7.84.7-10.892.7a10.006,10.006,0,0,1-2.864-.329,2.319,2.319,0,0,1-1.549-1.221,9.64,9.64,0,0,1-1.174-4.272,5.9,5.9,0,0,1,1.315-3.756,11.8,11.8,0,0,1,6.009-3.709,30.088,30.088,0,0,1,9.014-1.268,37.075,37.075,0,0,1,11.643,1.831,18.739,18.739,0,0,1,8.685,5.493l.422-.376" transform="translate(-68.702 -92.522)"/>
    <g id="Group_91" data-name="Group 91" transform="translate(177.4 188.5)">
      <g id="Group_90" data-name="Group 90" clip-path="url(#clip-path-2)">
        <path id="Path_798" data-name="Path 798" d="M216.475,189.3c21.033,0,38.075,15.54,38.075,34.742,0,12.911-7.746,24.178-19.2,30.188l7.183,16.9-24.977-12.347h-1.08c-21.033,0-38.075-15.54-38.075-34.742S195.442,189.3,216.475,189.3" transform="translate(-177.931 -188.924)" fill="#ffcd45"/>
      </g>
    </g>
    <g id="Group_93" data-name="Group 93" transform="translate(177.4 188.876)">
      <g id="Group_92" data-name="Group 92" clip-path="url(#clip-path-3)">
        <path id="Path_799" data-name="Path 799" d="M216.1,189.723v.423a39.841,39.841,0,0,1,26.667,10A32.546,32.546,0,0,1,253.8,224.277c0,12.676-7.653,23.756-19.014,29.671a.4.4,0,0,0-.188.516l6.714,15.775-23.944-11.784-.188-.047h-1.033a39.841,39.841,0,0,1-26.667-10,31.907,31.907,0,0,1,0-48.263,39.521,39.521,0,0,1,26.667-10V189.3a40.26,40.26,0,0,0-27.183,10.235,32.8,32.8,0,0,0,0,49.484,40.26,40.26,0,0,0,27.183,10.235h1.08v-.423l-.188.376,24.977,12.3a.374.374,0,0,0,.469-.094.431.431,0,0,0,.094-.469l-7.136-16.807-.376.141.188.376c11.6-6.009,19.437-17.371,19.437-30.376a33.42,33.42,0,0,0-11.268-24.742A40.26,40.26,0,0,0,216.245,189.3v.423" transform="translate(-177.559 -189.3)" fill="none"/>
      </g>
    </g>
  </g>
</svg>
