<svg xmlns="http://www.w3.org/2000/svg" xmlns:xlink="http://www.w3.org/1999/xlink" width="592.782" height="400" viewBox="0 0 592.782 400">
  <defs>
    <clipPath id="clip-path">
      <rect id="Rectangle_53" data-name="Rectangle 53" width="579.439" height="384.09"/>
    </clipPath>
    <clipPath id="clip-path-2">
      <rect id="Rectangle_54" data-name="Rectangle 54" width="585.597" height="389.671"/>
    </clipPath>
  </defs>
  <g id="Group_106" data-name="Group 106" transform="translate(-78.1 -225.9)">
    <g id="Group_97" data-name="Group 97" transform="translate(78.1 241.81)">
      <g id="Group_96" data-name="Group 96" clip-path="url(#clip-path)">
        <path id="Path_800" data-name="Path 800" d="M606.408,250.9H128.461A50.323,50.323,0,0,0,78.1,301.261v222.55a50.323,50.323,0,0,0,50.361,50.361H292.438L342.094,623.7a36.088,36.088,0,0,0,50.874,0l49.655-49.527H606.6a50.323,50.323,0,0,0,50.361-50.361V301.261A50.612,50.612,0,0,0,606.408,250.9Z" transform="translate(-78.1 -250.772)" fill="#fff"/>
      </g>
    </g>
    <g id="Group_99" data-name="Group 99" transform="translate(85.285 225.9)">
      <g id="Group_98" data-name="Group 98" clip-path="url(#clip-path-2)">
        <path id="Path_801" data-name="Path 801" d="M382.778,615.607a39.261,39.261,0,0,1-27.65-11.355l-48.757-48.693H143.74a53.445,53.445,0,0,1-53.44-53.44V279.44A53.527,53.527,0,0,1,143.74,226H621.623a53.472,53.472,0,0,1,53.569,53.44V502.119a53.445,53.445,0,0,1-53.44,53.44H459.121l-48.757,48.693A39,39,0,0,1,382.778,615.607ZM143.74,232.287a47.325,47.325,0,0,0-47.281,47.281v222.55A47.367,47.367,0,0,0,143.74,549.4H309l50.489,50.489a32.874,32.874,0,0,0,46.383,0L456.363,549.4h165.26A47.325,47.325,0,0,0,668.9,502.119V279.44a47.367,47.367,0,0,0-47.282-47.281H143.74Zm12.831,78.524V324.22c13.023-6.544,22.39-13.986,28.356-22.518,5.838-8.533,8.789-16.937,8.789-25.213,0-6.736-1.8-12.061-5.453-15.782a18.917,18.917,0,0,0-26.3-.513,17.447,17.447,0,0,0-5.325,13.152,17.171,17.171,0,0,0,3.657,11.163c2.5,2.823,6.287,4.747,11.355,5.581a40.057,40.057,0,0,1-5.838,12.318A39.29,39.29,0,0,1,156.571,310.812Zm-41.7,0V324.22c13.023-6.544,22.39-13.986,28.356-22.518,5.838-8.533,8.789-16.937,8.789-25.213,0-6.736-1.8-12.061-5.453-15.782a18.917,18.917,0,0,0-26.3-.513,17.447,17.447,0,0,0-5.325,13.152,17.171,17.171,0,0,0,3.657,11.163c2.5,2.823,6.287,4.747,11.355,5.581a40.058,40.058,0,0,1-5.838,12.318A42,42,0,0,1,114.871,310.812Z" transform="translate(-89.658 -225.936)" fill="#19191b"/>
      </g>
    </g>
  </g>
</svg>
