<svg id="image_left" xmlns="http://www.w3.org/2000/svg" xmlns:xlink="http://www.w3.org/1999/xlink" width="178.336" height="200" viewBox="0 0 178.336 200">
  <defs>
    <clipPath id="clip-path">
      <rect id="Rectangle_3" data-name="Rectangle 3" width="108.536" height="188.752" fill="none"/>
    </clipPath>
    <clipPath id="clip-path-2">
      <rect id="Rectangle_5" data-name="Rectangle 5" width="178.336" height="200" fill="none"/>
    </clipPath>
    <clipPath id="clip-path-3">
      <rect id="Rectangle_6" data-name="Rectangle 6" width="160.18" height="136.482" fill="none"/>
    </clipPath>
  </defs>
  <g id="Group_2" data-name="Group 2" transform="translate(47.373 0.001)">
    <g id="Group_1" data-name="Group 1" clip-path="url(#clip-path)">
      <path id="Path_1" data-name="Path 1" d="M195.1,100.527H167.733l26.959,83.733a3.08,3.08,0,0,1-2.022,3.875l-.982.311a3.123,3.123,0,0,1-3.915-2l-27.668-85.919H121.522L93.858,186.446a3.122,3.122,0,0,1-3.913,2l-.983-.311a3.08,3.08,0,0,1-2.022-3.875L113.9,100.527H89.868V0H195.1V100.527Z" transform="translate(-86.604 -0.001)" fill="#19191b"/>
    </g>
  </g>
  <rect id="Rectangle_4" data-name="Rectangle 4" width="96.75" height="93.376" transform="translate(54.878 3.256)" fill="#fff"/>
  <g id="Group_4" data-name="Group 4">
    <g id="Group_3" data-name="Group 3" clip-path="url(#clip-path-2)">
      <path id="Path_2" data-name="Path 2" d="M242.727,101.029c-.745-2.479,4.746-9.664,4.906-14.417s-2.748-9.328,2.9-15.6,11.625-2.038,11.625-2.038c5.4-.245,8.43,8.194,9.075,14.025s8.871,11.6,5.879,21.634" transform="translate(-106.173 -29.571)" fill="#19191b"/>
      <path id="Path_3" data-name="Path 3" d="M269.815,213.511,264.509,270l-3.293,2.338-7.032-1.85-3.929-29.664-3.268,29.985c-.974-.1-2.191,2.727-3.765,2.566-2.559-.264-5.7-3.536-7.609-3.7,0-9.043-3.7-57.442-3.7-57.442a26.089,26.089,0,0,1,6.7-13.055,10.57,10.57,0,0,1,5.342-3.164c2.975-.533,5.927.993,8.371,2.775a11.579,11.579,0,0,0,4.253,2.383c3.152.645,6.784-1.746,9.448.064,1.442.981,1.949,2.84,2.3,4.55.463,2.263,1.212,5.427,1.5,7.725" transform="translate(-101.47 -85.717)" fill="#51d6d4"/>
    </g>
  </g>
  <g id="Group_6" data-name="Group 6" transform="translate(11.83 63.518)">
    <g id="Group_5" data-name="Group 5" clip-path="url(#clip-path-3)">
      <path id="Path_4" data-name="Path 4" d="M164.964,115.4c1.928,1.237,5.472-1.294,10.193,4.808a23.743,23.743,0,0,1,3.388,17.132s2.565,35.136,2.332,40.728c0,0-13.141,4.044-22.827,2.58l-.86-9.7s-7.769-4.335-10.509-.8l-.269,10.158s-6.681-.546-8.321-4.9c0,0,.656-21.145,1.652-25.273l-1.157.041s-.873,1.354-.816,1.228-4.729-3.34-3.98-9.325,7.244-15.62,11.762-20.473,19.411-6.207,19.411-6.207M45.244,242.833l-1.22,8.965H20.868c0-6.341,13.194-7.864,13.194-8.965,1.512-1.456,3.949-2.325,5.9-1.577a5.751,5.751,0,0,0,1.741.579c.8.033,1.62-.469,2.379-.2m30.944,1.2c0,1.1,13.194,2.621,13.194,8.965H65.071l-1.22-8.965a5.07,5.07,0,0,1,4.54-2.41c1.6.211,3.041,1.234,4.649,1.222.605,0,1.992.578,1.992,1.188" transform="translate(-20.847 -115.32)" fill="#ec90a7"/>
    </g>
  </g>
  <g id="Group_8" data-name="Group 8">
    <g id="Group_7" data-name="Group 7" clip-path="url(#clip-path-2)">
      <path id="Path_5" data-name="Path 5" d="M107.325,121.064s-12.679,24.709-26.365,17.312l-.247,16.992a18.544,18.544,0,0,0-7.57,6.98s-11.1,2.844-10.937,2.275c.008-.02-1.774,3.2-1.782,3.213s-.269-3.189-.269-3.184c-.224.645-9.776-3.108-9.776-3.108-4.345.259-7.545-6.884-9.965-7.766l.473-21L31.42,114.636c4.7-13.469,8.514-18.37,12.516-20.6a31.936,31.936,0,0,1,11.53-3.443l12.191-.157s10.253.193,14.714,7.837,7.069,22.793,7.069,22.793l11.966-6.708Zm78.34-7.806c-6.512-10.393-14.185-8.369-14.185-8.369.06,0,.115.011.172.019-.352.248-8.09,5.907-8.839,26.216h4.036s.982-19.415,10.225-24.71a13.7,13.7,0,0,1,2.867,2.824,23.077,23.077,0,0,1,3.653,14.989,23.057,23.057,0,0,1,1.9,8.142s-3.2.056-3.2,0-1.053,9.952-4.9,13.568-14.049.269-14.049.269l1.606,15.214s18.887,3.576,26.784-3.32c0,.008,2.539-31.093-6.071-44.843" transform="translate(-13.748 -39.569)" fill="#ff9b30"/>
      <path id="Path_6" data-name="Path 6" d="M41.719,90.591l12.191-.157-5.546,19s-6.644-18.842-6.644-18.842m107.347,28.073s-2.908-4.137-6.356-1.01c0,0-1.353,5.548-2.659,14.065l7.273-.481a93.9,93.9,0,0,1,1.742-12.575m-2,26.72-8.406-2.739c-.509,4.99-.885,10.436-.974,16.059,0,0,6.108,1.951,10.52.8a135.348,135.348,0,0,1-1.141-14.118M11.441,110.923c-1.994-2.646-8.185-3.263-8.185-3.263L0,108.48l11.966,5.346,17.342-3.043-4.269-1.959s-8.227-.52-13.6,2.1M133.506,227.731a8.32,8.32,0,0,1-2.451,1.814c-.765.428-1.609.857-2.434,1.325-2.392,1.353-4.646,3.035-4.49,5.951,3.712,2.014,19.961-.024,19.961-.024l.688-5.867-5.271-3.7c.005,0-3.179.312-6,.5m19.608,1.491a1.772,1.772,0,0,1-.052.188,2.873,2.873,0,0,1-1.2,1.582,2.961,2.961,0,0,1-.669.316c-2.375.781-4.037,2.675-2.648,6.312,0,0,8.6,1.005,13.929-.2l.18-4.365-2.114-3.1c-1.266-4.6-6.027-.957-7.429-.728M173.243,127.94a10.045,10.045,0,0,0-2.006.592c.136.617.256,1.278.344,1.975a10.948,10.948,0,0,1,5.72.365c-.128-.949-.272-1.894-.438-2.833a9.857,9.857,0,0,0-3.619-.1m-6.472-17.753a7.806,7.806,0,0,0,2.494-.461,17.956,17.956,0,0,0-2.646-2.411c-.124.04-.249.076-.377.108a5.218,5.218,0,0,1-1.554.125,16.149,16.149,0,0,1,1.506,1.69q.3.482.577.949m-5.667-2.095a11.923,11.923,0,0,1,1.262-1.053c-1.591-.552-3.176-1.41-4.758-1.9a13.217,13.217,0,0,0-2.022,2.214,10.58,10.58,0,0,1,5.519.737m8.727,11.382a23.487,23.487,0,0,1,.12,2.627,10.05,10.05,0,0,1,5.763.553c-.316-1.214-.673-2.395-1.065-3.529a12.467,12.467,0,0,0-4,.032,6.245,6.245,0,0,0-.817.317m.957,35.635a14.536,14.536,0,0,1-9.564.828,36.009,36.009,0,0,0-5.383-1.465,10.913,10.913,0,0,0-5.274.969l.308,2.9a18.635,18.635,0,0,1,7.8.175c2.511.6,5.046,1.735,7.573,1.21,2.615-.544,4.55-2.74,6.993-3.817a8.8,8.8,0,0,1,4.914-.613c.047-.98.1-2.182.128-3.564a9.831,9.831,0,0,0-1.622.393c-2.082.7-3.873,2.07-5.875,2.98m-1.73-39.621a18.469,18.469,0,0,1,2.74-1.813c.1-.048.2-.084.3-.124-.061-.1-.116-.2-.177-.293-.272-.431-.549-.841-.821-1.233a15.229,15.229,0,0,1-2.627,1.714c.224.593.42,1.173.588,1.75M153.27,129.154c-.107.031-.22.055-.324.091a17.847,17.847,0,0,0-3.829,1.879h3.989c-.005,0,.035-.742.164-1.97m25.047,16.195a12.883,12.883,0,0,0-3.244-.969c-4.8-.557-8.883,4.2-13.713,4.077a13.29,13.29,0,0,1-3.768-.833,28.841,28.841,0,0,1-6.08-.877,8.63,8.63,0,0,0-1.806.529l.285,2.71a9.931,9.931,0,0,1,4.846-.684c3.336.384,6.528,2.466,9.815,1.786,3.12-.645,5.523-3.673,8.707-3.688,1.742-.008,3.32.9,4.966,1.5.012-1.118.012-2.307-.008-3.548M158,112.2a14.192,14.192,0,0,0-5.478.694,37.217,37.217,0,0,0-1.309,3.764,14.306,14.306,0,0,1,5.146-.961A29,29,0,0,1,158,112.2m-4.161,12.852c.184-1.07.413-2.231.7-3.433a10.585,10.585,0,0,0-4.73,1.463c-.152,1-.289,2.05-.4,3.155a13.4,13.4,0,0,1,4.425-1.185ZM175.562,136c-2.167.445-4.081,1.666-6.128,2.5a11.574,11.574,0,0,1-2.27.669c-.212.716-.453,1.442-.726,2.146a12.56,12.56,0,0,0,2.015-.533c2.047-.713,4.041-1.755,6.207-1.839a14.492,14.492,0,0,1,2.9.277c.18.028.364.06.544.088-.068-1.141-.147-2.3-.248-3.468a9.106,9.106,0,0,0-2.291.164" transform="translate(0 -39.569)" fill="#ffcd45"/>
      <path id="Path_7" data-name="Path 7" d="M257.882,81.014s-.337,7.63,3.257,7.409c2.55-.157,4.145,3.945.308,5.067a12.674,12.674,0,0,0,2.311,6.868c-2.759,2.03-6.92,14.189-6.92,14.189-2.811.709-6.356-1.009-6.356-1.009l2.64-8.835.024-5.683c-3.984.26-5.515-3.913-5.4-7.753,0,0-1.41-.237-1.438-1.27s2.655-3.813,2.964-4.3.073-2.824.489-3.866c0,0,5.923,1.463,8.117-.817" transform="translate(-107.772 -35.447)" fill="#fff"/>
      <path id="Path_8" data-name="Path 8" d="M41.518,59.968c-2.322-.516-3.324-4.06-3.324-4.06-2.174-1.086-1.69-4.517-1.69-4.517-2.424-1.061-2.78-4.19-2.78-4.19,3.3-1.013,3.156-5.574,6.228-8.763s6.431-2.026,7.641-.688c3.056-2.363,11.762,3.364,13.581-.268,0,0,3.064,3.375,1.625,7.408a8.281,8.281,0,0,1-1.3,7.153M49.1,116.965v.016c.008-.024.008-.032,0-.016m6.408,16.752s-6.577-16.167-6.413-16.74c-.224.645-7.04,16.525-7.04,16.525-4.346.259-12.972-2.484-15.391-3.365l-1.726,76.9H36.135l10.673-58.826,7.858,58.826H65.86l1.1-75.314c-4.91,2.251-11.445,1.99-11.445,1.99M7.076,111.194l11.05,4.666,16.4-2.84L29.307,87.137,11.966,90.18,0,84.835Zm140.248-3.6-.818-16.64-17.329-.36,1.262,8.275c.312.2-1.17,13.435,9.266,9.23Z" transform="translate(0 -15.923)" fill="#19191b"/>
      <path id="Path_9" data-name="Path 9" d="M56.083,74.244l-5.752,4.329a15.59,15.59,0,0,1-6.44-4.172l-.2-6.98s1.074-.665.969-3.8c-3.612-1.994-3.091-6.487,1.01-5.742a5.453,5.453,0,0,0,6.3-4.446c2.063,3.741,10.512.068,11.622,4.7.573,3.328-1.915,13.716-7.621,13.456ZM5.053,117.467c-.65,1.787,2.574,5.054,4.349,4.722,1.089-.208,2.323-4.681,1.233-5.378,0,0,.258-1.309-.613-1.309,0,0,.465-1.515-.773-1.483-.316-1.518-2.466-1.33-4.2,3.448m90.7-12.595c3.043.068,3.16-3.156,4.333-4.41,2.136-.516,3.04-3.312,1.731-4.746.232-1.08-.041-2.194-1.094-2.471,0,0-.556-1.105-1.554-.989-.517-1.393-2.163-1.521-2.784-1.521s-3.644,2.623-4.4,3.375a21.627,21.627,0,0,0-2.147,4.057m49.753,116.572h7.369l.371-3.176.364-3.1c-2.559-.268-8.294-.865-11.373-1.141a26.816,26.816,0,0,1-.109,2.839,3.291,3.291,0,0,1-.124.645,2.382,2.382,0,0,1-.4.726c2.819-.189,3.9,3.2,3.9,3.2m15.855-2.912a4.508,4.508,0,0,1-.156,1.2,5.416,5.416,0,0,1,6.508,4.2l3.036-.372.184-4.414.2-4.785-10.324.488.544,3.424s.008.092.008.253m-15.138-88.165,1.578-8.11-5.423-1.017a16.959,16.959,0,0,0-.729-4.112c-.569-1.371-2.967-4.3-3.115-4.1s-1.117,1-.112,3.1a11.69,11.69,0,0,0-1.807,1.129,6.879,6.879,0,0,0,1.807,9.011l-.745,3.179s5.2,1.362,8.547.922" transform="translate(-2.174 -23.378)" fill="#fff"/>
      <path id="Path_10" data-name="Path 10" d="M61.981,48.717c.04.556-.228,1.024-.6,1.053s-.7-.4-.74-.957.228-1.025.6-1.053.7.4.741.957m-6.063-.589c-.369.024-.641.5-.6,1.053s.372.985.74.958.642-.5.6-1.053-.373-.981-.741-.957m4,7.845a9.97,9.97,0,0,1-2.042.048,10.039,10.039,0,0,1-1.85-.868,2.364,2.364,0,0,0,2.207,1.5,2.381,2.381,0,0,0,1.686-.682m-2.956,4.274a10.931,10.931,0,0,1-5.013-1.222,12.784,12.784,0,0,1,2.507-4.8c.949-1.006,3.02-1.125,4.822-.5.052-.028.1-.06.152-.088a1.2,1.2,0,0,0,.548-.533,1.341,1.341,0,0,0-.188-.83l-.032-.068a7.183,7.183,0,0,1-.553-3.748,33.521,33.521,0,0,0,1.106,3.508l.028.068a1.789,1.789,0,0,1,.213,1.246,1.425,1.425,0,0,1-.593.729,4.372,4.372,0,0,1,2.383,2.45c-1.266,2.227-3.056,3.889-5.379,3.781m-2.286-2.2a6.677,6.677,0,0,0,4.389.854,3.932,3.932,0,0,0,1.426-2.827c-.152-.813-2.435-1.891-4.1-1.235s-1.714,3.208-1.714,3.208m15.688,52.963.708.408c.5-10.621-1-27.729-1.021-27.9,0,0,.813,16.907.313,27.488m-60.121-8.278a2.106,2.106,0,0,0-.145-.376,7.259,7.259,0,0,0-2.816,3.677c-.024.055-.044.1-.052.112a26.324,26.324,0,0,1,3.012-3.412m.781,1.494a2.306,2.306,0,0,0,.071-.553,9.148,9.148,0,0,0-2.607,4.049,15.843,15.843,0,0,1,2.536-3.5m.6,1.314a17.942,17.942,0,0,1-1.585,3.608,16.459,16.459,0,0,0,1.894-3.184.707.707,0,0,0-.309-.425M63.271,67.66l-1.619,3.549.953,1.057L52.264,84.908,40.487,75.184l.841-1.785a28.591,28.591,0,0,0-2.163-2.171l-.131-.125,2.046-7.228-1.366,7.037a14.585,14.585,0,0,1,1.922,1.845c.552-1.169.581-1.165.785-1.121,0,0-.857,2.675-1.186,3.376l10.953,9.043,9.633-11.778-2.708-3.909,2.111,2.347,1.389-3.047-1.277-3.849Zm-12.416.573-3.511,2.074.368.478Zm4.173,1.858-3.385-1.854,3.157,2.55Zm89.978.965a2.3,2.3,0,0,0,.577.028,1.882,1.882,0,0,0,1.437-.769l-2.979.281a1.863,1.863,0,0,0,.965.461m2.223-9.255a2.4,2.4,0,0,0-1.694-.509l.068.6a1.841,1.841,0,0,1,1.27.4,15.12,15.12,0,0,0,1.465.8,4.43,4.43,0,0,0-1.109-1.281m-.3,2.782c.112-.532-.1-1.032-.489-1.113s-.789.285-.9.818.1,1.033.489,1.114.785-.281.9-.818m-13.6,44.378a28.844,28.844,0,0,0,7.393,2.879,45.286,45.286,0,0,1-7.3-3.528Zm.353-54.73a26.539,26.539,0,0,1-33.7,25.563L98,83.286l-.476-.384c-.75.985-.661,1.755-.361,2.106a.811.811,0,0,0,1.045.128c1.078-.572,1.951-2.86,1.894-4.121l.4-.016c.06,1.377-.837,3.816-2.106,4.49a1.421,1.421,0,0,1-.674.175h0A1.144,1.144,0,0,0,98,86.771c.3.212.809.08,1.434-.372a7.242,7.242,0,0,0,2.235-4.386s.4-.036.392.092a7.536,7.536,0,0,1-2.39,4.613,4.018,4.018,0,0,1-.633.377c-.164.529-.12.981.124,1.165.272.209.773.084,1.377-.337a7.823,7.823,0,0,0,2.239-3.492l.312.324a7.345,7.345,0,0,1-2.322,3.5,3.507,3.507,0,0,1-.653.364.575.575,0,0,0,.261.316c.156.081.668.293.668.293-.175.056-.251.169-.4.169a.981.981,0,0,1-.453-.105,1.01,1.01,0,0,1-.461-.552,1.376,1.376,0,0,1-.24.024.946.946,0,0,1-.569-.177,1.3,1.3,0,0,1-.332-1.337,1.121,1.121,0,0,1-.16.02A3.777,3.777,0,0,1,95.1,89.422h-.032A4.392,4.392,0,0,0,98,87.215a1.169,1.169,0,0,1-.233-.117,1.514,1.514,0,0,1-.44-1.51,1.085,1.085,0,0,1-.469-.325c-.4-.471-.548-1.437.353-2.618,1.073-1.434,1.293-2.844.16-3.257,0,0,.1-.147.26-.376a26.546,26.546,0,1,1,36.057-24.782m-.609.3H109.1a1.707,1.707,0,1,1,0-.6h23.982a25.945,25.945,0,1,0-35.1,24.578c.737-1.074,1.878-2.755,1.875-2.86a12.719,12.719,0,0,1,1.81,1.19l-1.374,2.419a25.937,25.937,0,0,0,32.785-24.725m-21.306,3.291V56.8h-.6v4.017h.6V58.661l.065.032a1.48,1.48,0,0,1,1.726-.721l.188-.569a2.071,2.071,0,0,0-1.978.42M56.622,45.657l.24-.553a2.828,2.828,0,0,0-3.212.745s2.131-.557,2.971-.192m3.72-.749-.032.6a17.987,17.987,0,0,1,2.318.461,3.464,3.464,0,0,0-2.286-1.061M45.737,49.622a3.438,3.438,0,0,0-.637-1.177,1.511,1.511,0,0,0-1.377-.521l.116.589a8.987,8.987,0,0,1,1.9,1.109m112.47,17.013a2.943,2.943,0,0,0-1.7,1.293,6.878,6.878,0,0,1,1.766-.9Z" transform="translate(-3.165 -12.112)" fill="#19191b"/>
    </g>
  </g>
</svg>
