<svg xmlns="http://www.w3.org/2000/svg" xmlns:xlink="http://www.w3.org/1999/xlink" width="220.727" height="200" viewBox="0 0 220.727 200">
  <defs>
    <clipPath id="clip-path">
      <rect id="Rectangle_8" data-name="Rectangle 8" width="194.828" height="200" fill="none"/>
    </clipPath>
    <clipPath id="clip-path-2">
      <rect id="Rectangle_9" data-name="Rectangle 9" width="220.727" height="143.681" fill="none"/>
    </clipPath>
  </defs>
  <g id="image_right" transform="translate(12.949)">
    <g id="Group_11" data-name="Group 11">
      <g id="Group_10" data-name="Group 10" clip-path="url(#clip-path)">
        <path id="Path_11" data-name="Path 11" d="M181.136,203.014a1.766,1.766,0,0,1-1.63,2.443H160.644a1.765,1.765,0,0,1-1.488-2.712l1.415-2.226.1-5.691h5.52v-.441a3.734,3.734,0,0,1,3.108-3.235c2.769-.354,4.808.844,4.808,3.671h5.376l.46,5.3ZM126.079,19.556c.582.041.624.409.624.582,0,1.143-1.809,1.464-1.809,2.777,0,2.539,5.038.946,5.038,3.916,0,1.1-1.419,1.074-1.979,1.074-.5,0-.84-.281-1.313-.281a1.586,1.586,0,0,0-1.7,1.506,1.52,1.52,0,0,0,1.271,1.441h-.023a4.442,4.442,0,0,0,1.833.344c3.292,0,4.954-1.937,4.954-3.832a5.9,5.9,0,0,0-3.7-5.08,4.806,4.806,0,0,0,.386-1.959,3.178,3.178,0,0,0-3.251-3.507c-1.313,0-1.9.817-1.9,1.528a1.591,1.591,0,0,0,1.571,1.492M103.021,54.75h-.368c-.11-2.648-.519-4.842-.56-7.469.064-.687.173-1.55.173-2.345,0-1.937-.536-2.777-3.314-2.777a1.377,1.377,0,0,0-1.488,1.377,1.809,1.809,0,0,0,1.763,1.7c0,1.12-.129,1.913-.129,2.753,0,2.323.386,4.218.538,6.541a2.96,2.96,0,0,0-.451-.023,1.553,1.553,0,0,0-1.681,1.488,1.6,1.6,0,0,0,1.571,1.5c1.29.024,2.539.217,3.834.24a1.629,1.629,0,0,0,1.443-1.506,1.61,1.61,0,0,0-1.332-1.482m18.172,44.217a1.585,1.585,0,0,1,1.585-1.583h.44V94.111s5.078-3.64,17.1-3.64c7.773,0,12.319,2.777,14.66,4.9,2.343-2.125,6.893-4.9,14.662-4.9,12.024,0,17.1,3.64,17.1,3.64v3.273h.8a1.582,1.582,0,0,1,.371,3.121h23.766c-.031-.106-.064-.211-.1-.322-1.055-7.183-6.029-17.671-15.606-32.917a12.085,12.085,0,0,0-2.884-2.882c-.973,1.491-1.993,3.033-2.521,4.094a.913.913,0,0,1-.3.353c-.114,2.166,4.623,9.267,9.66,16.16-7.332,5.912-18.733,3.5-18.733,3.5.1.485-3.985-12.323-4.436-13.339a13.461,13.461,0,0,1-2.934-4.13,18.191,18.191,0,0,1-4.082.505,12.865,12.865,0,0,1-4.183-.657,11.078,11.078,0,0,1-6.644-6.343A27.586,27.586,0,0,1,157.26,53.8a10.319,10.319,0,0,1-.155-4.195,53.394,53.394,0,0,0-5.662.308c-3.733.413-10.8,2.39-13.816,4.74-6.337,4.94-15.107,17.878-21.149,21.072-.1.051-.2.105-.289.16-2.347,1.331-11.815,14.233-8.9,24.61H122.42a1.573,1.573,0,0,1-1.227-1.532m20.465,100.615-.1-5.691h-5.52v-.441a3.735,3.735,0,0,0-3.108-3.235c-2.769-.353-4.808.844-4.808,3.672h-5.376l-.46,5.295-1.2,2.888a1.766,1.766,0,0,0,1.631,2.441h18.861a1.764,1.764,0,0,0,1.488-2.712Z" transform="translate(-32.674 -5.543)" fill="#51d6d4"/>
        <path id="Path_12" data-name="Path 12" d="M167.916,100.646a2.489,2.489,0,0,1,.635,1.726,16.485,16.485,0,0,0-2.526,1.868c-2.341-2.125-6.892-4.9-14.66-4.9-12.021,0-17.1,3.64-17.1,3.64v3.272h-.44a1.583,1.583,0,1,0,0,3.167h-3.063c-1.315-1.781,1.028-9.042,7.176-13.4a30.312,30.312,0,0,1,8.347-3.1,14.758,14.758,0,0,1,1.777-1.831c.573-.506,1.207-1.06,1.882-1.6a4.07,4.07,0,0,1,2.139-.868.761.761,0,0,1,.542-.418c.358-.073.717-.142,1.08-.215l.56.844a6.926,6.926,0,0,1,.679.216s.005,0,.005,0a12.677,12.677,0,0,1,2.466,1.244l.023.015c.17.109.331.22.482.326a.147.147,0,0,0,.038.022c.151.106.293.211.425.312.009.009.02.013.029.023.136.106.265.211.386.308.146.124.292.251.445.386a1.708,1.708,0,0,1,.146.133l.322.293c.06.055.115.11.175.166.106.1.211.2.322.3.06.055.114.115.174.17.115.111.233.229.35.344.049.051.1.1.151.152.151.152.3.3.459.459l.056.055c.371.376.748.771,1.133,1.175.005.005.009.015.018.019,1.277,1.335,2.613,2.786,3.9,4.136l0,0-7.971-12.034c.24-.028.479-.051.717-.061a4.76,4.76,0,0,1,4.436,2.378,35.436,35.436,0,0,1,2.8,6.284c.4,1.082.785,2.179,1.125,3.285a8.334,8.334,0,0,1,.362,1.7m33.4-22.944a.956.956,0,0,0,.3-.353c.964-1.942,3.576-5.48,4.545-7.417,3.632-7.261,3.659-8.922,2.236-9.964-1.507-1.106-2.773.152-4.019,1.11-.362-.384-1.653-.573-2.2-.881a.9.9,0,0,0-.927.106c-2.751,2.13-2.107,5.824-4,8.431-.055.074-.114.148-.169.217-.088-.046-.179-.1-.266-.142.1-.166.187-.331.28-.5q.336-.632.624-1.28c-.506.258-.386.235-.928.027-1.74-.66-.868-3.64-.3-5.512a24.942,24.942,0,0,1,2.191-5.1.593.593,0,0,0-.216-.8,8.982,8.982,0,0,1-3.83-3.727,10.169,10.169,0,0,1-.8-3.978,1.178,1.178,0,0,0-1.506-1.139,4.45,4.45,0,0,1-4.063-.8,5.118,5.118,0,0,1-1.328-1.574,1.174,1.174,0,0,0-1.533-.487,9.477,9.477,0,0,1-6.025.515,8.324,8.324,0,0,1-2.939-1.295.884.884,0,0,0-1.336.358c-1.134,2.626-2.475,5.618-2.86,6.339-.785,1.464-1.942,3.085-2.779,4.667a.823.823,0,0,1-.225-.055c-1.546-.578-1.257-4.324-.7-6.1a25.845,25.845,0,0,1,1.244-3.194c-2.218.588-3.741,3.236-3.476,6.27a6.648,6.648,0,0,0,2.416,4.742,10.451,10.451,0,0,0,.189,8.187,14.215,14.215,0,0,0,1.575,2.464,28.06,28.06,0,0,0,1.482,4.379c2.571,5.8,7.907,6.769,13.1,5.512a6.137,6.137,0,0,0-.431,1.992c-.083,2.226,3.145,5.306,3.145,5.306.449,1.014,4.541,13.824,4.435,13.338,0,0,11.4,2.414,18.734-3.5-5.014-6.9-9.748-14-9.638-16.164" transform="translate(-43.716 -14.411)" fill="#fff"/>
      </g>
    </g>
    <g id="Group_13" data-name="Group 13" transform="translate(-12.949 0.008)">
      <g id="Group_12" data-name="Group 12" clip-path="url(#clip-path-2)">
        <path id="Path_13" data-name="Path 13" d="M25.784,94.194a13.679,13.679,0,0,1,1.243-7.822c1.187-2.217,5.014-4.4,7.479-4.378a7.236,7.236,0,0,1,3.324.925c.131.076.891.629,1.546,1.174a1.6,1.6,0,0,0,2.149-.1c3.688-3.625,7.825-3.584,11.734-.071a13.749,13.749,0,0,1,3.179,3.964,8.867,8.867,0,0,1,.552,1.366c1.015,3.245-.021,6.449-1.181,9.4a19.864,19.864,0,0,1-4.158,7.078c-.173.165-.359.331-.547.482l-6.947.241a5.089,5.089,0,0,0-1.6-.9,2.284,2.284,0,0,0-1.928.594c-.206.151-.421.3-.627.454l-5.665.194c-4.476-2.049-8.087-8.189-8.55-12.6m140.5,17.758a19.252,19.252,0,0,1,6.817,3.721c3.163,2.659,7.509,7.511,11.515,11.73L162.01,93.269a3.377,3.377,0,1,0-5.622,3.743Zm-57.232,16.882v14.622H16.176L15.14,130.227Zm-4.875,3.562-84.164.717.927,6.781h83.237Zm131.178,8.14a2.384,2.384,0,0,0-2.383-2.383h-97.43a2.382,2.382,0,1,0,0,4.764h97.43a2.378,2.378,0,0,0,2.383-2.381M21.916,118.346h4.793l.353-11.3-8.442.29-.745,11.683h3.343a.7.7,0,0,1,.7-.676m97.23-73.676c.774,0,3.335-2.1,4.987-2.1.876,0,1.519.614,1.519,2.493,0,3.237-9.912,4.632-9.912,10.037,0,3.756,4.856,5.573,10.167,5.573,3.337,0,4.828-1.037,4.828-3.335,0-1.36-.807-3.2-2.686-3.2a2.141,2.141,0,0,0-2.107,1.94c-1.195,0-5.469-.359-5.469-1.264.129-1.842,9.813-4.113,9.813-9.941,0-3.625-1.748-6.67-7.225-6.67-2.361,0-6.215,2.361-6.215,4.336a2.255,2.255,0,0,0,2.3,2.14M167.046.752c-.939.941-.843,2.687-.9,3.951-.063,1.587-.159,3.2-.263,4.791a11.548,11.548,0,0,1-1.456.131c-.713,0-1.977-.131-1.977-1.4,0-1.878.421-3.79.421-5.634A2.307,2.307,0,0,0,160.7.035,2.469,2.469,0,0,0,158.4,2.2c-.1,1.617-.386,3.529-.386,5.344,0,3.335,1,6.539,5.926,6.539.517,0,1-.035,1.519-.063a9.173,9.173,0,0,1,.1,1.3c0,1.07-.159,2.105-.159,3.142,0,1.587.386,2.878,2.457,2.878,1.721,0,2.46-1.3,2.46-3.078,0-2.266-.1-4.433-.1-6.575,0-3.595.774-6.345.774-9.582A2.085,2.085,0,0,0,168.884,0a2.945,2.945,0,0,0-1.838.752" transform="translate(-15.122 -0.008)" fill="#ff9b30"/>
      </g>
    </g>
    <g id="Group_15" data-name="Group 15">
      <g id="Group_14" data-name="Group 14" clip-path="url(#clip-path)">
        <path id="Path_14" data-name="Path 14" d="M101.152,228.021H95.84l.467-5.4,18.706-.312-.5,5.715h-5.454v-.44a3.738,3.738,0,0,0-3.108-3.236c-2.769-.353-4.8.85-4.8,3.676m38.064.937v-.44a3.737,3.737,0,0,1,3.108-3.236c2.77-.355,4.808.844,4.808,3.671h5.312l-.551-6.325-18.71-.311.573,6.636h5.46ZM19.62,132.671H74.953v-4.984L19,128.164ZM72.7,118.805a.459.459,0,0,0-.459-.458H20.267a.458.458,0,1,0,0,.917H72.243a.457.457,0,0,0,.459-.459M188.079,144.42a.46.46,0,0,0-.459-.459H17.457a.459.459,0,1,0,0,.918H187.62a.455.455,0,0,0,.459-.459m-28.307-12.906v-3.272s-5.077-3.64-17.1-3.64c-7.774,0-12.319,2.777-14.661,4.9-2.341-2.125-6.892-4.9-14.66-4.9-12.021,0-17.1,3.64-17.1,3.64v3.272Z" transform="translate(-5.698 -39.674)" fill="#ffcd45"/>
        <path id="Path_15" data-name="Path 15" d="M136.351,43.232a.885.885,0,0,1,.482,1.151l-.537,1.308a.883.883,0,0,1-1.635-.669l.536-1.308a.887.887,0,0,1,1.153-.482m2.764-.546a.457.457,0,0,0,.358.174.439.439,0,0,0,.284-.1.465.465,0,0,0,.074-.647,5.6,5.6,0,0,0-5.594-2.29.456.456,0,0,0-.326.555.461.461,0,0,0,.556.331,4.728,4.728,0,0,1,4.647,1.979M110.426,61.66a.458.458,0,0,0-.9-.175l-1.349,6.872.72,1.092Zm-2.309,18.62a7.454,7.454,0,0,1,5.221,1.506c2.511,2.006,10.381,10.221,10.459,10.3a.454.454,0,0,0,.331.142.445.445,0,0,0,.316-.129.456.456,0,0,0,.015-.646c-.327-.34-7.994-8.339-10.548-10.382a8.263,8.263,0,0,0-5.927-1.7.457.457,0,1,0,.133.9m32.136-28.763a.456.456,0,0,0-.354-.542l-.831-.174a1.008,1.008,0,0,1-.835-1.024.988.988,0,0,1,.106-.376l.469-.926a.458.458,0,0,0-.818-.414l-.468.927a1.952,1.952,0,0,0-.2.711,1.918,1.918,0,0,0,1.561,2l.831.174a.591.591,0,0,0,.1.009.459.459,0,0,0,.445-.366m-12.494,6.66a.459.459,0,1,0-.611.684,26.2,26.2,0,0,0,9.284,5.5.411.411,0,0,0,.129.018.459.459,0,0,0,.129-.9,25.747,25.747,0,0,1-8.931-5.305m-1.681-21.787q-.365.77-.675,1.57c-.014.037-.027.078-.041.115-.088.224-.175.455-.253.683-.1.275-.187.546-.275.826-.033.1-.06.205-.092.322-.009.041-.023.082-.031.128-.02.069-.033.142-.051.216s-.027.118-.037.179-.023.11-.033.17c-.014.077-.027.155-.041.233a.231.231,0,0,1,0,.023c-.056.344-.1.706-.124,1.07v.009c-.12,1.648.105,3.368,1.115,3.745a1.421,1.421,0,0,0,.225.055c.582-1.111,1.326-2.236,1.988-3.314.015-.023.033-.05.046-.073.106-.17.2-.335.3-.505.033-.055.064-.11.1-.16.12-.207.238-.413.344-.615.386-.717,1.727-3.713,2.86-6.339a.957.957,0,0,1,.1-.165c.015-.019.027-.031.042-.05a.661.661,0,0,1,.078-.083.431.431,0,0,1,.064-.051.652.652,0,0,1,.074-.049.542.542,0,0,1,.087-.047c.019-.009.037-.013.055-.022a.948.948,0,0,1,.84.11,8.243,8.243,0,0,0,2.938,1.294,9.468,9.468,0,0,0,6.024-.515,1.174,1.174,0,0,1,1.533.487,5.015,5.015,0,0,0,1.328,1.573,4.479,4.479,0,0,0,4.064.8,1.181,1.181,0,0,1,1.506,1.138,9.985,9.985,0,0,0,.8,3.979,8.977,8.977,0,0,0,3.83,3.727.59.59,0,0,1,.215.8,25.023,25.023,0,0,0-2.19,5.1c-.566,1.872-1.437,4.851.3,5.512.5.193.44.22.835.018a6.482,6.482,0,0,1-.748,1.386c-1,1.377-2.76,1.883-4.459,2.374-.211.06-.422.12-.624.183a12.046,12.046,0,0,0-5.359,2.851,7.349,7.349,0,0,0-2.24,4.838c-.091,2.405,3.15,5.521,3.288,5.654a.462.462,0,0,0,.316.129.446.446,0,0,0,.331-.142.457.457,0,0,0-.015-.647c-.858-.816-3.067-3.3-3-4.956a6.4,6.4,0,0,1,1.974-4.223,11.293,11.293,0,0,1,4.968-2.621l.615-.179c1.762-.509,3.765-1.082,4.95-2.717a11.236,11.236,0,0,0,1.566-3.869c.453-1.717.88-3.342,2.341-4.471a.465.465,0,0,1,.422-.068,5.748,5.748,0,0,0,1.052.39,7.269,7.269,0,0,1,.859.3c-.395,1.661-2.571,9.913-7.534,12.543a.46.46,0,0,0-.193.62.456.456,0,0,0,.4.243.439.439,0,0,0,.215-.056c5.52-2.923,7.709-11.836,8.036-13.278.913-.606,2.755-1.537,3.479-1.064.423.275.515,1.139.258,2.423a.46.46,0,0,0,.358.542.529.529,0,0,0,.091.009.463.463,0,0,0,.451-.368c.018-.087.027-.17.041-.253,2.365-2.625,2.839-8.449.827-11.368a10.5,10.5,0,0,0-6.961-17.922,10.5,10.5,0,0,0-16.2-5.857,10.5,10.5,0,0,0-15.914,9.871c-1.364.464-1.552.148-2.668,1.249-2.69,2.658-3.617,7.307-2.069,10.459a4.988,4.988,0,0,1,3.3-3.9m20.878,47.443c-.018,0-.036,0-.055.009-.239.1-.464.193-.675.285a3.846,3.846,0,0,0-2.333,3.415l-.105,3.447c.312.041.615.087.909.132,0-.009,0-.018,0-.031l.106-3.525a2.925,2.925,0,0,1,1.773-2.6c.2-.087.422-.179.653-.276-.084-.275-.18-.564-.277-.858m.615,4.814a34.57,34.57,0,0,0,6.86.707c4.147,0,9.1-.826,13.114-3.91a.458.458,0,0,0-.56-.726C160.5,89.7,151.378,88.5,147.76,87.752a.461.461,0,0,0-.542.358.447.447,0,0,0,.353.536m17.641-8.771c-.444-.041-.913-.068-1.4-.078h-.009a.43.43,0,0,0-.247.083c.193.281.39.564.588.848.334.014.66.033.973.065a2.892,2.892,0,0,1,1.635.735l7.6,6.819a.463.463,0,0,0,.308.12.451.451,0,0,0,.34-.152.456.456,0,0,0-.037-.647l-7.6-6.821a3.753,3.753,0,0,0-2.155-.973M145.06,48.189l-.536,1.308a.883.883,0,1,0,1.635.671l.537-1.308a.884.884,0,0,0-1.635-.671m-5.21,9.523a.461.461,0,0,0-.46-.459h-.037c-2.406,0-3.586-.261-5.514-2.781a.459.459,0,1,0-.731.555c2.067,2.7,3.541,3.143,6.254,3.143a.475.475,0,0,0,.487-.459m9.4-10.515a.459.459,0,0,0,.358.174.438.438,0,0,0,.284-.1.462.462,0,0,0,.074-.646,5.59,5.59,0,0,0-5.592-2.29.458.458,0,0,0,.229.886,4.711,4.711,0,0,1,4.647,1.978M106.762,80.34l.909-4.625-.721-1.09-1.286,6.546c.183-.156.367-.312.56-.463a3.511,3.511,0,0,1,.537-.368M141.1,197.423a.491.491,0,1,0,0-.983h-6.571a.491.491,0,1,0,0,.983Zm-4.013,1.844c-5.587,0-9.45,5.27-9.615,5.495a.492.492,0,0,0,.111.684.481.481,0,0,0,.285.091.491.491,0,0,0,.4-.2c.037-.049,3.737-5.085,8.817-5.085,5.1,0,9.5,5.031,9.545,5.081a.492.492,0,0,0,.744-.644c-.189-.215-4.724-5.42-10.285-5.42m23.9-80.236a60.483,60.483,0,0,0-8.9-8.192H85.342a60.956,60.956,0,0,0-8.938,8.192l.037.031a10.76,10.76,0,0,0-2.264,9.515l14.532,60.029,21.034-.349s-4.839-33-8.4-55.917L118.8,128.6l17.324,3.727c-3.812,22.912-9.817,55.925-9.817,55.925l20.933.349L163.2,128.577a10.81,10.81,0,0,0-2.251-9.515Zm29.2-18.441H14.812l-.505-8.454-1.942.027.505,8.422H4.637a4.636,4.636,0,1,0,0,9.272h82a.856.856,0,0,1-.072.055h64.309l-.069-.055h39.386a4.633,4.633,0,1,0,0-9.267m-87.841,95.9a.491.491,0,0,0,0-.983H95.779a.491.491,0,1,0,0,.983Zm70.264,9.143h9.113l-.2-94.795h-9.017ZM81,84.484a.453.453,0,0,0,.327-.138c.041-.046,4.389-4.435,8.691-5.417,4.276-.977,13.183,3.5,13.274,3.549a.458.458,0,0,0,.413-.817c-.377-.193-9.3-4.673-13.894-3.626-4.564,1.042-8.957,5.48-9.141,5.669a.456.456,0,0,0,0,.646.464.464,0,0,0,.326.134M26.7,62.638a7.905,7.905,0,0,0-2.039.431.459.459,0,1,0,.326.858c.024-.009,2.488-.923,3.93.077a.456.456,0,0,0,.639-.115.46.46,0,0,0-.115-.637,3.694,3.694,0,0,0-1.768-.6,13.93,13.93,0,0,0,.235-1.785,9.216,9.216,0,0,0-1.842-6.642,1.012,1.012,0,1,0-1.46,1.4c1.855,1.735,2.264,4.554,2.095,7.019M67,84.754H70.24l-.5-9.747L17.99,76.8,17.755,84.3H66.54a.451.451,0,0,1,.46.449m38.844.955c.065.019,6.383,2.061,10.1,6.16a.461.461,0,0,0,.34.152.436.436,0,0,0,.308-.12.458.458,0,0,0,.033-.647c-3.88-4.286-10.23-6.333-10.5-6.416a.454.454,0,0,0-.574.3.449.449,0,0,0,.293.573M99.793,198.331c-5.561,0-10.1,5.2-10.29,5.424a.492.492,0,0,0,.744.644c.046-.051,4.436-5.081,9.546-5.081,5.077,0,8.779,5.035,8.82,5.085a.492.492,0,0,0,.4.2.5.5,0,0,0,.285-.092.487.487,0,0,0,.111-.683c-.162-.231-4.028-5.5-9.615-5.5M65.934,91.369l.565-6.151H14.62l.775,6.9ZM12,205.629h9.113l-.187-94.795H11.91Z" transform="translate(0 -5.629)" fill="#19191b"/>
      </g>
    </g>
  </g>
</svg>
