<svg id="image_przygotuję" xmlns="http://www.w3.org/2000/svg" xmlns:xlink="http://www.w3.org/1999/xlink" width="400" height="330.955" viewBox="0 0 400 330.955">
  <defs>
    <clipPath id="clip-path">
      <rect id="Rectangle_25" data-name="Rectangle 25" width="276.113" height="193.75" transform="translate(48.851 137.205)" fill="none"/>
    </clipPath>
    <clipPath id="clip-path-2">
      <rect id="Rectangle_27" data-name="Rectangle 27" width="400" height="330.955" fill="none"/>
    </clipPath>
  </defs>
  <g id="Group_41" data-name="Group 41">
    <g id="Group_40" data-name="Group 40" clip-path="url(#clip-path)">
      <path id="Path_98" data-name="Path 98" d="M108.955,231.047s.933,16.426.793,18.339c-.326,4.48-.186,17.826-.373,22.352-.607,12.553-3.36,32.945-4.713,45.918-.373,3.593-.7,9.239-.84,12.693a2.26,2.26,0,0,1-.047.56H275.127c.373-4.853.466-14,.606-16.426.794-12.273.047-28.559.047-34.2,0-7.093.14-14.466.653-19.086.513-4.573,2.1-14.932,2.1-14.932s3.313,13.672,3.36,13.859c1.446,3.36,1.446,6.813,3.5,9.893,1.4,2.146,8.4,2.52,8.4,2.52l-5.506-13.3s10.639-13.952,19.272-16.846c2.287-.746,4.9-.7,7.047-1.913a14.366,14.366,0,0,1,3.359-1.073s1.914-5.646,3.034-8.54c3.733-9.659,5.973-20.485,1.166-30.1-10.033-20.112-29.538-33.038-48.344-43.771-8.446-4.807-18.106-9.24-27.532-11.62-5.833-1.446-9.8-2.8-15.726-3.873-2.1-.373-7.419-4.339-7.419-4.339s-7.233,7.092-9.007,8.772a50.623,50.623,0,0,1-14.046,9.987c-10.032,4.619-20.859,2.426-30.238-2.707-5.133-2.8-14.513-11.339-14.513-11.339s-13.579,3.313-20.159,4.433-16.892,2.286-24.5,5.086c-11.9,4.433-23.426,12.879-32.619,15.866A120.758,120.758,0,0,1,62.8,171.223l-1.68,6.44a80.861,80.861,0,0,1,4.2,11.2c.933,3.966,1.167,7.886,1.866,11.9,1.074,5.74,4.34,24.079,4.34,24.079L48.991,235.9a45.305,45.305,0,0,0,4.993,7.373,8.033,8.033,0,0,0,5.647,2.987c11.059.746,26.505-5.413,36.958-8.54,3.173-.887,12.366-6.673,12.366-6.673" fill="#51d6d4" fill-rule="evenodd"/>
    </g>
  </g>
  <g id="Group_43" data-name="Group 43">
    <g id="Group_42" data-name="Group 42" clip-path="url(#clip-path-2)">
      <path id="Path_99" data-name="Path 99" d="M60.8,177.383s3.5-12.786,5.46-18.432c2.893-8.353,5.226-14.84,9.473-22.633,1.726-3.126,5.039-5.973,7.839-8.306,4.573-3.826,9.52-2.24,15.446-3.033,5.413-.7,11.526-3.267,13.3-3.36,3.734-.187,9.38.047,11.433-1.726a4.314,4.314,0,0,0,1.773-3.827,22.139,22.139,0,0,0-.746-3.266,9.354,9.354,0,0,0,3.686-4.34c1.167-3.36-2.053-5.88-2.053-5.88s2.94-3.686,3.127-5.833c.233-3.126-4.434-5.786-4.434-5.786a13,13,0,0,0,3.547-3.593c.7-1.167.98-3.127.607-3.687-1.774-2.753-6.02-3.5-9.567-4.666-4.106-1.354-8.166-3.08-12.226-3.314-2.473-.14-11.012,1.914-11.012,1.914a32.161,32.161,0,0,1-.28-4.433,59.214,59.214,0,0,1,.653-6.067c.28-3.033,1.306-9.566-.467-15.119-.746-2.333-2.893-6.113-5.786-5.506-2.52.513-1.4,9.006-2.1,12.506-1.353,6.673-4.807,13.439-7.933,19.972-2.613,5.413-4.76,10.639-7.466,15.539C67.8,104.12,60.1,110.886,53.144,120.079c-7.98,10.546-15.726,21.839-18.712,26.272-5.647,8.26-13.16,19.879-18.013,29.445-5.086,9.987-12.039,22.679-14.372,34.392C1.067,215.041-.193,219.054.833,224c.654,2.986.747,6.533,2.474,9.006,1.679,2.473,2.986,4.433,5.646,6.066,11.153,6.813,28.7,1.027,39.571-3.033,7.42-2.8,22.959-11.059,22.959-11.059s1.12-6.393,1.68-12.46a65.349,65.349,0,0,0-.467-15.959,30.83,30.83,0,0,0-3.639-9.753c-1.82-3.5-8.26-9.426-8.26-9.426" fill="#fff" fill-rule="evenodd"/>
      <path id="Path_100" data-name="Path 100" d="M155.813,140.781a16.089,16.089,0,0,0,6.113-7.653,34.567,34.567,0,0,0,2.24-10.173,94.594,94.594,0,0,0-.047-11.339,65.067,65.067,0,0,1-5.693-9.053c-1.586-3.5-3.64-13.579-3.64-13.579s-3.453,0-5.413-1.68a17.174,17.174,0,0,1-6.159-10.173,14.82,14.82,0,0,1,.513-6.673c.84-2.193,1.68-3.547,3.873-4.387,1.913-.7,4.2-.466,5.366-2.053,6.44-8.819,10.267-18.712,18.853-25.758a68.711,68.711,0,0,1,11.2-7.653C198.7,22.254,226,19.641,234.769,38.96a34.444,34.444,0,0,1,2.38,17.872c-.607,4.713-1.727,17.359-1.727,17.359s4.153,1.167,5.32,2.987c1.867,2.986.42,6.533-.047,9.939-.466,3.5-4.2,7.233-7.513,8.96a11.65,11.65,0,0,1-5.833,1.4s-2.193,4.573-3.5,6.813a37.941,37.941,0,0,1-4.714,6.206s-.979,12.553.094,16.846c.933,3.826,5.506,8.213,5.506,8.213s-4.9,6.766-6.626,8.633c-7.98,8.819-19.366,13.626-30.939,14.979-5.973.7-13.906-1.26-19.179-4.527-6.253-3.966-12.179-13.859-12.179-13.859" fill="#fff" fill-rule="evenodd"/>
      <path id="Path_101" data-name="Path 101" d="M287.632,259.839s3.966,8.866,6.813,13.953a69.445,69.445,0,0,0,10.313,13.346,61.851,61.851,0,0,0,9.006,6.953c4.106,2.1,6.02,3.5,10.733,3.033a19.777,19.777,0,0,0,8.4-3.173c8.82-6.02,14.046-14,18.386-23.426,4.62-10.079,5.6-21.745,6.44-33.831.56-8.027,1.4-16.52,2.286-23.753,1.12-9.239,2.427-18.945,4.387-28.138.746-3.593,1.633-8.026,5.18-11.526,6.533-6.44,16.845-11.106,20.159-19.366,1.073-2.66-3.174-8.306-3.174-8.306a20.146,20.146,0,0,0,.56-5.46,11.6,11.6,0,0,0-.606-2.753s1.633-3.127,2.24-4.48a6.353,6.353,0,0,0,.513-4.433s6.533-4.2,6.533-6.766c0-2.24-6.113-4.62-7.28-4.573-5.46.233-8.819,1.306-14.279,1.306-1.447,0-5.833.653-7,1.54-2.286,1.727-3.36,8.166-4.153,10.453-2.66,7.979-5.833,15.772-9.146,23.519-4.246,9.939-7.84,20.065-11.339,30.285-2.614,7.653-4.387,16.519-8.913,23.332-2.893,4.386-9.8,11.853-9.8,11.853s-1.586,7.046-2.66,10.733c-.653,2.193-3.22,9.052-3.22,9.052s-5.366-.42-6.439-.28a20.4,20.4,0,0,0-8.586,4.014c-2.847,2.1-7.7,7.372-11.153,11.339-1.353,1.633-4.2,5.553-4.2,5.553" fill="#fff" fill-rule="evenodd"/>
      <path id="Path_102" data-name="Path 102" d="M276.666,12.984,400,49.1l-20.486,68.457a38.746,38.746,0,0,1-4.573.933c-3.593.513-7.28.187-7.84,2.427s1.26,3.313,3.594,4.339A25.271,25.271,0,0,0,379,126.892s-4.153,1.4-7.56,2.566c-4.666,1.587-9.053,3.22-9.893,5.04-.653,1.4,1.354,3.36,4.153,4.153a26.417,26.417,0,0,0,7.653.607s-2.939,1.773-6.066,3.546c-2.94,1.68-5.973,3.267-6.72,5.086-1.866,4.62,4.434,5.134,4.434,5.134s-2.007,2.379-1.4,4.013c.56,1.633,3.733,2.473,3.733,2.473l-19.646,67.383L224.822,191.475Z" fill="#ffcd45" stroke="#161616" stroke-width="2" fill-rule="evenodd"/>
      <path id="Path_103" data-name="Path 103" d="M194.117,100.807s-1.913-.093-4.246-.187c-1.307-.046-5.274-.56-6.533-.793-.607-.093-3.174-.7-3.174-.7s.42,3.733.887,4.48a11.778,11.778,0,0,0,2.66,2.846c2.613,2.007,6.813.514,8.4-1.12a9.8,9.8,0,0,0,2.007-4.526" fill-rule="evenodd"/>
      <path id="Path_104" data-name="Path 104" d="M149.179,66.508c-1.26-4.526-1.54-18.712-.84-25.525a48.935,48.935,0,0,1,3.547-14.28,49.956,49.956,0,0,1,10.126-14.979C169.431,4.025,181.8.338,192.25.525,199.016.665,203.87,3,209.936,5c4.993,1.68,9.986,2.66,14.886,4.294,7,2.333,12.693,8.259,15.4,14.885,5.553,13.673,2.66,25.386-.56,38.872-.793,3.406-4.48,13.626-4.48,13.626a7.01,7.01,0,0,1-6.066-3.733c-3.033-5.647-4.666-9.52-5.506-15.166-2.334-16.006-6.58-11.62-18.433-9.566-10.966,1.913-15.119-1.587-24.965-2.427s-17.033,8.633-20.766,14.839c-3.686,6.253-9.333,9.24-10.266,5.88" fill="#1c1c1c" fill-rule="evenodd"/>
      <path id="Path_105" data-name="Path 105" d="M364.815,183.916a.28.28,0,0,1-.187-.047.722.722,0,0,1-.513-.886c2.287-8.96,5.786-11.433,11.106-15.26l1.54-1.119c6.206-4.48,12.739-10.873,12.366-14.28a9.093,9.093,0,0,0-3.406-6.206,3.348,3.348,0,0,0-2.614-.7,21.049,21.049,0,0,0-5.739,2.753c-1.307.793-2.8,1.68-4.573,2.613-1.494.794-2.894,1.354-4.154,1.914-3.033,1.26-4.619,2.006-4.479,3.406a2.065,2.065,0,0,0,1.213,1.773c3.78,1.96,14.373-1.96,16.472-3.126a.721.721,0,1,1,.7,1.26c-1.959,1.073-13.206,5.553-17.825,3.173a3.417,3.417,0,0,1-1.96-2.893c-.28-2.567,2.193-3.593,5.32-4.9,1.213-.513,2.613-1.073,4.059-1.82,1.774-.933,3.22-1.82,4.527-2.566a22.186,22.186,0,0,1,6.159-2.94,4.7,4.7,0,0,1,3.78.933,10.558,10.558,0,0,1,4.013,7.233c.56,5.506-10.686,13.953-12.972,15.586l-1.54,1.12c-5.273,3.733-8.446,5.973-10.546,14.419a.846.846,0,0,1-.747.56" fill="#020202"/>
      <path id="Path_106" data-name="Path 106" d="M364.815,153.537a5.556,5.556,0,0,1-4.433-1.727,3.885,3.885,0,0,1-.373-4.2c.98-2.147,3.546-3.5,7.093-5.367,1.773-.933,3.779-2.006,5.926-3.36,2.1-1.306,9.193-5.459,12.879-2.893,2.007,1.4,2.52,4.527,1.494,9.193a.714.714,0,0,1-1.4-.28c.886-4.013.56-6.673-.887-7.7-2.333-1.633-7.326.42-11.246,2.894-2.193,1.4-4.2,2.473-6.02,3.453-3.266,1.773-5.646,3.033-6.439,4.713a2.548,2.548,0,0,0,.186,2.706c.933,1.167,3.08,1.494,5.693.887a.672.672,0,0,1,.84.56.682.682,0,0,1-.56.84,15.249,15.249,0,0,1-2.753.28"/>
      <path id="Path_107" data-name="Path 107" d="M369.015,139.818c-4.106,0-7-1.493-7.886-3.5a3.015,3.015,0,0,1,1.353-3.966c2.613-1.587,8.446-3.407,12.833-4.667,4.246-1.213,11.759-2.753,14.092.467,1.354,1.913.7,4.806-2.1,8.866a.705.705,0,1,1-1.166-.793c2.333-3.407,3.033-5.927,2.1-7.233-1.307-1.82-5.973-1.773-12.506.047-6.207,1.773-10.5,3.313-12.506,4.479a1.623,1.623,0,0,0-.84,2.147c.933,2.053,5.6,3.92,12.879,1.586a.709.709,0,1,1,.42,1.354,20.47,20.47,0,0,1-6.673,1.213"/>
      <path id="Path_108" data-name="Path 108" d="M389.127,129.132a.72.72,0,0,1-.42-1.307c1.307-.886,2.893-1.96,4.713-3.313,1.213-.886,1.633-1.866,1.307-2.893-.607-1.913-3.5-3.593-6.487-3.686a38.541,38.541,0,0,0-9.006.793,82.847,82.847,0,0,1-9.239,1.166c-1.167.094-2.007.467-2.24,1.027a1.794,1.794,0,0,0,.513,1.773c1.493,1.867,6.72,4.573,16.659,2.567a.727.727,0,0,1,.84.56.7.7,0,0,1-.56.84c-9.893,1.96-15.912-.42-18.059-3.08a3.176,3.176,0,0,1-.7-3.267c.28-.653,1.073-1.726,3.453-1.913,3.967-.28,6.673-.746,9.1-1.12a40.255,40.255,0,0,1,9.333-.793c3.593.14,7.046,2.193,7.839,4.713.28.933.467,2.8-1.82,4.48-1.82,1.353-3.453,2.473-4.806,3.36a1.381,1.381,0,0,1-.42.093"/>
      <path id="Path_109" data-name="Path 109" d="M42.225,221.527a.971.971,0,0,1-.513-.187.732.732,0,0,1,0-1.026c8.353-8.54,14.839-30.845,20.065-48.764,2.334-8.073,4.573-15.726,6.673-21.186,6.393-16.566,9.473-18.992,13.813-22.352.373-.28.7-.56,1.073-.84,3.64-2.893,7.653-2.94,11.246-2.94A22.949,22.949,0,0,0,98.689,124c2.38-.374,4.76-.98,7.093-1.54,2.1-.514,4.293-1.027,6.439-1.4,1.12-.187,2.427-.28,3.827-.374,3.126-.233,6.673-.466,7.746-2.053.98-1.446,1.353-2.66,1.12-3.453a1.975,1.975,0,0,0-1.073-1.167,7.563,7.563,0,0,0-3.78-.653c-.56,0-1.12,0-1.773-.046l-.56-.047a32.288,32.288,0,0,1-8.166-1.307.77.77,0,0,1-.467-.933.74.74,0,0,1,.887-.467,32.123,32.123,0,0,0,7.793,1.214l.559.046c.607.047,1.12.047,1.68.047a9.16,9.16,0,0,1,4.434.793,3.149,3.149,0,0,1,1.819,2.053c.327,1.26-.093,2.754-1.306,4.62-1.447,2.193-5.227,2.473-8.866,2.707-1.354.093-2.614.186-3.687.373-2.146.373-4.293.887-6.346,1.4-2.333.56-4.76,1.167-7.187,1.54a26.231,26.231,0,0,1-4.339.233c-3.5,0-7.093.047-10.313,2.613-.373.327-.747.607-1.12.887C79,132.3,76.01,134.638,69.757,150.831c-2.1,5.413-4.293,13.019-6.673,21.092-5.553,18.992-11.853,40.551-20.439,49.371a.437.437,0,0,1-.42.233"/>
      <path id="Path_110" data-name="Path 110" d="M124.307,113.313a.729.729,0,0,1-.7-.373.712.712,0,0,1,.327-.98,6.846,6.846,0,0,0,3.966-6.02,2.806,2.806,0,0,0-1.633-2.66,23.56,23.56,0,0,0-7.56-1.306,23.792,23.792,0,0,1-8.259-1.54.72.72,0,0,1-.374-.934.7.7,0,0,1,.934-.373c2.38,1.073,4.993,1.213,7.793,1.4a26.147,26.147,0,0,1,8.026,1.4,4.164,4.164,0,0,1,2.52,3.92,8.276,8.276,0,0,1-4.76,7.373.344.344,0,0,1-.28.093" fill="#5b2714"/>
      <path id="Path_111" data-name="Path 111" d="M125.8,103.28a.7.7,0,0,1-.653-.467.724.724,0,0,1,.42-.933,4.876,4.876,0,0,0,3.08-4.153,4.713,4.713,0,0,0-1.494-4.386,10.556,10.556,0,0,0-4.34-1.587,23.637,23.637,0,0,1-4.2-1.12A25.027,25.027,0,0,1,115.255,89c-2.053-1.167-3.64-2.053-6.16-1.54a.714.714,0,1,1-.28-1.4c3.033-.607,5.04.513,7.14,1.726a19.51,19.51,0,0,0,3.126,1.54,19.991,19.991,0,0,0,3.967,1.027,11.406,11.406,0,0,1,4.9,1.82A6.172,6.172,0,0,1,130,97.914a6.412,6.412,0,0,1-3.967,5.273c-.046.093-.14.093-.233.093" fill="#5b2714"/>
      <path id="Path_112" data-name="Path 112" d="M124.4,91.8a.7.7,0,0,1-.653-.42.754.754,0,0,1,.326-.98c.047,0,3.08-1.493,4.107-3.593a2.815,2.815,0,0,0,.186-2.567c-1.073-2.379-5.646-3.639-7.559-4.2-1.353-.374-2.707-.84-4.06-1.354-3.406-1.213-6.953-2.426-10.546-2.1a57.707,57.707,0,0,0-7.42,1.354,57.84,57.84,0,0,1-6.533,1.26c-.42.046-.886.14-1.353.233a10.218,10.218,0,0,1-3.78.233.732.732,0,0,1,.234-1.446,11.558,11.558,0,0,0,3.313-.234c.466-.093.933-.186,1.4-.233,2.146-.28,4.293-.793,6.393-1.26a57.69,57.69,0,0,1,7.606-1.4c3.873-.373,7.56.933,11.153,2.193,1.306.467,2.66.934,3.966,1.307,3.547.98,7.326,2.38,8.493,5.04a4.355,4.355,0,0,1-.233,3.78c-1.307,2.566-4.667,4.2-4.807,4.246,0,.093-.093.14-.233.14"/>
      <path id="Path_113" data-name="Path 113" d="M21.086,242.713c-7.933,0-13.906-2.567-17.406-7.56-6.626-9.472-4.246-27.018,6.673-49.417,11.993-24.592,21.7-37.8,30.239-49.464,2.38-3.267,4.666-6.393,6.859-9.566a197.06,197.06,0,0,1,14.14-18.246c2.426-2.847,4.759-5.553,7.233-8.913a71.163,71.163,0,0,0,8.4-15.259c1.167-2.66,2.38-5.367,3.873-8.12a91.735,91.735,0,0,0,5.18-11.479,29.364,29.364,0,0,0,1.773-8.633c0-.56.047-1.26.047-2.053.047-4.434.14-7.42,1.54-7.98a3.8,3.8,0,0,1,3.733.28c3.453,2.24,4.62,9.753,4.666,11.666.047,3.546-1.213,13.439-1.26,13.859a21.337,21.337,0,0,0,.374,5.32.708.708,0,1,1-1.353.42,24.861,24.861,0,0,1-.42-5.88c0-.186,1.306-10.266,1.259-13.719-.046-2.193-1.306-8.726-4.013-10.453a2.4,2.4,0,0,0-2.38-.186c-.606.513-.653,4.806-.653,6.673,0,.793,0,1.539-.046,2.1a29.313,29.313,0,0,1-1.867,9.053A88.876,88.876,0,0,1,82.4,76.868c-1.493,2.707-2.66,5.413-3.827,8.026a73.972,73.972,0,0,1-8.586,15.493c-2.52,3.406-4.853,6.113-7.326,9.006A192.054,192.054,0,0,0,48.618,127.5c-2.193,3.173-4.48,6.3-6.906,9.613-8.493,11.619-18.106,24.732-30.1,49.231C.927,208.228-1.5,225.261,4.8,234.267c3.827,5.506,10.686,7.746,20.392,6.719,15.82-1.679,31.452-9.052,45.965-16.845a.721.721,0,1,1,.7,1.26c-14.653,7.839-30.425,15.3-46.478,16.985a27.768,27.768,0,0,1-4.293.327"/>
      <path id="Path_114" data-name="Path 114" d="M73.77,72.388h-.14a.768.768,0,0,1-.56-.84c0-.047,1.353-6.066-2.473-7.653-5.04-2.1-15.4.093-18.806.793-1.586.327-1.68.374-2.006.047a.835.835,0,0,1-.187-.653c.093-.42.187-.467,1.493-1.027,9.24-3.966,14.233-7.653,14.793-10.919.933-5.227-6.767-12.32-9.286-14.653-1.074-.98-1.214-1.12-1.214-1.493a.749.749,0,0,1,.234-.513c.326-.327.513-.28,1.773.186,10.5,3.687,17.779,4.2,21.7,1.493,3.733-2.613,5.366-11.292,4.386-23.845-.046-.56-.046-.747.187-.98a.771.771,0,0,1,.56-.233c.513,0,.56.186,1.12,1.68,4.06,11.479,8.213,17.825,12.272,18.9,3.174.84,7.513-1.074,12.833-5.787.467-.42.607-.56.793-.606a.714.714,0,0,1,.84.186c.374.467.094.794-.326,1.4-4.013,5.46-6.3,10.406-6.767,14.7-.466,4.386,5.367,6.579,5.413,6.626a.723.723,0,0,1-.513,1.353c-.28-.093-6.953-2.613-6.393-8.119.373-3.594,1.913-7.513,4.573-11.807-2.94,2.147-7.139,4.434-10.873,3.407-5.6-1.493-9.846-10.779-12.086-16.566.234,7.653-.466,17.546-5.226,20.859-5.646,3.92-15.773,1.12-21-.653,3.453,3.313,9.286,9.473,8.4,14.7-.747,4.153-6.673,7.746-11.293,10.033,4.76-.793,11.2-1.493,15.166.187,4.946,2.053,3.36,9.006,3.313,9.332a.786.786,0,0,1-.7.467" fill="#ec90a7"/>
      <path id="Path_115" data-name="Path 115" d="M152.819,91.38h-.093c-8.167-.84-11.946-10.172-11.526-16.565a8.469,8.469,0,0,1,3.733-6.859,7.06,7.06,0,0,1,6.019-.934.723.723,0,1,1-.513,1.353,5.486,5.486,0,0,0-4.713.794,7.178,7.178,0,0,0-3.08,5.739c-.373,5.834,2.987,14.28,10.266,15.026a.732.732,0,0,1,.654.793.755.755,0,0,1-.747.653"/>
      <path id="Path_116" data-name="Path 116" d="M227.575,99.967a5.036,5.036,0,0,1-.84-.047.732.732,0,1,1,.233-1.446c3.78.56,10.593-4.713,12.18-10.686,1.026-3.78.84-6.673-.467-8.4-1.027-1.353-2.846-2.1-5.32-2.1a.729.729,0,0,1-.7-.746.717.717,0,0,1,.7-.7c2.987.046,5.133.933,6.487,2.659q2.449,3.221.7,9.66c-1.634,5.973-8.167,11.806-12.973,11.806"/>
      <path id="Path_117" data-name="Path 117" d="M150.813,80.368a.68.68,0,0,1-.607-.327,21.885,21.885,0,0,0-1.96-2.52.733.733,0,1,1,.887-1.166A21.812,21.812,0,0,1,151.42,79.2a.683.683,0,0,1-.187.98.571.571,0,0,1-.42.187"/>
      <path id="Path_118" data-name="Path 118" d="M189.777,88.581a.665.665,0,0,1-.56-.28c-2.007-2.52-1.96-4.48-1.867-5.18a4.938,4.938,0,0,1,1.727-2.846,4.93,4.93,0,0,0,1.773-4.713.727.727,0,1,1,1.447-.14A6.236,6.236,0,0,1,190.1,81.3a3.694,3.694,0,0,0-1.307,2.054c-.047.42-.14,1.959,1.587,4.106a.785.785,0,0,1-.094,1.027,3.1,3.1,0,0,1-.513.093" fill="#5b2714"/>
      <path id="Path_119" data-name="Path 119" d="M180.724,99.686c.093,1.68.793,6.3,5.6,7.187,5.086.933,6.953-3.92,7.466-5.647-1.213,0-4.013-.093-6.673-.373-2.707-.373-5.273-.933-6.393-1.167m6.813,8.26a7.915,7.915,0,0,1-1.4-.14c-6.58-1.167-6.393-8.68-6.393-8.773a.572.572,0,0,1,.187-.373.476.476,0,0,1,.42-.094,66.236,66.236,0,0,0,6.859,1.26,62.216,62.216,0,0,0,7.187.374.423.423,0,0,1,.373.186.448.448,0,0,1,.093.42c-.046.094-1.586,7.14-7.326,7.14"/>
      <path id="Path_120" data-name="Path 120" d="M178.9,58.9a.755.755,0,0,1-.42-.14,10.008,10.008,0,0,0-9.519-.233.713.713,0,0,1-.747-1.214c2.893-1.819,8.166-1.679,11.106.28a.691.691,0,0,1,.187.98.68.68,0,0,1-.607.327"/>
      <path id="Path_121" data-name="Path 121" d="M217.216,65.295a.7.7,0,0,1-.513-.187,10.114,10.114,0,0,0-9.1-2.333.708.708,0,0,1-.42-1.353,11.633,11.633,0,0,1,10.5,2.66.732.732,0,0,1,0,1.026.542.542,0,0,1-.467.187"/>
      <path id="Path_122" data-name="Path 122" d="M148.759,62.775a.67.67,0,0,1-.7-.607c-4.853-33.365,9.1-57.63,35.465-61.737,2.66-.419,14.792-1.353,21.092,2.194a.75.75,0,0,1,.28.98.752.752,0,0,1-.98.28c-5.88-3.314-17.546-2.427-20.159-2.007-25.572,4.013-39.011,27.579-34.3,60.1a.8.8,0,0,1-.607.84c0-.047-.046-.047-.093-.047"/>
      <path id="Path_123" data-name="Path 123" d="M236.768,72.388a.588.588,0,0,1-.28-.047.725.725,0,0,1-.42-.933c10.453-27.625,6.346-43.164,1.073-51.331A25.59,25.59,0,0,0,216.982,8.318a.727.727,0,0,1-.7-.747.718.718,0,0,1,.747-.653,26.944,26.944,0,0,1,21.279,12.413c5.46,8.446,9.753,24.452-.933,52.59a.605.605,0,0,1-.607.467"/>
      <path id="Path_124" data-name="Path 124" d="M205.69,48.5a.718.718,0,0,1-.7-.7.761.761,0,0,1,.7-.747c8.493-.186,16.379-7.793,18.806-14.746a.724.724,0,0,1,1.353.514c-2.24,6.393-9.94,15.492-20.159,15.679"/>
      <path id="Path_125" data-name="Path 125" d="M181.424,49.336a.707.707,0,0,1-.7-.607.724.724,0,0,1,.607-.793A31.8,31.8,0,0,0,204.8,32.21a.721.721,0,0,1,1.26.7,33.253,33.253,0,0,1-24.546,16.473c-.046-.047-.046-.047-.093-.047"/>
      <path id="Path_126" data-name="Path 126" d="M158.7,57.735a.7.7,0,0,1-.653-.42.754.754,0,0,1,.326-.98c5.787-2.8,11.433-9.379,15.026-17.592a.711.711,0,1,1,1.307.56c-3.733,8.539-9.613,15.4-15.726,18.339a.507.507,0,0,1-.28.093"/>
      <path id="Path_127" data-name="Path 127" d="M229.115,69.028a.886.886,0,0,1-.373-.093c-5.04-3.033-6.253-12.6-5.88-18.339a.727.727,0,1,1,1.447.14c-.374,5.553.933,14.466,5.179,16.985a.7.7,0,0,1,.234.98.592.592,0,0,1-.607.327"/>
      <path id="Path_128" data-name="Path 128" d="M206.623,77.8a3.085,3.085,0,0,1,3.406-2.66,3.041,3.041,0,0,1,1.96,3.827,3.085,3.085,0,0,1-3.406,2.659c-1.447-.326-2.333-2.053-1.96-3.826" fill-rule="evenodd"/>
      <path id="Path_129" data-name="Path 129" d="M170.272,73.835a3.026,3.026,0,0,1,2.8-3.267c1.493,0,2.706,1.54,2.706,3.36-.046,1.82-1.26,3.314-2.8,3.267-1.494,0-2.707-1.493-2.707-3.36" fill-rule="evenodd"/>
      <path id="Path_130" data-name="Path 130" d="M231.075,89.514a.7.7,0,0,1-.513-.187.782.782,0,0,1-.047-1.026,20.728,20.728,0,0,1,2.707-2.473.72.72,0,1,1,.7,1.259,21.925,21.925,0,0,0-2.334,2.194.748.748,0,0,1-.513.233"/>
      <path id="Path_131" data-name="Path 131" d="M316.471,241.173a115.757,115.757,0,0,0,6.393-20.346.714.714,0,1,1,1.4.28c-1.493,7.747-4.013,14.28-6.44,20.579" fill="#020202"/>
      <path id="Path_132" data-name="Path 132" d="M311.1,265.532" fill="#5b2714"/>
      <path id="Path_133" data-name="Path 133" d="M323.657,297.73a14.908,14.908,0,0,1-4.62-.747c-8.773-2.893-21.512-11.619-32.151-36.958a.71.71,0,0,1,1.306-.56c10.406,24.826,22.772,33.365,31.265,36.165,8.726,2.847,16.006-3.686,22.026-10.453,8.913-10.079,13.766-23.845,15.259-43.444,1.96-26.179,3.873-44.425,7.746-60.43a.724.724,0,1,1,1.4.373c-3.826,15.866-5.74,34.111-7.7,60.2-1.494,19.879-6.487,33.971-15.586,44.284-4.947,5.6-11.386,11.573-18.946,11.573" fill="#0f0f0f"/>
      <path id="Path_134" data-name="Path 134" d="M183.291,161.8c-12.086,0-22.166-6.393-29.119-18.479a.721.721,0,0,1,1.26-.7C162.2,154.377,172,160.537,183.664,160.35c15.82-.186,32.9-12.132,38.918-23.145a.737.737,0,0,1,.98-.28.7.7,0,0,1,.28.98c-6.206,11.339-23.332,23.705-40.178,23.892Z" fill="#fef3f1"/>
      <path id="Path_135" data-name="Path 135" d="M59.817,247.193h-.28c-3.826-.187-7.606-3.826-11.246-10.826a.731.731,0,1,1,1.307-.653c3.313,6.439,6.813,9.939,10.032,10.079,2.474.093,4.993-1.727,7.42-5.506,2.007-3.173,3.78-11.9,4.9-23.986L72,215.7c.84-9.287,1.727-18.946-2.753-27.206A58.97,58.97,0,0,0,60.7,177.757a.726.726,0,1,1,1.026-1.027c2.38,2.38,6.86,7.466,8.82,11.059,4.666,8.633,3.733,18.946,2.893,28l-.047.607c-.653,7.233-2.193,20.065-5.133,24.638-2.66,4.06-5.506,6.16-8.446,6.16"/>
      <path id="Path_136" data-name="Path 136" d="M61.077,247.1a.707.707,0,0,1-.7-.607.724.724,0,0,1,.607-.793c7.233-.933,35.231-6.3,42.6-13.019a.727.727,0,1,1,.98,1.073C96.4,241.219,66.4,246.492,61.217,247.146a.171.171,0,0,0-.14-.047"/>
      <path id="Path_137" data-name="Path 137" d="M292.065,273.278c-3.08,0-6.393-1.12-7.746-3.78-1.12-2.193-1.26-6.066,4.293-12.273,1.12-1.259,2.24-2.613,3.406-3.966,6.86-8.12,14.653-17.312,25.852-14.7a.714.714,0,0,1-.28,1.4c-10.359-2.427-17.872,6.439-24.452,14.232-1.166,1.4-2.333,2.754-3.453,4.013-3.92,4.387-5.366,8.167-4.106,10.64s4.853,3.266,7.7,2.94a.726.726,0,1,1,.14,1.446c-.42,0-.886.047-1.353.047" fill="#020202"/>
      <path id="Path_138" data-name="Path 138" d="M284.973,269.918a.7.7,0,0,1-.654-.42c-2.147-4.34-3.173-9.053-4.107-13.626A70.624,70.624,0,0,0,277.319,245c-.513-1.306-1.353-3.22-2.333-5.413-2.753-6.206-6.58-14.652-8.353-22.445a.714.714,0,1,1,1.4-.28c1.726,7.653,5.506,16.052,8.259,22.165.98,2.193,1.82,4.107,2.38,5.46a68.538,68.538,0,0,1,2.94,11.106c.98,4.713,1.913,9.146,3.967,13.3a.713.713,0,0,1-.326.98c-.048,0-.188.047-.28.047" fill="#020202"/>
      <path id="Path_139" data-name="Path 139" d="M276.527,48.869l4.293,1.26,1.166-4.013-4.293-1.26Zm4.806,2.847a.28.28,0,0,1-.187-.047l-5.693-1.633a.745.745,0,0,1-.513-.887l1.54-5.413a.751.751,0,0,1,.327-.42.78.78,0,0,1,.56-.046L283.06,44.9a.745.745,0,0,1,.513.887l-1.54,5.413a.751.751,0,0,1-.327.42.629.629,0,0,1-.373.093"/>
      <path id="Path_140" data-name="Path 140" d="M273.68,57.969l4.293,1.259,1.166-4.013-4.293-1.26Zm4.806,2.846a.28.28,0,0,1-.187-.047l-5.693-1.633a.745.745,0,0,1-.513-.887l1.54-5.413a.751.751,0,0,1,.327-.42.78.78,0,0,1,.56-.046L280.213,54a.745.745,0,0,1,.513.887l-1.54,5.413a.751.751,0,0,1-.327.42.629.629,0,0,1-.373.093"/>
      <path id="Path_141" data-name="Path 141" d="M270.647,67.3l4.293,1.26,1.166-4.013-4.293-1.26Zm4.806,2.893a.28.28,0,0,1-.187-.047l-5.693-1.633a.682.682,0,0,1-.466-.887l1.54-5.413a.745.745,0,0,1,.326-.42.78.78,0,0,1,.56-.046l5.693,1.633a.745.745,0,0,1,.514.887l-1.54,5.413a.751.751,0,0,1-.327.42,1.764,1.764,0,0,1-.42.093"/>
      <path id="Path_142" data-name="Path 142" d="M296.5,85.034a.28.28,0,0,1-.187-.047L271.86,77.848a.725.725,0,1,1,.374-1.4l24.452,7.139a.683.683,0,0,1,.466.887.653.653,0,0,1-.653.56"/>
      <path id="Path_143" data-name="Path 143" d="M265.374,86.387l4.293,1.26,1.166-4.013-4.293-1.26Zm4.806,2.847a.28.28,0,0,1-.187-.047L264.3,87.554a.745.745,0,0,1-.513-.887l1.54-5.413a.751.751,0,0,1,.327-.42.78.78,0,0,1,.56-.046l5.693,1.633a.751.751,0,0,1,.42.327.78.78,0,0,1,.046.56l-1.54,5.413a.745.745,0,0,1-.326.42.685.685,0,0,1-.327.093"/>
      <path id="Path_144" data-name="Path 144" d="M262.573,95.486l4.293,1.26,1.167-4.013-4.293-1.26Zm4.76,2.847a.28.28,0,0,1-.187-.047l-5.693-1.633a.745.745,0,0,1-.513-.887l1.54-5.413a.751.751,0,0,1,.327-.42.78.78,0,0,1,.56-.046l5.693,1.633a.745.745,0,0,1,.513.887l-1.54,5.413a.751.751,0,0,1-.327.42.886.886,0,0,1-.373.093"/>
      <path id="Path_145" data-name="Path 145" d="M259.541,104.819l4.293,1.26L265,102.066l-4.293-1.26Zm4.806,2.847a.28.28,0,0,1-.187-.047l-5.693-1.633a.745.745,0,0,1-.513-.887l1.54-5.413a.751.751,0,0,1,.327-.42.759.759,0,0,1,.56-.046l5.693,1.633a.745.745,0,0,1,.513.887l-1.54,5.413a.751.751,0,0,1-.327.42.562.562,0,0,1-.373.093"/>
      <path id="Path_146" data-name="Path 146" d="M285.112,122.645a.28.28,0,0,1-.187-.047l-24.452-7.138a.748.748,0,0,1-.513-.888.682.682,0,0,1,.887-.467l24.452,7.14a.746.746,0,0,1,.513.888.808.808,0,0,1-.7.512"/>
      <path id="Path_147" data-name="Path 147" d="M253.988,124l4.293,1.26,1.166-4.013-4.293-1.26Zm4.806,2.847a.28.28,0,0,1-.187-.047l-5.693-1.633a.751.751,0,0,1-.42-.327.78.78,0,0,1-.046-.56l1.54-5.413a.745.745,0,0,1,.886-.513l5.693,1.633a.744.744,0,0,1,.42.327.775.775,0,0,1,.047.56l-1.54,5.413a.694.694,0,0,1-.7.56"/>
      <path id="Path_148" data-name="Path 148" d="M251.141,133.1l4.293,1.26,1.166-4.013-4.293-1.26Zm4.806,2.847a.28.28,0,0,1-.187-.047l-5.693-1.633a.751.751,0,0,1-.42-.327.78.78,0,0,1-.046-.56l1.54-5.413a.745.745,0,0,1,.886-.513l5.693,1.633a.744.744,0,0,1,.42.327.775.775,0,0,1,.047.56l-1.54,5.413a.694.694,0,0,1-.7.56"/>
      <path id="Path_149" data-name="Path 149" d="M248.155,142.431l4.293,1.26,1.166-4.013-4.293-1.26Zm4.806,2.847a.28.28,0,0,1-.187-.047l-5.693-1.633a.751.751,0,0,1-.42-.327.78.78,0,0,1-.046-.56l1.493-5.366a.744.744,0,0,1,.887-.513l5.693,1.633a.751.751,0,0,1,.42.327.78.78,0,0,1,.046.56l-1.54,5.413a.615.615,0,0,1-.653.513"/>
      <path id="Path_150" data-name="Path 150" d="M335.137,178.643a.28.28,0,0,1-.187-.047l-85.3-25.572a.708.708,0,1,1,.42-1.353l85.3,25.572a.682.682,0,0,1,.467.887.7.7,0,0,1-.7.513"/>
      <path id="Path_151" data-name="Path 151" d="M333.13,184.709c-.093,0-.14,0-.187-.047l-85.3-25.525a.708.708,0,1,1,.42-1.353l85.3,25.572a.681.681,0,0,1,.467.886.718.718,0,0,1-.7.467"/>
      <path id="Path_152" data-name="Path 152" d="M331.03,191.429a.28.28,0,0,1-.187-.047l-85.3-25.572a.708.708,0,1,1,.42-1.353l85.3,25.572a.682.682,0,0,1,.467.887.809.809,0,0,1-.7.513"/>
      <path id="Path_153" data-name="Path 153" d="M328.744,198.475a.28.28,0,0,1-.187-.047l-85.3-25.572a.708.708,0,1,1,.42-1.353l85.256,25.572a.718.718,0,0,1-.187,1.4"/>
      <path id="Path_154" data-name="Path 154" d="M330,63.195a.281.281,0,0,1-.188-.047L286.7,50.6a.725.725,0,1,1,.375-1.4L330.19,61.748a.745.745,0,0,1,.513.887.839.839,0,0,1-.7.56"/>
      <path id="Path_155" data-name="Path 155" d="M327.25,72.388a.28.28,0,0,1-.187-.047L283.945,59.789a.746.746,0,0,1-.513-.887.683.683,0,0,1,.887-.467l43.118,12.553a.745.745,0,0,1,.513.887.7.7,0,0,1-.7.513"/>
      <path id="Path_156" data-name="Path 156" d="M324.5,81.534a.28.28,0,0,1-.187-.047L281.192,68.935a.709.709,0,0,1,.421-1.354L324.73,80.134a.745.745,0,0,1,.514.887.8.8,0,0,1-.747.513"/>
      <path id="Path_157" data-name="Path 157" d="M318.851,101.273a.28.28,0,0,1-.187-.047L275.546,88.674a.725.725,0,1,1,.374-1.4l43.118,12.552a.748.748,0,0,1-.187,1.447"/>
      <path id="Path_158" data-name="Path 158" d="M316.1,110.513a.28.28,0,0,1-.187-.047L272.793,97.914a.746.746,0,0,1-.513-.887.683.683,0,0,1,.887-.467l43.118,12.553a.682.682,0,0,1,.466.887.7.7,0,0,1-.653.513"/>
      <path id="Path_159" data-name="Path 159" d="M313.344,119.612a.28.28,0,0,1-.187-.047L270.04,107.013a.682.682,0,0,1-.467-.887.744.744,0,0,1,.887-.513l43.117,12.552a.746.746,0,0,1,.514.887.783.783,0,0,1-.747.56"/>
      <path id="Path_160" data-name="Path 160" d="M308.445,138.885a.28.28,0,0,1-.187-.047L265.14,126.286a.683.683,0,0,1-.466-.887.744.744,0,0,1,.886-.513l43.118,12.552a.682.682,0,0,1,.467.887.742.742,0,0,1-.7.56"/>
      <path id="Path_161" data-name="Path 161" d="M305.691,148.078a.28.28,0,0,1-.187-.047l-43.118-12.552a.746.746,0,0,1-.513-.887.683.683,0,0,1,.887-.467l43.118,12.553a.682.682,0,0,1,.466.887.615.615,0,0,1-.653.513"/>
      <path id="Path_162" data-name="Path 162" d="M302.985,157.224a.28.28,0,0,1-.187-.047l-43.117-12.552a.724.724,0,1,1,.373-1.4l43.118,12.552a.746.746,0,0,1,.513.887.694.694,0,0,1-.7.56"/>
      <path id="Path_163" data-name="Path 163" d="M276.293,58.342a.793.793,0,0,1-.327-.047c-.513-.233-.56-.606-.98-3.966l-.093-.887a.706.706,0,1,1,1.4-.186l.093.886c.094.793.187,1.68.28,2.333.327-.233.747-.56,1.214-.84,1.12-.793,2.426-1.726,3.266-2.286a.66.66,0,0,1,.98.233.683.683,0,0,1-.187.98c-.84.56-2.1,1.447-3.22,2.24-.933.653-1.726,1.26-2.053,1.447a.886.886,0,0,1-.373.093"/>
      <path id="Path_164" data-name="Path 164" d="M268.593,87.041h0a.927.927,0,0,1-.607-.28c-.746-.887-.84-2.287-.98-3.686a9.145,9.145,0,0,0-.233-1.867.708.708,0,1,1,1.353-.42,12.828,12.828,0,0,1,.327,2.193,8.441,8.441,0,0,0,.373,2.333c.514-.466,1.307-1.353,1.96-2.053a29.9,29.9,0,0,1,2.94-2.986.683.683,0,0,1,.98.186.746.746,0,0,1-.187,1.027,30.742,30.742,0,0,0-2.706,2.753c-2.053,2.287-2.613,2.8-3.22,2.8"/>
      <path id="Path_165" data-name="Path 165" d="M250.488,143.271a.791.791,0,0,1-.467-.14c-.56-.373-.606-1.213-.56-3.64a18.187,18.187,0,0,0-.093-2.566.708.708,0,1,1,1.353-.42,14.011,14.011,0,0,1,.187,2.986v1.4a42.059,42.059,0,0,1,6.16-6.253.729.729,0,0,1,.933,1.12,44.932,44.932,0,0,0-6.813,7.186,1.233,1.233,0,0,1-.28.234,1.765,1.765,0,0,1-.42.093"/>
      <path id="Path_166" data-name="Path 166" d="M172.045,91.007a12.857,12.857,0,0,1-2.66-.28c-7.7-1.587-12.693-9.8-11.106-18.292a14.223,14.223,0,0,1,.653-2.52.724.724,0,0,1,1.354.513,13.2,13.2,0,0,0-.607,2.333c-1.447,7.7,3.033,15.166,9.986,16.613a11.785,11.785,0,0,0,9.1-1.867,14.732,14.732,0,0,0,6.113-9.519,18.837,18.837,0,0,0,.28-3.22.723.723,0,1,1,1.446-.047,22.081,22.081,0,0,1-.28,3.5A16.11,16.11,0,0,1,179.6,88.674a13.489,13.489,0,0,1-7.56,2.333"/>
      <path id="Path_167" data-name="Path 167" d="M209.05,96.42a12.857,12.857,0,0,1-2.66-.28c-7.7-1.587-12.693-9.8-11.106-18.292a16.817,16.817,0,0,1,.56-2.194.7.7,0,0,1,.887-.466.738.738,0,0,1,.466.886,15.934,15.934,0,0,0-.513,2.007c-1.447,7.7,3.033,15.166,9.986,16.612a11.784,11.784,0,0,0,9.1-1.866,14.732,14.732,0,0,0,6.113-9.52,25.771,25.771,0,0,0,.28-2.66.728.728,0,0,1,.746-.7.7.7,0,0,1,.7.747,20.234,20.234,0,0,1-.28,2.893,16.009,16.009,0,0,1-6.719,10.406,13.107,13.107,0,0,1-7.56,2.427"/>
      <path id="Path_168" data-name="Path 168" d="M195.61,80.134a.6.6,0,0,1-.467-.187c-2.1-1.913-5.973-2.939-8.913-1.12a.712.712,0,0,1-.746-1.213c3.546-2.193,8.119-.98,10.639,1.26a.733.733,0,0,1,.047,1.027.969.969,0,0,1-.56.233"/>
      <path id="Path_169" data-name="Path 169" d="M158.559,75.608a.73.73,0,0,1-.607-.373l-3.826-6.487a.721.721,0,1,1,1.26-.7l3.826,6.487a.708.708,0,0,1-.28.98.562.562,0,0,1-.373.093"/>
      <path id="Path_170" data-name="Path 170" d="M222.722,84.241a.72.72,0,0,1-.42-1.307l6.253-4.293a.705.705,0,0,1,.793,1.167L223.1,84.1a.53.53,0,0,1-.373.14"/>
      <path id="Path_171" data-name="Path 171" d="M297.486,42.5l-.365,1.25-10.226-2.982,3.989-13.677,9.917,2.893-.365,1.25-8.387-2.447L290.63,33.65l7.479,2.182-.359,1.231-7.479-2.181-1.482,5.079Z"/>
      <path id="Path_172" data-name="Path 172" d="M312.822,40.908l1.467.428-1.522,5.216a8.615,8.615,0,0,1-5.818.19c-4.4-1.284-6.761-5.174-5.593-9.179s5.25-6.015,9.673-4.725a7.654,7.654,0,0,1,4.8,3.54l-1.218.641a6.338,6.338,0,0,0-3.891-2.873c-3.575-1.043-6.9.594-7.852,3.857-.946,3.243.972,6.431,4.525,7.468a6.79,6.79,0,0,0,4.089.048Z"/>
      <path id="Path_173" data-name="Path 173" d="M327.419,51.229l-.365,1.25L315.2,49.021l.291-1,12.919-8.634-9.44-2.753.364-1.251L330.8,38.731l-.29,1-12.9,8.64Z"/>
      <path id="Path_174" data-name="Path 174" d="M340.213,52.353,332.156,50l-2.8,3.147-1.59-.464,10.6-11.748,1.507.44,2.622,15.605-1.612-.47ZM340,51.018l-1.328-8.358-5.615,6.333Z"/>
      <path id="Path_175" data-name="Path 175" d="M363.907,48.389l-3.989,13.677-1.467-.428L361.642,50.7l-8.367,7.544-.723-.211-3.014-10.8-3.174,10.882-1.467-.428,3.989-13.676,1.26.367,3.324,11.972,9.175-8.326Z"/>
      <rect id="Rectangle_26" data-name="Rectangle 26" width="14.247" height="1.593" transform="translate(364.638 63.443) rotate(-73.738)"/>
      <path id="Path_176" data-name="Path 176" d="M386.957,55.112l-3.989,13.677-1.262-.368-6.059-13.81-3.237,11.1-1.529-.446,3.989-13.677,1.26.368,6.081,13.816,3.237-11.1Z"/>
      <path id="Path_177" data-name="Path 177" d="M176.944,122.643a1.142,1.142,0,1,0,.07,2.283c5.828,5.166,17.014,4.267,26.2-5.988a.966.966,0,0,0,.264-.188,1.142,1.142,0,0,0-1.309-1.844c-8.634,10.8-20.011,10.678-25.228,5.737" fill="#19191b"/>
    </g>
  </g>
</svg>
