<svg id="image_nauczę" xmlns="http://www.w3.org/2000/svg" xmlns:xlink="http://www.w3.org/1999/xlink" width="300.634" height="400" viewBox="0 0 300.634 400">
  <defs>
    <clipPath id="clip-path">
      <rect id="Rectangle_21" data-name="Rectangle 21" width="264.261" height="399.925" fill="none"/>
    </clipPath>
    <clipPath id="clip-path-2">
      <rect id="Rectangle_22" data-name="Rectangle 22" width="300.633" height="400" fill="none"/>
    </clipPath>
    <clipPath id="clip-path-3">
      <rect id="Rectangle_23" data-name="Rectangle 23" width="300.632" height="359.96" fill="none"/>
    </clipPath>
  </defs>
  <g id="Group_25" data-name="Group 25" transform="translate(27.02 0.006)">
    <g id="Group_24" data-name="Group 24" clip-path="url(#clip-path)">
      <path id="Path_92" data-name="Path 92" d="M164.822,386.473c-.912,3.451-2.653,5.641-5.647,5.995-3.241.386-6.644.251-9.381-1.607-6.262-4.254-12.834-3.568-19.568-2.111a17.593,17.593,0,0,1-2.466.545c-5.525.386-9.359-4.811-6.692-9.776a9.868,9.868,0,0,0,.585-9.2c1.6-1.491,3.367-1.056,5-1.184,3.039-.235,6.169.028,9.113-.636,4.135-.94,7.79.5,11.127,2.264,5.269,2.788,10.154,6.352,15.208,9.578,2.212,1.419,3.5,3.157,2.719,6.13m-65.09-9.19a39.355,39.355,0,0,1,.813,8.229c-.042.88-.042,2.121-.183,3.346-.567,4.946-2.364,6.53-7.054,5.791a22.1,22.1,0,0,0-13.366,1.732,42.1,42.1,0,0,1-11.736,3.258,13.985,13.985,0,0,1-7.034-.223c-4.444-1.613-5.959-5.769-3-9.562,4.424-5.663,10.185-9.757,16.334-13.2a6.461,6.461,0,0,1,2.983-.417,112.687,112.687,0,0,0,18.7-1.494c2.175-.4,3.076.492,3.544,2.537m-47.184-21.2c-3.574.1-6.767-3.111-6.965-6.988-.2-3.912,2.817-7.8,6.043-7.771a8,8,0,0,1,7.73,7.577,7.365,7.365,0,0,1-6.809,7.182m-.408-54.235c3.6.091,6.994,3.794,7.013,7.656a7.787,7.787,0,0,1-7.337,7.846,7.227,7.227,0,0,1-7.28-7.164c.012-4.294,3.781-8.432,7.6-8.338m-9.87-65.345c.162-3.634,3.166-7.549,5.861-7.639,3.6-.123,7.526,4.021,7.442,7.865-.078,3.822-3.247,7.12-6.821,7.1-3.591-.022-6.652-3.487-6.481-7.327m6.812-47.595a6.022,6.022,0,0,1,5.639,6.183c.018,4.021-3.82,8.445-7.445,8.579-3.382.125-6.008-2.553-6.1-6.217-.114-4.376,3.895-8.7,7.907-8.545m-9.374-29.133c-.066-4.41,3-7.671,7.235-7.687,4.36-.015,7.151,3.139,7.328,8.289A7.314,7.314,0,0,1,47.423,168c-3.9.075-7.65-3.922-7.715-8.219m-1.3-35.413c.009-4.286,4.492-9.024,8.468-8.952,3.808.072,7.292,3.946,7.223,8.04-.075,4.363-3.978,8.461-8.15,8.548a7.743,7.743,0,0,1-7.541-7.636M55.17,86.215c-.03,4.98-3.73,9.149-8.114,9.131-4.411-.019-7.934-4.213-7.821-9.319.108-5,3.781-9.112,8.153-9.13,4.447-.019,7.814,4.009,7.781,9.319M57.919,269.89c.093,4-2.74,7.351-6.3,7.47-3.508.116-6.737-3.154-6.887-6.966a7.344,7.344,0,0,1,6.742-7.686c3.607-.135,6.347,2.919,6.449,7.182M47.251,34.614a9.1,9.1,0,0,1,9.417,9.011c.081,5.451-4.357,10.343-9.47,10.446-4.687.1-8.165-3.67-8.156-8.82s4.1-10.453,8.21-10.637m243.6-21.346c.5-3.8-1.983-5.745-5.125-6.916A94.8,94.8,0,0,0,236.133,1.3c-12.567,2.1-24.963,5.124-37.288,8.385a345.349,345.349,0,0,1-67.787,10.866,177.271,177.271,0,0,1-53.087-4.332C66.448,13.4,54.46,12.971,43.191,8.78a16.8,16.8,0,0,0-6.043-.664c-3.465.063-5.339,1.783-6.047,5.253-1.23,6.027-2.25,12.031-1.6,18.3a94.858,94.858,0,0,1,.1,12.729c-.484,15.561-.954,31.122-1.62,46.674-1.3,30.257-.228,60.505-.087,90.76.021,5.657.27,11.32.612,16.97,1.071,17.835,2.652,35.649,3.268,53.5.927,26.874,1.344,53.762,4.084,80.543.552,5.415,1.062,10.987,0,16.394-1.083,5.535.618,10.083,4.6,13.212,9.1,7.167,19.31,11.1,30.912,8.67a26.243,26.243,0,0,1,8.546-.488,59.634,59.634,0,0,0,23.2-1.967c11.844-3.342,23.322-7.615,33.827-14.343a12.734,12.734,0,0,1,8.216-2.083c5.582.451,11.181.661,16.766,1.106,16.786,1.335,33.5,3.471,49.474,9.184,12.676,4.536,25.447,8.761,38.05,13.507a57.252,57.252,0,0,0,17.45,3.354c3.61.128,7.151-.2,10.32-2.209,3.6-2.28,6.727-5.983,5.092-9.972-2.187-5.337-1.083-10.073-.36-15.12a7.236,7.236,0,0,0-.072-1.588c-.681-8.109-1.452-16.206-2.025-24.322-.891-12.541-3.031-24.917-4.42-37.39a525.14,525.14,0,0,1-1.893-89.56c.648-10.925.876-21.931,2.971-32.729,2.52-13.008,4.774-26.057,6.487-39.209,3.247-24.889,6.035-49.83,8.007-74.873,1.029-13.077-1.879-26.082-.144-39.147" transform="translate(-27.132 -0.004)" fill="#ffcd45" stroke="#161616" stroke-width="3"/>
    </g>
  </g>
  <g id="Group_27" data-name="Group 27">
    <g id="Group_26" data-name="Group 26" clip-path="url(#clip-path-2)">
      <path id="Path_93" data-name="Path 93" d="M89.118,430.745c-3.815.946-7.7.5-11.552.626a2.648,2.648,0,0,0-2.9,2.418c-.21,1.212-.291,2.449-.367,3.129.013,4.977.664,5.216,5.266,5.009,2.675-.116,5.194-1.629,8.17-.388,1.623.677,3.709-.78,4.366-2.972.527-1.752-.476-6.9-1.512-7.531a2.2,2.2,0,0,0-1.469-.291m45.17-2.679c-.633-2.9-1.654-3.508-4.815-3.47-2.391.031-4.392,1.256-6.629,1.735-3.9.833-4.3,1.388-4.37,5.046-.1,5.251,3.377,9.25,7.533,8.677,7.2-1,9.651-4.354,8.354-11.465-.031-.175-.041-.351-.075-.523m-11.891-84.9c-.993-1.45-2.346-2.519-3.909-1.018-1.591,1.523-3.28,1.222-4.943.736-8.035-2.327-16.248-1.419-24.408-1.45a4.4,4.4,0,0,0-2.365,1.09,19.847,19.847,0,0,1-4.542,2.631c-1.957.642-2.29,1.924-2.349,3.622-.069,1.9.263,3.464,2.359,4.219,2.305.827,4.438,2.268,7.082,1.309a9.665,9.665,0,0,1,5.247.063c5.356,1.033,10.678,2.515,16.169.6a10.066,10.066,0,0,1,3.167-.047c0,.05,0,.1.006.147,1.055-.044,2.121-.035,3.167-.147,6.093-.652,8.809-6.657,5.319-11.756m54.091-126.256c-3.925-2.44-8.445-3.54-12.7-5.234-1.168-.467-2.707-.486-3.4.686-1.995,3.386-5.629,4.676-8.473,6.963-3.038,2.443-3.355,3.69-1.817,7.273a12,12,0,0,0,2.556,3.311,5.729,5.729,0,0,1,1.535,5.864c-2.431,7.54-4.842,15.045-9.159,21.852-3.489,5.5-8.326,10.036-11.032,16.123-1.369,3.076-1.341,5.444.332,8.332,1.858,3.214,5.015,3.558,7.775,4.614a3.121,3.121,0,0,0,3.13-1.845,13.944,13.944,0,0,1,3.4-4.016,54.545,54.545,0,0,0,16.7-27.456c2.431-9.435,4.714-19.215,11.919-26.651a8.471,8.471,0,0,0,1.29-2.305c1.77-3.718,1.423-5.357-2.049-7.512M39.851,268.453c-1.535-1.243-3.023-2.462-3.753-4.351-4.319-11.136-10.008-21.978-7.3-34.595a2.914,2.914,0,0,0,.013-1.018c.379-7.192-.483-8.317-6.976-8.5-2.509-.072-4.849-.1-7.02-1.582a3.434,3.434,0,0,0-3.558.172A29.691,29.691,0,0,0,1.883,225.4,6.154,6.154,0,0,0,.83,232.746c1.927,3.8,3.737,7.571,7.775,9.767a9.788,9.788,0,0,1,5.4,7.931,23.969,23.969,0,0,0,2.938,8.476c4.438,8.36,7.518,17.46,14.067,24.671,3.565,3.925,6.682,8.266,11.086,11.327,3.869,2.685,4.987,2.2,6.09-2.246.72-2.913,1.143-6.061,3.041-8.391,1.764-2.165.834-3.38-.516-4.975a81.783,81.783,0,0,0-10.86-10.854m36.179,9.927c-2.785,1.638-5.9,1.068-8.42-1.031-2.769-2.3-2.547-5.434-1.382-8.282a51.86,51.86,0,0,0,2.628-9.037c.617-2.9,2.19-5.191,5.623-5.932a5.022,5.022,0,0,0,4.128-4.83,10.041,10.041,0,0,1,.326-2.089c1.826-6.7,7.6-9.651,13.924-6.876,2.578,1.131,4.414,1.842,6.9-.6,2.907-2.857,6.763-2.7,10.381-.874,3.709,1.867,5.056,4.733,4.893,9.053-.216,5.608,1.072,11.249,0,16.884,3.468,5.492-1.078,8.2-4.232,10.907-2.409,2.074-3.812,3.628-2.466,6.967,1.826,4.517-1.782,7.239-4.376,9.827-2.929,2.919-13.391,2.352-16.455-.386-3.085-2.756-3.3-4.776-.877-8.147,3.277-4.554,3.2-5.137-.808-9.266a18.923,18.923,0,0,0-4.542-3.984c-.952,2.854,2.484,4.125,1.517,7.117a6.939,6.939,0,0,0-6.766.58" transform="translate(-0.018 -67.373)" fill="#fff"/>
      <path id="Path_94" data-name="Path 94" d="M165.321,321.671c-6.1,7.048-9.808,15.49-13.6,23.853-1.632,3.6-1.347,7.634-2.08,11.443-.533,2.775-.827,5.591-1.244,8.388-1.209,8.145-4.642,10.935-13.222,10.509a25.019,25.019,0,0,1-2.888-.247,39.3,39.3,0,0,0-23.8,2.722c-6.719,2.944-12.787-.849-14.13-8.031q-1.908-10.163-3.509-20.376c-.623-3.985-1.973-6.892-6.553-7.687-3.671-.639-6.813-2.841-9.958-4.846-2.189-1.391-4.128-3.192-7.063-3.311-2.092-.087-2.957-2.008-2.637-3.919,1.24-7.408,4.291-14.174,7.881-20.7.8-1.457,2.115-1.757,3.624-.93,8.125,4.458,17.137,5.238,26.1,6.024a7.579,7.579,0,0,1,5.573,2.471c1.56,1.8,3.712,2.585,5.826,3.537,5.481,2.474,9.551,1.616,14.159-2.844,5.519-5.341,12.583-8.984,19.9-11.769a6.794,6.794,0,0,1,6.077.811c4.348,2.484,7.884,5.983,11.53,9.319,1.846,1.692,1.732,3.6.019,5.585" transform="translate(-20.58 -97.389)" fill="#51d6d4"/>
      <path id="Path_95" data-name="Path 95" d="M121.014,82.89c-8.8-2.544-17.623-.583-26.341-1.4-1.5-.141-2.08,1.876-1.031,3.2a5.94,5.94,0,0,0,5.2,2.1,81.952,81.952,0,0,0,22.168-3.9M290.54,351.982a32.469,32.469,0,0,0-20.7-1.974c-1.495.354-2.707,1.228-2.663,2.844.057,1.9,1.491,2.682,3.23,2.85,3.511.348,7.029.646,9.366.856,4.009.2,6.828.407,9.651.432,1.19.01,2.619-.1,2.991-1.619a2.8,2.8,0,0,0-1.873-3.389M134.066,85.944a16,16,0,0,0,6.2,1.171c12.88.692,25.767.266,38.654.163a10.038,10.038,0,0,0,5.739-1.3c-2.556-2.728-5.548-2.932-8.455-3.321-7.884-1.043-15.822-1.413-23.76-1.7-5.82-.213-11.649-.163-17.472-.241-1.463-.022-3.007-.013-3.417,1.735-.464,1.964,1.03,2.778,2.512,3.493M218.41,207.175a25.952,25.952,0,0,0,4.686.783c8.839.473,17.683.865,26.525,1.288,0,.072,0,.144.007.213,8.5,0,17,.076,25.494-.059,1.864-.029,5.084.986,5.128-1.883.031-2.387-3.164-2.34-5.165-2.553a407.268,407.268,0,0,0-53.022-2.28,13.731,13.731,0,0,0-3.63.61,2.109,2.109,0,0,0-1.538,1.964,1.862,1.862,0,0,0,1.516,1.917M113.426,119.163q28.145-.155,56.281-.339a29.326,29.326,0,0,0,8.222-.742c.041-.382.078-.762.119-1.144-1.861-.492-3.709-1.014-5.576-1.472-4.849-1.194-9.839-1.162-14.773-1.453-19.985-1.172-39.98-.664-59.971.028-1.3.047-2.8-.116-3.586,1.253.773,2.121,2.446,2.156,3.981,2.453a79.2,79.2,0,0,0,15.3,1.416M235.05,344.423c-12.267-1.7-24.574-2.957-36.985-2.48-6.541.25-13.065.773-19.352,2.813-1.848.595-4.26,1.294-3.712,3.674.582,2.519,3.13,1.739,4.965,1.494a216.068,216.068,0,0,1,35.469-1.247c14.841.517,29.611,1.829,45.693,3.489-2.738-2.675-5.144-3.254-7.392-4.028-6.055-2.083-12.386-2.841-18.685-3.715m44.675-107.862q-26.524-.01-53.057.022c-7.788.016-15.556.454-23.315,1.09a12.82,12.82,0,0,0-5.613,1.372,1.963,1.963,0,0,0-.852,1.253,1.413,1.413,0,0,0,1.153,1.531,31.693,31.693,0,0,0,8.4.984c13.974.116,27.948.091,41.918.279a277.448,277.448,0,0,0,30.194-1.331c3.846-.367,7.749-.68,12.148-2.713-3.969-2.493-7.49-2.484-10.979-2.487M124.472,161.085c9.188.282,18.4.257,27.575.743a237.174,237.174,0,0,0,35.49-.874c5.21-.5,10.466-1.125,16.229-3.515-2.337-1.081-3.953-.745-5.516-.745-14.679.01-29.369.3-44.011-.858-18.851-1.478-37.871.423-56.622-2.923-.858-.153-1.883-.3-2.321.68-.564,1.247.444,1.948,1.281,2.553a19.873,19.873,0,0,0,7.866,2.995,118.306,118.306,0,0,0,20.029,1.945M268.3,266.476c-14.491.608-28.981,1.259-43.456,2.152-14.3.88-28.658.42-42.923,2-1.748.2-3.49.523-5.216.867-1.08.21-2.158.739-2.186,1.958-.038,1.578,1.347,2.017,2.559,2.136,2.28.235,4.586.279,6.882.335,31.553.777,62.874-2.553,94.227-5.379a24.333,24.333,0,0,0,8.63-2.208c-6.847-2.344-12.708-2.1-18.516-1.858m20.3,45.812c-4.007-.414-8.007-.949-12.02-1.215-13.767-.924-27.546-1.672-41.31-2.631a490.439,490.439,0,0,0-60.465.028,26.518,26.518,0,0,0-3.684.445,2.27,2.27,0,0,0-2.114,2.023,2.075,2.075,0,0,0,1.77,2.277,23.335,23.335,0,0,0,4.68.849c4.06.182,8.135.3,12.2.245,15.214-.223,30.416-.185,45.627.585,14.315.721,28.649.805,42.983.511,4.2-.088,8.382-.357,12.332-3.117M169.3,376.142c.229,1.858,2.117,3.461,1.04,5.387-1.285,2.3-3.969,2.071-6.093,2.719-5.432,1.673-10.958,2.929-16.721,2.3-3.7-.4-4.389-.908-4.592-4.457-.626-10.838-3.75-21.2-5.932-31.744-.927-4.495-2.068-8.946-3.126-13.416-.153-.651-.144-1.441-1.419-1.651-.978,1.331-1.112,3.111-1.441,4.721-1.933,9.523-4.009,19.023-5.162,28.69a104.926,104.926,0,0,0-.166,16.43c.144,3.78.191,3.684-3.556,4.3-3.129.523-6.2,1.435-9.329,1.914a27.69,27.69,0,0,1-11.584-.185c-2.308-.617-3.383-1.488-3.176-3.9,1.858-21.833,2.754-43.769,7.365-65.292a50.219,50.219,0,0,1,1.948-6.6c1.732-4.764,2.688-5.5,7.828-5.35,9.911.282,19.813.561,29.718-.091,2.468-.163,4.949-.27,7.4-.58,2.378-.3,3.364.608,4.109,2.929,3.418,10.648,4.975,21.686,7.174,32.587,2.1,10.4,4.429,20.755,5.717,31.293" transform="translate(-29.677 -25.725)" fill="#19191b"/>
    </g>
  </g>
  <g id="Group_29" data-name="Group 29" transform="translate(0.002 26.761)">
    <g id="Group_28" data-name="Group 28" clip-path="url(#clip-path-3)">
      <path id="Path_96" data-name="Path 96" d="M153.794,379.429c1.946-1.2,3.587-1.524,3.5-3.984-1.974.572-2.851,1.588-3.5,3.984M101.658,288.06c-1.281.182-1.961.859-1.767,2.057a1.72,1.72,0,0,0,1.8,1.494,1.87,1.87,0,0,0,2-1.893c.04-1.253-.884-1.689-2.03-1.658M71.167,197.746c2.737-.629,4.67-1.077,6.6-1.522-.1-.384-.2-.77-.3-1.158-2.246-.759-5.745-.275-6.3,2.68m77.665,174.6c-1.638.405-3.521,3.161-3.258,4.714.135.808.852,1.3,1.454.844a7.946,7.946,0,0,0,3.148-4.323c-.116-.917-.473-1.455-1.344-1.234m-47.112-178.1c.3-1.64-1.29-1.724-2.481-2.024-1.594.239-3.333.43-3.382,2.48-.029,1.2.993,1.8,2.158,1.745,1.613-.075,3.367-.368,3.705-2.2m41.517,174.083c-2.117.788-4.075,1.9-4.874,4.137a1.245,1.245,0,0,0,1.112,1.818c1.735.211,5.3-3.167,5.165-4.841-.119-.792-.774-1.344-1.4-1.114M54.684,384.877c5.1,1.8,5.1,1.8,9.623,1-5.491-3.9-7.533-4.038-9.623-1m12.5-12.419a1.506,1.506,0,0,0-1.833.572c-.482.743.094,1.285.535,1.794.407.466.871.888,1.316,1.325,1.4.665,2.8,1.37,4.235,1.975a1.619,1.619,0,0,0,1.923-.366,1.588,1.588,0,0,0-.113-2.315c-1.647-1.64-3.874-2.308-6.064-2.986M110.617,186.41c.044-.164-.345-.433-.508-.62-1.512.366-1.71,2.354-3.11,2.284-2.218-.339-.868-3.642-3.518-3.349-.57,4.136.041,5.9,2.224,6.486,2.167.584,3.947-1.134,4.911-4.8M60.188,376.669c-.178.621.376,1.226,1.012,1.588a19.416,19.416,0,0,0,2.23,1.278c1.5.611,3.029,2.44,4.648,1.013,1.711-1.5-.733-2.777-.88-4.275-1.657-.249-3.311-.5-4.971-.739a1.709,1.709,0,0,0-2.039,1.134m6.985-.534s-.006,0-.006,0l.006.006a1.061,1.061,0,0,0,.025.136l.144.018c-.047-.045-.091-.093-.138-.141a.113.113,0,0,1-.031-.015m24.292-185.2c1.241-1.331,2.318-2.9,1.544-4.816-.4-.121-.61-.26-.73-.206-1.732.745-3.277,3.981-5.338.236-.345-.62-1.372.018-1.585.647a3.778,3.778,0,0,0,6.108,4.138m.172,11.641c4.432,3.769,9.883,2.855,13.576-2.514-1.977.042-2.788,1.092-3.9,1.546-4.548,1.851-7.674.805-9.735-3.642-.527-1.132-1-1.325-1.789-.839-.939.584-2.565.125-3.029,2.055,2.337.211,3.348,2.094,4.877,3.394m42.16,162.53c-4.407,1.2-8.758,2.895-13.373.745a.965.965,0,0,0-1.247.641,1.886,1.886,0,0,0,.084,1.461c1.366,2.167,3.718,2.363,6.039,2.669,3.311-.411,6.66-.805,9.495-2.8.72-.5,1.484-1.121,1.187-2.081-.344-1.118-1.412-.84-2.186-.632m-58.244,4.648a.8.8,0,0,0-.758,1.046,1.821,1.821,0,0,0,.993,1.029,27.136,27.136,0,0,0,10.437.574c2.3-.357,4.987.375,6.722-1.905-.178-.233-.247-.444-.388-.5-5.629-2.105-11.33-.508-17.006-.247m-.138-66.66c4.082-1,10.35-8.207,10.5-12.425a1.508,1.508,0,0,0-.877-1.346c-1.062-.545-1.66.176-2.049.959a18.355,18.355,0,0,1-8.123,8.452,2.6,2.6,0,0,0-1.676,2.4c.06,1.338.473,2.394,2.227,1.961m52.049-4.85a2.846,2.846,0,0,0,3.1-1.642c.6-1.686-.939-2.393-2.215-2.942-3.207-1.373-6.424-2.695-8.814-5.342a1.593,1.593,0,0,0-1.952-.224,1.773,1.773,0,0,0-.6,1.827c.439,3.884,5.83,8.352,10.481,8.322M85.047,220.42c-.608.813-.078,1.624.448,2.3a8.592,8.592,0,0,0,1.484,1.436c6.751,5.352,17.676,4.306,24.186-2.825-2.631-.42-4.389.441-6.14,1.077a22.568,22.568,0,0,1-8.827,1.1,18.039,18.039,0,0,1-8.815-3.094c-.72-.442-1.645-.92-2.337.009m60.584,6.437c2.039-2.913,2.064-4.375-.686-6.653-4.122-3.405-8.536-6.483-12.828-9.7q-.483.46-.977.917a27.566,27.566,0,0,0,7.95,7.049,26.617,26.617,0,0,1,3.841,2.671c.777.678,1.3,1.8.332,2.7-.837.78-1.648-.016-2.271-.526-2.3-1.867-4.526-3.815-6.8-5.7-.937-.774-1.914-1.5-2.92-2.184a1.171,1.171,0,0,0-.974.028.939.939,0,0,0-.4,1.316,23.069,23.069,0,0,0,2.25,2.81c2.556,2.783,5.889,4.632,9.128,6.359-2.014,4.719-5.56,8.174-6.722,14.04a78.706,78.706,0,0,0,11.086-13.129M66.159,246.8a89.507,89.507,0,0,0-12.953-8.316c-3.229-1.7-3.107-1.7-1.651-5.161,1.118-2.644,2.365-5.383.918-8.924-3.543,3.567-2.662,8.359-5.838,11.6a2.4,2.4,0,0,1-.27-2.384c1.441-6.544,4.458-12.531,7.1-18.644.332-.763.959-1.6-.235-2.1-.814-.336-1.369.39-1.669.938-3.389,6.175-6.516,12.458-7.882,19.391a3.429,3.429,0,0,0,1.557,4,153.947,153.947,0,0,0,15.437,8.632c1.513.7,2.966,1.8,5.482.962M122.1,277.277c.542-1.543-.815-2.075-1.892-2.592a30.107,30.107,0,0,0-7.02-2.175c-11.421-2.371-21.977,1.095-32.5,4.562-1.378.454-3.521,1.213-2.925,3.044.758,2.326,2.869,1.022,4.52.786,12.172-1.736,24.273-4.5,36.718-2.475,1.278.23,2.59.272,3.1-1.15M28.084,174.386c-.846-3.933,1.669-7.917,2.365-11.95a15.783,15.783,0,0,0,.32-2.018c.11-2.5-.962-4.154-3.505-5.076-9.354-3.4-16.282-1.84-23.415,5.058C.362,163.767-1.01,167.566.8,171.962c2.384,5.811,6.86,8.685,12.617,8.624a7.437,7.437,0,0,0-4.182-3.765c-5.3-2.1-4.273-7.191-5.272-10.967-.623-2.348,2.891-4.247,5.2-5.781.432-.288.955-.451,1.4-.72,3.3-1.984,4.623-1.655,6.6,1.5,1.093,1.743.987,3.528.6,5.739-.865-.405-1.256-.472-1.448-.7-1.014-1.207-1.218-3.966-3.47-2.942-1.717.788.357,2.663.3,4.085a.486.486,0,0,1-.686.484c-1.412-1.017-1.757-3.325-4.648-3.361.98,3.171,1.147,6.619,4.655,7.672,3.552,1.068,6.669-1.385,9.012-3.327,3.019-2.511,1.992-6.169-.05-9.37,4.906.152,5.144.184,4.495,4.042-2.151,12.781,2.049,24.246,7.612,35.455.345.7.689,1.624,2.089,1.551-.345-4.979-2.277-9.565-3.665-14.264-1.15-3.894-3.038-7.66-3.872-11.532m149.758-22.8a28.073,28.073,0,0,0-14.591-4.027c-1.641,0-3.4.309-4.3,1.619-1.071,1.543-2.76,2.033-4.1,3.073-5.04,3.9-9.15,9.627-3,15.517,1.688,1.618,1.065,3.421.673,5.261a69.264,69.264,0,0,1-8.392,20.9q-1.315,2.218-2.48,4.523c-.4.784-.574,1.782.367,2.248a2.038,2.038,0,0,0,2.359-.709,13.1,13.1,0,0,0,1.312-1.6c5.513-8.292,9.291-17.162,10.381-27.078.32-2.959.206-5.288-2.421-7.176-2.346-1.679-2.2-3.64-.288-5.609.82-.847,1.281-2.088,2.841-2.3.36,1.295.755,2.6,1.087,3.915.26,1.04.689,2.238,1.735,2.384,2.878.405,5.118,2.251,7.863,2.934a3.3,3.3,0,0,0,3.386-.668c1.356-1.247.686-2.917,1.121-4.354.435-1.452,1.454-3.037-.131-4.5-2.077,1.228-1.159,4.114-3.4,4.913-2.083-2.218,1.482-5.155-1.172-7.006-2.578.9-.952,3.987-3.59,5.321-.914-2.85-.486-5.425-.373-8.616,3.944.635,7.236,1.159,10.259,2.719,3.217,1.667,3.371,1.969,2.109,5.155-.818,2.072-1.736,4.1-2.538,6.177a1.619,1.619,0,0,0,.451,1.884,1.391,1.391,0,0,0,1.9-.2,18.685,18.685,0,0,0,5.275-10.933c.166-1.649-.886-2.9-2.339-3.758M62.305,212.412c4.285,3.706,18.084,5.539,23.3,3.025a9.151,9.151,0,0,0,.931-.5c2.931-1.872,2.944-3.07.15-5.124A13.085,13.085,0,0,1,83.54,207.1c-1.9-2.74-4.336-3.518-7.709-3.285-4.25.3-6.591-1.679-6.384-5.056.272-4.48,1.955-7.505,6.255-7.269a19.746,19.746,0,0,1,2.115.1c2.111.36,3.546.012,3.226-2.517-.31-2.42,1.109-3.663,3.164-4.753,2.262-1.2,4.78-1.733,7.687-2.7-3.045-2.786-6.03-.139-8.711-.7a2.934,2.934,0,0,1,2.609-2.529c2.8-.266,5.676-1.111,8.417-.17,2.976,1.02,5.15.838,7.531-1.564,2.556-2.577,5.253-1.96,8.51,1.153-2.174.877-5.034-.7-6.769,1.73,1.335,2.173,3.515,1.4,5.266,1.355,3.12-.075,4.329,1.361,4.881,4.111a36.49,36.49,0,0,1-.7,17.689c-.783,2.692-1.829,5.146-4.379,6.767-.845.538-1.923,1.117-1.513,2.39.445,1.392,1.779,1.534,2.991,1.733,3.145.517,5.936-.786,8.683-1.869,8.752-3.455,14.534-13.075,13.219-21.866-.294-1.946-.32-4.408-3.433-4.184-4.573.326-6.2-2.438-7.155-6.042a60.76,60.76,0,0,0-3.944-10.567c-1.957-4.1-5.212-6.61-9.444-8.455-8.874-3.866-17.363-2.143-25.633,1.391-9.82,4.194-16.3,11.254-18.075,21.77-.488,2.877-.04,5.79-.04,8.682,0,3.27-.016,6.607-4.467,7.629a2.609,2.609,0,0,0-1.886,3.27c.692,3.371,1.626,6.632,4.448,9.07M300.47,73.814a64.212,64.212,0,0,1-9.025,27.635c-13.7,23.11-33.611,38.65-60.806,44.3-31.776,6.61-61.524-12.972-67.385-43.787-1.228-6.459-1.312-13.036.7-19.31,8.708-27.187,26.372-45.949,55.384-53.685a40.246,40.246,0,0,1,10.487-1.446c1.153,0,2.544-.326,3.267,1.516-2.4.505-4.752.928-7.067,1.492-28.84,7.006-47.25,24.894-55.6,51.881-6.61,21.343,6.8,44.894,29.009,53.715a49.71,49.71,0,0,0,31.757,2.182c30.908-8.274,52.055-26.712,61.546-56.686a37.217,37.217,0,0,0,1.08-18.251c-2.872-15.359-14.488-26.3-30.516-28.77a50.565,50.565,0,0,0-22.553,1.724,85.324,85.324,0,0,0-37.176,22.892,25.086,25.086,0,0,0-4.348,5.8c-2.036,3.917-1.194,5.923,3.161,7.412,1.807.62,3.7,1.013,6.763,1.83-5.595,1.728-9.8,1.207-13.526-1.419-2.788-1.967-2.666-5.058-1.942-8a23.072,23.072,0,0,1,5.313-9.353c11.928-13.94,27.152-22.828,45.373-26.7A50.332,50.332,0,0,1,277.456,32.7c18.171,8.776,24.273,26.11,23.014,41.109" transform="translate(-0.001 -27.014)"/>
    </g>
  </g>
  <text id="_5" data-name="5" transform="translate(213 123)" fill="#ff9b30" font-size="101" font-family="Atocha"><tspan x="0" y="0">5</tspan></text>
</svg>
