<svg id="Group_119" data-name="Group 119" xmlns="http://www.w3.org/2000/svg" xmlns:xlink="http://www.w3.org/1999/xlink" width="297.017" height="100" viewBox="0 0 297.017 100">
  <defs>
    <clipPath id="clip-path">
      <rect id="Rectangle_70" data-name="Rectangle 70" width="297.017" height="100" fill="none"/>
    </clipPath>
  </defs>
  <g id="Group_118" data-name="Group 118" clip-path="url(#clip-path)">
    <path id="Path_810" data-name="Path 810" d="M80.438,53.152l-7.164.618a60.332,60.332,0,0,1-.37-6.875c0-2.964-.206-7.946-.33-9.181a4.962,4.962,0,0,0-.617-1.688c-1.894-.371-3.17,4.076-3.252,6.422-.165,3.294-.247,6.34-.165,9.3l-7.41-.288.37-2.676a63.5,63.5,0,0,0,.618-8.851c0-1.318-.37-3.417-.988-3.665s-3.211.494-4.241,2.882c-.165,5.641.083,3.582.083,7.658,0,1.153.124,3.582.124,3.582l-7.616-.371c.083-.123.494-4.816.741-6.957.329-2.759,0-8.481-1.565-10.91A68.973,68.973,0,0,1,55.2,29.232a11.216,11.216,0,0,1,1.276,3.335,8.6,8.6,0,0,1,4.57-3.047,5.348,5.348,0,0,1,3.582.659,7.121,7.121,0,0,1,2.882,2.882,6.6,6.6,0,0,1,4.734-3.294c2.594-.123,4.323.494,5.846,2.429,1.606,2.182,1.482,5.475,1.565,8.563,0,2.758.124,6.545.247,8.522.042.947.329,2.429.536,3.87" transform="translate(-25.433 -15.28)" fill="#ffcd45"/>
    <path id="Path_811" data-name="Path 811" d="M137.94,50.417a8.29,8.29,0,0,1-5.146,1.482c-.741-.823-1.112-3.582-1.112-3.582-.906.329-2.8,1.276-3.829,1.276-4.24,0-7.863-2.058-7.863-6.587a8.339,8.339,0,0,1,.288-2.264,9.889,9.889,0,0,1,3.088-4.9,7.978,7.978,0,0,1,5.229-1.688,12.324,12.324,0,0,1,2.511.329V33.413l-.083-1.77c-.288-1.77-.618-1.647-1.441-1.441-.37.083-2.635.741-3.046.947a14.039,14.039,0,0,0-2.923,1.976c-.782-.535-1.153-1.811-1.523-3.17a7.514,7.514,0,0,1-.041-3.17,12.938,12.938,0,0,1,7.616-2.47,9.417,9.417,0,0,1,3.417.577,6.41,6.41,0,0,1,4.57,4.282,16.515,16.515,0,0,1,.576,4.981c0,.988-.082,2.264-.082,3.417-.041,1.812-.041,2.635-.041,3.582,0,4.158.411,6.546,1.523,7.41a7.072,7.072,0,0,1-1.688,1.853m-9.222-11.775c-.865,0-1.523,2.429-1.523,3.582,0,1.77.494,2.553,1.235,2.553a2.881,2.881,0,0,0,2.8-1.73l-.042-3.17-.329-.33a3.21,3.21,0,0,0-2.141-.905" transform="translate(-62.721 -12.71)" fill="#ffcd45"/>
    <path id="Path_812" data-name="Path 812" d="M175.855,27.1c0,1.482-.082,4.158-.082,7.7,0,1.359.288,2.758,1.235,2.758.7-.082,2.8-3.17,2.964-3.582a7.746,7.746,0,0,1,5.352,2.758,11.713,11.713,0,0,1-10.663,7.864,6.625,6.625,0,0,1-1.523-.165h.042c-3.129-.659-4.735-3.211-4.694-7.7,0-.782,0-2.594.041-5.393V27.756c-1.317.124-2.676.206-3.252.247V21.7c1.071,0,2.676.124,3.129.083,0-1.318,0-2.511.082-3.294.082-2.553.411-6.258.659-10a15.063,15.063,0,0,1,7.122.741l-.083,2.511-.123,1.647c-.042,1.523-.206,2.758-.33,5.434a14.2,14.2,0,0,0-.082,2.264c1.276-.124,2.882-.206,4.158-.288l3.335-.206a7.5,7.5,0,0,1,.577,3.458,25.346,25.346,0,0,1-.247,2.964l-4.076.042c-.823,0-2.553,0-3.54.041" transform="translate(-86.392 -4.376)" fill="#ffcd45"/>
    <path id="Path_813" data-name="Path 813" d="M223.91,44.589c.453,0,2.223-.247,4.652-.577a19.08,19.08,0,0,1-2.718,7.863l-2.923-.535a19.082,19.082,0,0,1-5.558-1.688h.042a11.84,11.84,0,0,1-5.558-4.775,16.243,16.243,0,0,1-1.976-7.946,14.394,14.394,0,0,1,.905-4.941c1.894-4.57,5.064-7.04,9.181-6.752h-.041c6.3.371,9.387,4.9,9.222,13.545l-11.651,2.1c1.03,2.594,3.129,3.706,6.423,3.706m-2.47-9.675a9.7,9.7,0,0,0-.37-2.841A1.563,1.563,0,0,0,219.5,30.88c-.577-.042-1.647.741-2.141,2.1a8.876,8.876,0,0,0-.494,2.717c1.482-.288,3.005-.494,4.57-.782" transform="translate(-109.703 -13.181)" fill="#ffcd45"/>
    <path id="Path_814" data-name="Path 814" d="M285.732,53.152l-7.164.618a60.328,60.328,0,0,1-.37-6.875c0-2.964-.206-7.946-.33-9.181a4.944,4.944,0,0,0-.618-1.688c-1.893-.371-3.17,4.076-3.252,6.422-.165,3.294-.247,6.34-.165,9.3l-7.41-.288.37-2.676a63.5,63.5,0,0,0,.618-8.851c0-1.318-.37-3.417-.988-3.665s-3.212.494-4.241,2.882c-.165,5.641.083,3.582.083,7.658,0,1.153.124,3.582.124,3.582l-7.617-.371c.083-.123.494-4.816.741-6.957.329-2.759,0-8.481-1.565-10.91a69.029,69.029,0,0,1,6.546-2.923,11.225,11.225,0,0,1,1.277,3.335,8.6,8.6,0,0,1,4.569-3.047,5.349,5.349,0,0,1,3.582.659,7.124,7.124,0,0,1,2.882,2.882,6.6,6.6,0,0,1,4.734-3.294c2.594-.123,4.323.494,5.846,2.429,1.606,2.182,1.482,5.475,1.564,8.563,0,2.758.124,6.545.247,8.522.042.947.329,2.429.536,3.87" transform="translate(-132.743 -15.28)" fill="#ffcd45"/>
    <path id="Path_815" data-name="Path 815" d="M343.235,50.417a8.289,8.289,0,0,1-5.146,1.482c-.741-.823-1.112-3.582-1.112-3.582-.906.329-2.8,1.276-3.829,1.276-4.24,0-7.863-2.058-7.863-6.587a8.357,8.357,0,0,1,.288-2.264,9.893,9.893,0,0,1,3.088-4.9,7.978,7.978,0,0,1,5.229-1.688,12.323,12.323,0,0,1,2.511.329V33.413l-.083-1.77c-.288-1.77-.618-1.647-1.441-1.441-.371.083-2.635.741-3.047.947a14.04,14.04,0,0,0-2.923,1.976c-.782-.535-1.153-1.811-1.524-3.17a7.522,7.522,0,0,1-.042-3.17,12.938,12.938,0,0,1,7.616-2.47,9.418,9.418,0,0,1,3.417.577,6.41,6.41,0,0,1,4.57,4.282,16.531,16.531,0,0,1,.576,4.981c0,.988-.082,2.264-.082,3.417-.042,1.812-.042,2.635-.042,3.582,0,4.158.412,6.546,1.523,7.41a7.062,7.062,0,0,1-1.688,1.853m-9.222-11.775c-.865,0-1.523,2.429-1.523,3.582,0,1.77.494,2.553,1.235,2.553a2.881,2.881,0,0,0,2.8-1.73l-.042-3.17-.329-.33a3.212,3.212,0,0,0-2.141-.905" transform="translate(-170.032 -12.71)" fill="#ffcd45"/>
    <path id="Path_816" data-name="Path 816" d="M381.15,27.1c0,1.482-.082,4.158-.082,7.7,0,1.359.288,2.758,1.235,2.758.7-.082,2.8-3.17,2.964-3.582a7.749,7.749,0,0,1,5.352,2.758,11.714,11.714,0,0,1-10.663,7.864,6.621,6.621,0,0,1-1.523-.165h.041c-3.129-.659-4.735-3.211-4.693-7.7,0-.782,0-2.594.041-5.393V27.756c-1.317.124-2.676.206-3.252.247V21.7c1.071,0,2.676.124,3.129.083,0-1.318,0-2.511.083-3.294.082-2.553.411-6.258.658-10a15.062,15.062,0,0,1,7.122.741l-.083,2.511-.123,1.647c-.041,1.523-.206,2.758-.33,5.434a14.194,14.194,0,0,0-.082,2.264c1.276-.124,2.882-.206,4.158-.288l3.335-.206a7.5,7.5,0,0,1,.577,3.458,25.359,25.359,0,0,1-.247,2.964l-4.076.042c-.824,0-2.553,0-3.541.041" transform="translate(-193.703 -4.376)" fill="#ffcd45"/>
    <path id="Path_817" data-name="Path 817" d="M434.094,34.353c-1.812,3.87-4.652,10.127-9.675,22.643-.7,1.852-.782,1.894-1.688,4.158-.576,1.647-1.811,4.611-2.758,7.205-2.964-.206-5.022-1.03-6.216-2.635.247-.494.7-1.606.864-1.976v.041c.782-1.811,1.935-4.981,2.717-7.246,1.194-3.005,1.976-4.981,3.211-7.946a19.6,19.6,0,0,1-5.681-6.463,23.774,23.774,0,0,1-2.635-10.375c1.976-1.153,4.9-.658,7.164-.247a25.062,25.062,0,0,0,2.059,7.9,19.429,19.429,0,0,0,1.729,2.964c2.058-4.735,4.24-9.428,5.846-12.8,2.676.329,4.775,1.235,6.051,2.758l-1.029,2.017Z" transform="translate(-215.481 -15.46)" fill="#ffcd45"/>
    <path id="Path_818" data-name="Path 818" d="M479.158,42.729c-2.141-1.77-2.841-2.964-4.4-5.476a69.4,69.4,0,0,1-3.706-8.769l-.7.864a86.154,86.154,0,0,1,.618,9.3,25.439,25.439,0,0,1-6.752.206,37.2,37.2,0,0,0-.247-5.188c-.288-3.5-.741-8.193-1.359-14.162-.659-6.464-1.4-12.722-1.811-18.4A10.3,10.3,0,0,1,464.913.036a12.737,12.737,0,0,1,3.458.206s-.206,2.182-.206,4.117c.412,5.229.947,9.387,1.4,14.574.042.906.124,1.77.206,2.594.782-.823,1.688-1.894,2.964-3.5l4.569-5.846a28.368,28.368,0,0,1,5.558,5.6,50.986,50.986,0,0,0-4.2,3.458,21.278,21.278,0,0,0-3.294,3.417c.412.864.988,1.935,1.523,3.211,1.44,2.511,2.058,4.364,3.828,6.834,1.812,2.594,3.253,3.129,4.941,2.594l.494,5.311a17.005,17.005,0,0,1-7,.124" transform="translate(-240.866 0)" fill="#ffcd45"/>
    <path id="Path_819" data-name="Path 819" d="M528,50.417a8.288,8.288,0,0,1-5.146,1.482c-.741-.823-1.112-3.582-1.112-3.582-.906.329-2.8,1.276-3.829,1.276-4.24,0-7.863-2.058-7.863-6.587a8.337,8.337,0,0,1,.288-2.264,9.889,9.889,0,0,1,3.088-4.9,7.978,7.978,0,0,1,5.229-1.688,12.323,12.323,0,0,1,2.511.329V33.413l-.083-1.77c-.288-1.77-.618-1.647-1.44-1.441-.371.083-2.635.741-3.047.947a14.041,14.041,0,0,0-2.923,1.976c-.782-.535-1.153-1.811-1.523-3.17a7.513,7.513,0,0,1-.041-3.17,12.935,12.935,0,0,1,7.616-2.47,9.423,9.423,0,0,1,3.418.577,6.41,6.41,0,0,1,4.57,4.282,16.532,16.532,0,0,1,.577,4.981c0,.988-.083,2.264-.083,3.417-.041,1.812-.041,2.635-.041,3.582,0,4.158.411,6.546,1.523,7.41A7.068,7.068,0,0,1,528,50.417m-9.222-11.775c-.865,0-1.523,2.429-1.523,3.582,0,1.77.494,2.553,1.235,2.553a2.881,2.881,0,0,0,2.8-1.73l-.042-3.17-.329-.33a3.211,3.211,0,0,0-2.141-.905" transform="translate(-266.611 -12.71)" fill="#ffcd45"/>
    <path id="Path_820" data-name="Path 820" d="M69.482,142.742l-3.129-.083a8.918,8.918,0,0,0-1.482,0c-2.594.083-6.875-.452-13.668,2.594l-.947-2.635,1.071-3.088a101.384,101.384,0,0,1,5.928-10.58l.165-.247c-.865.37-3.665,1.07-4.612,1.359a17.682,17.682,0,0,0-2.553,1.194l-1.688-6.422A21.113,21.113,0,0,0,52.6,123.8c2.47-.741,4.323-1.194,7.452-2.059,1.811-.493,5.352-1.276,7.04-1.935a23.539,23.539,0,0,0,1.811,2.717,8.691,8.691,0,0,1-1.4,2.759l.083-.083c-.741,1.112-1.729,2.8-2.635,4.076a58.714,58.714,0,0,0-3.623,5.311,12.082,12.082,0,0,0-.782,2.223,23.929,23.929,0,0,1,4.652-.577,46.618,46.618,0,0,1,4.735.041l.165,2.8a11.8,11.8,0,0,1-.618,3.664" transform="translate(-25.387 -62.627)" fill="#51d6d4"/>
    <path id="Path_821" data-name="Path 821" d="M222.732,189.321v-1.192c-17.466.174-34.443.359-48.144.512-.111.684-.233,1.388-.374,2.11l-.326,4.407-2.329-.119a23.536,23.536,0,0,1-7.962-1.763l-1.776-.782.4-1.9c.13-.615.258-1.224.383-1.821-9.946.112-16.687.187-18.334.2-39.5.452-71.17.988-110.988,1.4-14.736,0-31.353-.206-31.353-.206C-.891,192.059.15,193.224.364,193.624c.722,1.351,2.508,2.47,8.152,4.117,43.268-.411,90.922-1.153,140.148-1.811,29.1-.4,54.217-.723,75.518-.984a11.2,11.2,0,0,1-1.45-5.624" transform="translate(0 -98.338)" fill="#51d6d4"/>
    <path id="Path_822" data-name="Path 822" d="M560.9,186.962c-8.4.03-18.375.092-29.13.175a19.216,19.216,0,0,1,.14,2.234c0,.22-.012.426-.026.632-.007.1-.015.205-.015.315v1.877l-1.824.442a17.244,17.244,0,0,1-3.774.479c-4.961,0-8.2-2.111-9.123-5.859l-6.553.058c.018.66.03,1.308.03,1.932a11.978,11.978,0,0,1-.17,2.444h0a10.59,10.59,0,0,1-.71,2.418q6.949-.08,13.221-.148c24.455-.288-.626-.082,39.5-.247,1.255-2.223,1.881-3.87-1.567-6.752" transform="translate(-266.452 -97.728)" fill="#51d6d4"/>
    <path id="Path_823" data-name="Path 823" d="M365.569,138.167a7.984,7.984,0,0,1-8.317,3.211c-.864-.247-2.388-1.894-3.088-2.882-.124,1.688-.7,5.805-1.07,8.6-.247,1.894-.535,4.2-1.029,6.711l-.165,2.223a21.164,21.164,0,0,1-7.122-1.565c.7-3.294,1.441-6.958,1.77-8.851a41.139,41.139,0,0,0,.741-5.641c.412-2.841,1.071-9.963,1.482-12.886a27.28,27.28,0,0,0-.082-7.781c2.47-.946,4.323-1.4,5.681-1.194a8.547,8.547,0,0,1,2.676.659l-.411,3.005c.864-.782,2.964-2.141,4.076-1.976a7.438,7.438,0,0,1,5.187,3.046,11.777,11.777,0,0,1,2.1,8.357,17.834,17.834,0,0,1-2.429,6.958m-4.364-9.84c-.206-2.553-.905-2.635-.947-2.635a4.546,4.546,0,0,0-2.635.659,3.8,3.8,0,0,0-1.729,1.771c0-.042-.165.412-.288.617l-.576,4.447c1.153,1.276,2.017,1.893,2.47,1.893a3.088,3.088,0,0,0,2.264-1.358,8.112,8.112,0,0,0,1.4-3.911,9.928,9.928,0,0,0,.041-1.482" transform="translate(-180.221 -61.716)" fill="#ff9b30"/>
    <path id="Path_824" data-name="Path 824" d="M412.672,143.928a8.289,8.289,0,0,1-5.146,1.481c-.741-.823-1.112-3.581-1.112-3.581-.906.329-2.8,1.276-3.829,1.276-4.24,0-7.863-2.058-7.863-6.587a8.342,8.342,0,0,1,.288-2.265,9.89,9.89,0,0,1,3.088-4.9,7.979,7.979,0,0,1,5.229-1.688,12.291,12.291,0,0,1,2.511.329v-1.071l-.083-1.77c-.288-1.77-.618-1.647-1.441-1.441-.37.083-2.635.741-3.046.947a14.039,14.039,0,0,0-2.923,1.976c-.782-.536-1.153-1.811-1.523-3.17a7.518,7.518,0,0,1-.041-3.17,12.937,12.937,0,0,1,7.617-2.47,9.418,9.418,0,0,1,3.417.576,6.411,6.411,0,0,1,4.57,4.282,16.519,16.519,0,0,1,.576,4.982c0,.988-.082,2.264-.082,3.417-.041,1.812-.041,2.635-.041,3.582,0,4.158.411,6.546,1.523,7.41a7.071,7.071,0,0,1-1.688,1.853m-9.222-11.775c-.865,0-1.523,2.429-1.523,3.582,0,1.77.494,2.553,1.235,2.553a2.881,2.881,0,0,0,2.8-1.73l-.041-3.17-.329-.33a3.21,3.21,0,0,0-2.141-.905" transform="translate(-206.328 -61.59)" fill="#ff9b30"/>
    <path id="Path_825" data-name="Path 825" d="M449.142,129c3.623,1.235,8.234,2.841,8.234,8.646,0,4.735-3.911,8.028-9.3,8.028-7.7,0-8.933-4.241-8.769-10.293l6.958.494a5.775,5.775,0,0,0-.082,3.294,1.6,1.6,0,0,0,1.688,1.194,2.781,2.781,0,0,0,2.553-2.964c0-2.017-1.976-2.676-3.911-3.376-3.54-1.235-7.122-2.552-7.163-6.669-.083-5.476,5.187-7.287,9.469-7.287,3.952,0,7.41.371,7.658,7.9l-5.022.37c-.124-2.182-1.359-3.211-2.265-3.252a2.467,2.467,0,0,0-2.717,2.264c.123.823,1.07,1.112,2.676,1.647" transform="translate(-229.623 -62.762)" fill="#ff9b30"/>
    <path id="Path_826" data-name="Path 826" d="M488.214,147.149v-.041a8.307,8.307,0,0,1-2.676,4.94,7.428,7.428,0,0,1-4.858,1.606,8.788,8.788,0,0,1-6.176-2.388,8.975,8.975,0,0,1-2.841-6.629V143.32c.041-.535.247-1.893.288-2.305a8.551,8.551,0,0,1,7,.823l-.247,2.182a2.745,2.745,0,0,0-.041.659,2.889,2.889,0,0,0,.659,2.223h-.041c.576.618,1.029.906,1.4.906.288,0,.452-.536.618-1.606a14.3,14.3,0,0,0,.041-1.565v-.493a86.894,86.894,0,0,0-1.071-12.351c-.823-5.27-1.935-11.9-2.758-17.126a11.175,11.175,0,0,1,6.916-.741l.412,2.265,2.305,14.862a93.677,93.677,0,0,1,1.194,14.121,9.967,9.967,0,0,1-.124,1.976m-4.734-37.67a4.353,4.353,0,0,1-3.212,1.194,4.42,4.42,0,0,1-3.294-1.194l.083.042a3.561,3.561,0,0,1,0-5.723l-.083.041a4.42,4.42,0,0,1,3.294-1.194,4.465,4.465,0,0,1,3.17,1.153,3.918,3.918,0,0,1,1.441,2.882,3.851,3.851,0,0,1-1.4,2.8" transform="translate(-246.547 -53.654)" fill="#ff9b30"/>
    <path id="Path_827" data-name="Path 827" d="M529.507,153.232c0,.329-.041.618-.041.946a14.85,14.85,0,0,1-3.211.412c-3.294,0-6.752-1.029-7-5.352a7.173,7.173,0,0,1,2.635-5.105,16.607,16.607,0,0,1-.494-2.305c-.906.329-2.8,1.276-3.829,1.276-4.24,0-7.863-2.058-7.863-6.587a8.34,8.34,0,0,1,.288-2.265,9.893,9.893,0,0,1,3.088-4.9,7.98,7.98,0,0,1,5.229-1.688,12.291,12.291,0,0,1,2.511.329v-1.071l-.083-1.77c-.288-1.77-.618-1.647-1.44-1.441-.371.083-2.635.741-3.047.947a14.04,14.04,0,0,0-2.923,1.976c-.782-.536-1.153-1.811-1.523-3.17a7.516,7.516,0,0,1-.041-3.17,12.937,12.937,0,0,1,7.616-2.47,9.422,9.422,0,0,1,3.417.576,6.411,6.411,0,0,1,4.57,4.282,16.516,16.516,0,0,1,.577,4.982c0,.988-.083,2.264-.083,3.417-.041,1.812-.041,2.635-.041,3.582,0,4.158.411,6.546,1.523,7.41a7.07,7.07,0,0,1-1.688,1.853,13.25,13.25,0,0,1-2.182,1.07,3.73,3.73,0,0,0-1.4,3.129c0,1.153,1.235,1.564,1.976,1.564a14.916,14.916,0,0,0,3.088-.535,40.472,40.472,0,0,1,.37,4.076m-11.074-21.079c-.865,0-1.523,2.429-1.523,3.582,0,1.77.494,2.553,1.235,2.553a2.881,2.881,0,0,0,2.8-1.73l-.041-3.17-.33-.33a3.21,3.21,0,0,0-2.141-.905" transform="translate(-266.431 -61.59)" fill="#ff9b30"/>
  </g>
</svg>
